<?xml version="1.0" standalone="no"?>
<!DOCTYPE svg PUBLIC "-//W3C//DTD SVG 1.1//EN" "http://www.w3.org/Graphics/SVG/1.1/DTD/svg11.dtd" >
<svg xmlns="http://www.w3.org/2000/svg" xmlns:xlink="http://www.w3.org/1999/xlink" version="1.1">
<metadata></metadata>
<defs>
<font id="panton_thinitalic" horiz-adv-x="1095" >
<font-face units-per-em="2048" ascent="1516" descent="-532" />
<missing-glyph horiz-adv-x="524" />
<glyph unicode="&#xfb01;" horiz-adv-x="1060" d="M76 1026l2 10q3 8 10 8h248l14 86q41 227 139 306q95 80 318 80h252q6 0 6 -9l-2 -10q-3 -8 -10 -8h-252q-210 0 -297 -72q-87 -69 -125 -287l-14 -86h610q9 0 6 -8l-180 -1028q-3 -8 -10 -8h-13q-9 0 -6 8l178 1010h-590l-178 -1010q-3 -8 -10 -8h-12q-9 0 -6 8 l178 1010h-248q-8 0 -8 8z" />
<glyph unicode="&#xfb02;" horiz-adv-x="1062" d="M76 1026l2 10q3 8 10 8h248l14 86q41 227 139 306q95 80 318 80h246q6 0 6 -9l-264 -1499q-3 -8 -11 -8h-12q-9 0 -6 8l260 1481h-225q-210 0 -297 -72q-87 -69 -125 -287l-14 -86h319q9 0 6 -8l-2 -10q0 -8 -8 -8h-320l-178 -1010q-3 -8 -10 -8h-12q-9 0 -6 8l178 1010 h-248q-8 0 -8 8z" />
<glyph horiz-adv-x="0" />
<glyph unicode="&#xd;" horiz-adv-x="681" />
<glyph unicode=" "  horiz-adv-x="524" />
<glyph unicode="&#x09;" horiz-adv-x="524" />
<glyph unicode="&#xa0;" horiz-adv-x="524" />
<glyph unicode="!" horiz-adv-x="344" d="M41 18v9q6 26 33 26h8q26 0 20 -26v-9q-6 -26 -32 -26h-9q-17 0 -19.5 4t-0.5 22zM104 274l211 1233q0 9 11 9h18q6 0 6 -9l-223 -1233q-3 -8 -10 -8h-6q-10 0 -7 8z" />
<glyph unicode="&#x22;" horiz-adv-x="481" d="M213 1024l76 422q0 8 8 8h18q9 0 9 -8l-88 -422q0 -8 -11 -8h-6q-6 0 -6 8zM377 1024l76 422q0 8 8 8h18q8 0 8 -8l-88 -422q0 -8 -10 -8h-6q-6 0 -6 8z" />
<glyph unicode="#" horiz-adv-x="1333" d="M61 449l7 12q3 8 12 8h264l207 436h-264q-9 0 -4 8l6 13q3 8 12 8h264l174 366q3 9 13 9h16q10 0 4 -9l-174 -366h403l175 366q6 9 10 9h16q12 0 6 -9l-174 -366h269q9 0 6 -10l-6 -13q-3 -6 -13 -6h-270l-207 -436h268q9 0 6 -10l-8 -13q-3 -6 -10 -6h-268l-205 -432 q-8 -8 -14 -8h-17q-9 0 -4 8l205 432h-404l-204 -432q-3 -8 -13 -8h-16q-9 0 -4 8l205 432h-264q-11 0 -5 9zM377 469h403l207 436h-403z" />
<glyph unicode="$" horiz-adv-x="1210" d="M59 371q-3 11 7 14l12 4q7 2 10 -4q46 -182 137 -270q89 -86 285 -86q454 0 518 356q41 214 -131 279q-71 28 -264 49q-237 24 -328 84q-122 81 -88 266q71 391 514 391l29 162q3 8 10 8h12q9 0 6 -8l-28 -162q182 -6 272 -84q89 -77 148 -235q3 -10 -6 -13l-11 -2 q-6 -2 -10 2q-59 157 -149 232q-89 71 -283 71q-411 0 -475 -366q-34 -192 96 -250q62 -29 122 -42t169 -24h8q93 -8 145.5 -18t116.5 -33q68 -24 103 -59q37 -40 53 -105.5t0 -146.5q-67 -381 -555 -381l-29 -162q0 -8 -10 -8h-12q-7 0 -7 8l29 162q-184 7 -278.5 96 t-137.5 275z" />
<glyph unicode="%" horiz-adv-x="1640" d="M180 1038l27 154q25 141 115.5 217t238.5 76q147 0 214 -81.5t42 -223.5l-26 -154q-25 -140 -116 -215.5t-239 -75.5q-147 0 -214 80.5t-42 222.5zM190 10l1311 1436q5 8 17 8h16q12 0 2 -10l-1309 -1436q-8 -8 -20 -8h-12q-15 0 -5 10zM207 1032q-23 -128 36.5 -198 t194.5 -70q133 0 218 70t108 198l27 154q23 128 -38 199t-194 71t-218 -71t-108 -199zM909 276l27 154q25 140 115.5 214.5t238.5 74.5q147 0 215 -81.5t43 -223.5l-26 -154q-25 -140 -117.5 -215.5t-241.5 -75.5q-146 0 -212.5 82t-41.5 225zM936 266q-23 -128 37.5 -198 t193.5 -70q134 0 218.5 70t107.5 198l27 154q23 128 -38 199t-194 71t-217.5 -71t-107.5 -199z" />
<glyph unicode="&#x26;" horiz-adv-x="1308" d="M76 338q35 183 162 276q64 48 120 78t150 68q-97 110 -137.5 201.5t-22.5 199.5q24 134 135 228q107 94 265 94q147 0 229 -101q79 -101 55 -231q-28 -147 -125 -225q-110 -86 -327 -170l-21 -8l406 -463l186 151q9 3 12 0l11 -10q3 -3 -3 -12l-188 -152l229 -252 q7 -10 -6 -10h-18q-12 0 -17 8l-208 238q-211 -167 -338 -221t-250 -54q-147 0 -236 109q-90 110 -63 258zM106 334q-24 -143 56 -238q78 -96 217 -96q117 0 235 53q125 56 328 213l-412 469q-185 -68 -292 -155q-105 -85 -132 -246zM377 1155q-11 -72 11.5 -148.5 t57.5 -121.5q25 -37 91 -113l30 12q213 81 287 136q120 89 147 235q21 122 -51 209q-75 90 -209 90q-138 0 -239 -88q-104 -90 -125 -211z" />
<glyph unicode="'" horiz-adv-x="317" d="M213 1024l76 422q0 8 8 8h18q9 0 9 -8l-88 -422q0 -8 -11 -8h-6q-6 0 -6 8z" />
<glyph unicode="(" horiz-adv-x="450" d="M88 203l186 1048q30 171 115 272.5t246 168.5q7 4 10 -2l2 -13q3 -6 -4 -10q-151 -65 -231 -160t-109 -256l-186 -1048q-29 -160 18.5 -255.5t175.5 -160.5q5 -5 2 -10l-8 -13q-6 -6 -10 -2q-136 67 -186 169t-21 272z" />
<glyph unicode=")" horiz-adv-x="450" d="M-127 -223q-3 7 6 10q151 64 230 159.5t108 256.5l186 1048q29 164 -16 259t-176 157q-7 4 -4 10l10 13q3 6 10 2q135 -70 185 -171t20 -270l-186 -1048q-29 -170 -113.5 -273t-243.5 -170q-8 -3 -10 2z" />
<glyph unicode="*" horiz-adv-x="811" d="M236 1180l8 16q2 7 12 4l225 -86l39 256q3 8 10 8h17q9 0 6 -8l-51 -256l256 84q11 3 14 -4v-16q3 -10 -8 -13l-260 -69l123 -207q3 -10 -4 -12l-17 -11q-9 -3 -12 2l-109 215l-184 -213q-8 -8 -12 -4l-13 13q-9 6 0 12l195 205l-229 71q-13 3 -6 13z" />
<glyph unicode="+" horiz-adv-x="1208" d="M129 664l2 12q3 8 10 8h461l82 461q0 8 8 8h13q8 0 8 -8l-82 -461h461q9 0 6 -8l-2 -12q0 -9 -11 -9h-460l-80 -460q-3 -9 -10 -9h-13q-9 0 -6 9l80 460h-461q-6 0 -6 9z" />
<glyph unicode="," horiz-adv-x="276" d="M-100 -240l141 297q6 15 20 15h13q17 0 8 -15l-158 -297q-3 -8 -10 -8h-8q-9 0 -6 8z" />
<glyph unicode="-" horiz-adv-x="884" d="M123 539l2 12q3 8 10 8h594q9 0 6 -8l-2 -12q0 -9 -8 -9h-594q-8 0 -8 9z" />
<glyph unicode="." horiz-adv-x="280" d="M24.5 -3.5q-3.5 4.5 0.5 21.5l2 9q6 26 32 26h9q26 0 20 -26l-2 -9q-6 -26 -33 -26h-8q-17 0 -20.5 4.5z" />
<glyph unicode="/" horiz-adv-x="776" d="M-43 -115l854 1561q3 8 12 8h15q9 0 6 -8l-854 -1561q-3 -8 -15 -8h-14q-7 0 -4 8z" />
<glyph unicode="0" horiz-adv-x="1261" d="M135 430l107 602q37 212 188 331.5t387 119.5q234 0 346.5 -124.5t75.5 -336.5l-106 -602q-37 -211 -189 -330t-389 -119q-236 0 -346.5 122t-73.5 337zM164 426q-35 -202 67.5 -314t327.5 -112q223 0 366.5 112.5t178.5 313.5l106 602q35 199 -69 312.5t-326 113.5 q-224 0 -366.5 -113t-178.5 -313z" />
<glyph unicode="1" horiz-adv-x="837" d="M160 1141q-6 7 4 10l594 299q2 1 5 2l4.5 1.5t2.5 0.5h12q9 0 9 -8l-254 -1438q-3 -8 -11 -8h-12q-11 0 -8 8l250 1409l-580 -291q-8 -3 -10 2z" />
<glyph unicode="2" horiz-adv-x="1179" d="M16 10l25 146q24 140 133 245q47 44 119 82q80 43 129 62q19 8 70.5 25.5t78.5 27.5q247 90 330 141q189 116 227 326q32 182 -60.5 285.5t-283.5 103.5q-183 0 -310 -75t-228 -238q-3 -8 -10 -4l-15 6q-5 5 -2 10q105 172 239.5 251t327.5 79q207 0 305 -112.5 t66 -309.5q-31 -193 -196 -318q-73 -55 -222 -112q-33 -13 -125 -47q-8 -3 -22 -8.5t-19 -6.5q-89 -30 -141 -51q-49 -19 -123 -59q-77 -41 -112 -76q-103 -96 -125 -227l-21 -127h918q6 0 6 -9l-2 -12q-3 -8 -10 -8h-938q-12 0 -9 10z" />
<glyph unicode="3" horiz-adv-x="1196" d="M66 344q-3 8 8 12l8 2q9 3 12 -6q21 -184 111 -268t307 -84q442 0 506 387q29 159 -45 252.5t-234 93.5h-391q-9 0 -6 8l2 13q0 8 10 8h391q146 0 237.5 89t117.5 232q31 176 -56 273.5t-274 97.5q-210 0 -326 -76q-118 -77 -200 -258q-3 -8 -15 -4l-8 2q-7 2 -4 12 q83 187 211 270t348 83q198 0 291.5 -107.5t58.5 -296.5q-21 -122 -90 -211t-178 -120q115 -37 164.5 -130.5t24.5 -230.5q-74 -416 -535 -416q-223 0 -325 89.5t-121 283.5z" />
<glyph unicode="4" horiz-adv-x="1204" d="M37 467l2 8q0 1 0.5 2.5l1.5 4.5t2 5l965 990q9 6 14 6h14q11 0 8 -10l-174 -986h244q9 0 6 -8l-2 -12q0 -8 -8 -8h-244l-80 -451q-3 -8 -10 -8h-14q-9 0 -6 8l80 451h-791q-8 0 -8 8zM80 487h760l168 947z" />
<glyph unicode="5" horiz-adv-x="1185" d="M37 283q0 6 4 10l18 6q9 3 9 -6q52 -295 430 -295q213 0 348 117q133 112 168 293q32 195 -63 299t-302 104h-440q-18 0 -12 16l168 605q9 22 28 22h774q9 0 9 -8l-5 -12q0 -9 -8 -9h-770l-162 -585h418q222 0 327 -115.5t68 -323.5q-35 -194 -176 -311 q-145 -121 -372 -121q-400 0 -459 314z" />
<glyph unicode="6" horiz-adv-x="1245" d="M147 471l91 512q85 500 589 500q369 0 433 -303q0 -8 -9 -11l-12 -4q-8 -3 -8 6q-59 283 -408 283q-234 0 -375.5 -119.5t-179.5 -351.5l-47 -264q213 92 508 92q246 0 346.5 -106t63.5 -322q-35 -198 -184.5 -305t-387.5 -107q-245 0 -354 132t-66 368zM178 471 q-42 -224 58.5 -347.5t330.5 -123.5q226 0 368.5 102.5t174.5 288.5q35 198 -59.5 294.5t-327.5 96.5q-273 0 -508 -96z" />
<glyph unicode="7" horiz-adv-x="1013" d="M184 1434l4 12q0 8 9 8h921q8 0 8 -8l-2 -8l-4 -13l-870 -1417q-5 -8 -17 -8h-14q-10 0 -2 8l870 1417h-894q-9 0 -9 9z" />
<glyph unicode="8" horiz-adv-x="1230" d="M88 326q47 240 283 352q100 51 217 76q-157 49 -242 125q-106 89 -72 258q29 169 165.5 257.5t359.5 88.5q228 0 331 -91.5t74 -265.5q-18 -98 -69.5 -175t-124.5 -120q-128 -75 -248 -98q92 -27 149.5 -54t112.5 -71q112 -90 78 -274q-64 -363 -570 -363 q-260 0 -367.5 90.5t-76.5 264.5zM119 326q-27 -162 72.5 -244t345.5 -82q477 0 536 338q13 74 -3 131.5t-43.5 93.5t-91 68.5t-111.5 49.5t-140 44q-28 9 -41 12q-57 -10 -145 -35q-60 -18 -115 -49q-99 -49 -173.5 -131t-90.5 -196zM303 1133q-35 -197 146 -291 q66 -35 243 -88l10 -4q83 12 175 47q80 31 127 65q58 40 107 112.5t65 158.5q29 158 -69 239.5t-314 81.5q-208 0 -336 -83t-154 -238z" />
<glyph unicode="9" horiz-adv-x="1245" d="M68 274q0 8 8 11l12 4q8 3 8 -6q59 -283 408 -283q234 0 375.5 119.5t179.5 351.5l47 264q-213 -92 -508 -92q-246 0 -346.5 106t-63.5 322q35 198 184.5 305t387.5 107q245 0 354 -132t66 -368l-90 -512q-85 -500 -590 -500q-368 0 -432 303zM217 1063 q-35 -198 59.5 -294.5t327.5 -96.5q273 0 508 96l37 215q42 224 -58.5 347.5t-330.5 123.5q-226 0 -368.5 -102.5t-174.5 -288.5z" />
<glyph unicode=":" horiz-adv-x="358" d="M56.5 -3.5q-3.5 4.5 0.5 21.5l2 9q6 26 33 26h8q27 0 21 -26l-2 -9q-6 -26 -33 -26h-8q-18 0 -21.5 4.5zM200.5 918q-3.5 5 0.5 22l2 8q6 27 33 27h8q26 0 20 -27l-2 -8q-6 -27 -33 -27h-8q-17 0 -20.5 5z" />
<glyph unicode=";" horiz-adv-x="366" d="M-55 -240l141 297q6 15 20 15h13q17 0 8 -15l-160 -297q-3 -8 -10 -8h-6q-9 0 -6 8zM180 918q-4 5 0 22l2 8q6 27 33 27h8q27 0 21 -27l-2 -8q-6 -27 -33 -27h-8q-17 0 -21 5z" />
<glyph unicode="&#x3c;" horiz-adv-x="1044" d="M94 664l2 8q4 11 13 14l872 430q6 4 10 2t2 -8l-6 -18q-3 -10 -14 -17l-834 -409v-2l688 -412q13 -10 11 -16l-2 -11q-3 -9 -13 -6l-721 430q-11 7 -8 15z" />
<glyph unicode="=" horiz-adv-x="1253" d="M115 461l2 12q0 8 8 8h950q8 0 8 -8l-2 -12q-3 -8 -10 -8h-950q-9 0 -6 8zM186 866l2 13q0 8 9 8h950q8 0 8 -8l-2 -13q-3 -8 -10 -8h-950q-10 0 -7 8z" />
<glyph unicode="&#x3e;" horiz-adv-x="1042" d="M72 225l6 17q3 9 14 16l834 410l2 2l-690 411q-13 10 -11 17l2 12q3 9 13 6l721 -430q10 -7 8 -14l-2 -8q-4 -12 -13 -15l-872 -430q-6 -4 -10 -2t-2 8z" />
<glyph unicode="?" horiz-adv-x="1124" d="M170 1178q188 338 559 338q219 0 326 -119q109 -121 75 -301q-35 -191 -143 -299q-56 -56 -99.5 -89t-117.5 -77q-26 -16 -59.5 -38t-42.5 -28q-24 -15 -82 -69q-96 -89 -123 -236q-3 -8 -8 -8h-13q-8 0 -8 8q26 155 127 250q57 53 88 76q3 2 42 26.5t67 42.5 q78 46 115 73.5t94 82.5q106 106 133 285q29 165 -66 280q-99 111 -303 111q-356 0 -532 -318q-6 -9 -13 -6l-12 4q-7 3 -4 11zM377 18v9q6 26 33 26h8q26 0 20 -26v-9q-6 -26 -32 -26h-9q-17 0 -19.5 4t-0.5 22z" />
<glyph unicode="@" horiz-adv-x="1841" d="M162 528l22 138q68 381 322 598q257 219 631 219q386 0 559 -221q171 -223 106 -596l-22 -138q-38 -211 -162 -317q-126 -111 -277 -111q-101 0 -92 93q-178 -93 -407 -93q-172 0 -244 84t-43 244l59 334q27 160 129.5 246t272.5 86q201 0 340 -62q39 -19 49.5 -38 t3.5 -60l-127 -725q-15 -80 64 -80q136 0 253 102q116 104 150 297l23 138q65 367 -101 577q-166 211 -541 211q-361 0 -606 -211q-244 -210 -309 -577l-22 -138q-66 -368 103 -569t535 -201q108 0 222 15q108 15 168 30l57 15q8 0 8 -2l-2 -19q-2 -7 -10 -10 q-191 -57 -447 -57q-383 0 -557.5 207t-107.5 591zM586 428q-53 -299 260 -299q99 0 197.5 20.5t148.5 43.5q41 18 63 34l123 707q6 32 -1.5 46t-37.5 28q-117 57 -327 57q-315 0 -367 -303z" />
<glyph unicode="A" horiz-adv-x="1269" d="M-74 8l844 1448q7 10 16 10h13q12 0 12 -10l336 -1448q0 -8 -10 -8h-9q-12 0 -12 8l-123 527h-725l-307 -527q-5 -8 -16 -8h-13q-14 0 -6 8zM285 563h704l-196 842l-3 10q-2 10 -2 15h-2q-5 -15 -10 -25z" />
<glyph unicode="B" horiz-adv-x="1302" d="M74 8l254 1438q0 8 8 8h584q178 0 260 -94q59 -68 60 -177q0 -42 -9 -89q-49 -282 -295 -346v-3q132 -26 190 -125q39 -66 39 -153q0 -43 -10 -92q-35 -182 -152.5 -278.5t-302.5 -96.5h-620q-9 0 -6 8zM109 29h596q172 0 280 90.5t139 261.5q8 45 8 84q0 106 -57 173 q-78 91 -248 91h-596zM236 758h563q164 0 270 86q104 87 131 250q8 46 8 85q0 102 -51 162q-75 84 -239 84h-564z" />
<glyph unicode="C" horiz-adv-x="1292" d="M147 467l93 522q42 236 201 365t419 129q231 0 340.5 -87.5t128.5 -275.5q3 -8 -8 -12l-8 -2q-10 -3 -10 4q-20 182 -122 263t-321 81q-248 0 -400.5 -122t-189.5 -341l-90 -520q-10 -59 -10 -110q0 -145 80 -235q110 -122 354 -122q224 0 355 83t217 269q3 9 12 6l10 -4 q7 -2 4 -12q-90 -196 -219 -283q-133 -92 -377 -92q-260 -1 -380 131q-90 98 -89 253q0 53 10 112z" />
<glyph unicode="D" horiz-adv-x="1306" d="M74 8l254 1438q0 8 8 8h403q281 0 412 -145q98 -108 97 -277q0 -58 -11 -123l-66 -372q-44 -253 -225 -395t-463 -142h-403q-9 0 -6 8zM109 29h380q269 0 440 135t214 377l65 372q10 61 10 115q0 162 -92 262q-122 134 -391 135h-381z" />
<glyph unicode="E" horiz-adv-x="1157" d="M74 8l254 1438q0 8 8 8h846q8 0 8 -8l-4 -12q0 -9 -8 -9h-824l-118 -673h737q9 0 6 -9l-2 -12q-3 -8 -10 -8h-738l-120 -694h854q6 0 6 -9l-2 -12q-3 -8 -11 -8h-876q-9 0 -6 8z" />
<glyph unicode="F" horiz-adv-x="1134" d="M74 8l254 1438q0 8 8 8h846q8 0 8 -8l-4 -12q0 -9 -8 -9h-824l-123 -696h723q10 0 7 -8l-3 -12q0 -9 -10 -9h-723l-121 -692q-3 -8 -10 -8h-14q-9 0 -6 8z" />
<glyph unicode="G" horiz-adv-x="1325" d="M147 469l93 520q42 236 201 365t419 129q231 0 341.5 -88t129.5 -275q0 -9 -8 -12l-10 -2q-10 -3 -10 4q-20 182 -122 263t-321 81q-250 0 -400.5 -120.5t-189.5 -342.5l-90 -520q-10 -60 -10 -113q0 -145 79 -236q108 -122 357 -122q243 0 397.5 124t192.5 347l35 207 h-490q-6 0 -6 8l2 12q3 9 11 9h509q5 0 7.5 -3.5t1.5 -7.5l-41 -227q-42 -235 -202.5 -366.5t-416.5 -131.5q-261 0 -380 131q-89 98 -89 254q0 53 10 113z" />
<glyph unicode="H" horiz-adv-x="1388" d="M74 8l254 1438q0 8 8 8h14q8 0 8 -8l-122 -694h966l123 694q0 8 8 8h15q8 0 8 -8l-254 -1438q-3 -8 -10 -8h-15q-9 0 -6 8l125 715h-967l-125 -715q-3 -8 -10 -8h-14q-9 0 -6 8z" />
<glyph unicode="I" horiz-adv-x="391" d="M74 8l254 1438q0 8 8 8h14q8 0 8 -8l-254 -1438q-3 -8 -10 -8h-14q-9 0 -6 8z" />
<glyph unicode="J" horiz-adv-x="1150" d="M18 397q0 9 7 13l14 4q5 2 8 0t2 -6v-22q0 -188 83 -284q89 -102 284 -102q208 0 341.5 113.5t170.5 316.5l180 1016q0 8 8 8h14q5 0 7.5 -2t1.5 -6l-181 -1022q-37 -215 -179.5 -335t-364.5 -120q-396 0 -396 410v18z" />
<glyph unicode="K" horiz-adv-x="1204" d="M74 8l254 1438q0 8 8 8h14q8 0 8 -8l-122 -694h321q47 0 61 -2l633 696q5 8 19 8h14q14 0 4 -10l-637 -701q94 -17 149 -69.5t87 -149.5l168 -514q3 -10 -8 -10h-9q-11 0 -14 8l-164 500q-39 118 -103.5 166.5t-195.5 48.5h-332l-125 -715q-3 -8 -10 -8h-14q-9 0 -6 8z " />
<glyph unicode="L" horiz-adv-x="1030" d="M74 8l254 1438q0 8 8 8h14q8 0 8 -8l-249 -1417h806q7 0 7 -9l-2 -12q-3 -8 -11 -8h-829q-9 0 -6 8z" />
<glyph unicode="M" horiz-adv-x="1619" d="M74 8l254 1438q0 8 8 8h10q9 0 12 -10l414 -1051l774 1049q9 12 19 12h14q8 0 8 -8l-254 -1438q-3 -8 -10 -8h-14q-9 0 -6 8l188 1065l57 316h-2l-192 -259l-563 -763q-11 -11 -17 -11h-12q-10 0 -14 11l-302 774l-96 250h-2l-57 -318l-187 -1065q-3 -8 -10 -8h-14 q-9 0 -6 8z" />
<glyph unicode="N" horiz-adv-x="1402" d="M74 8l254 1438q0 8 8 8h8l12 -6l592 -1118l146 -271h2l59 351l184 1038q0 6 9 6h14q8 0 8 -8l-254 -1438q-3 -8 -10 -8h-12q-10 0 -13 8l-608 1153q-8 18 -53 107q-41 72 -70 129h-2q-35 -191 -53 -310l-191 -1079q-3 -8 -10 -8h-14q-9 0 -6 8z" />
<glyph unicode="O" horiz-adv-x="1351" d="M154 473l92 520q42 235 202.5 362.5t421.5 127.5q258 1 377 -133q87 -98 88 -251q0 -55 -12 -118l-92 -520q-41 -235 -201 -362.5t-418 -127.5q-261 -1 -381 133q-88 98 -88 252q0 55 11 117zM184 469q-10 -58 -10 -110q0 -146 82 -236q110 -123 356 -123 q243 0 396.5 123.5t191.5 345.5l92 516q10 57 10 108q0 146 -82 238q-110 123 -352 123q-247 0 -400.5 -121.5t-191.5 -347.5z" />
<glyph unicode="P" horiz-adv-x="1253" d="M74 8l254 1438q0 8 8 8h555q203 0 301 -121q71 -87 71 -217q0 -50 -10 -106q-38 -200 -173.5 -310t-340.5 -110h-532l-103 -582q-3 -8 -10 -8h-14q-9 0 -6 8zM211 618h530q193 0 322.5 107t161.5 295q8 50 8 94q0 124 -66 204q-90 108 -282 107h-531z" />
<glyph unicode="Q" horiz-adv-x="1372" d="M154 473l92 520q42 235 202.5 362.5t421.5 127.5q258 0 377 -133q87 -99 87 -251q0 -56 -11 -118l-92 -520q-40 -233 -199 -361l125 -188q6 -6 -2 -12l-10 -9q-9 -6 -12 0l-127 189q-157 -109 -394 -109q-261 0 -381 133q-88 99 -88 252q0 55 11 117zM184 469 q-10 -58 -10 -110q0 -145 82 -236q110 -123 356 -123q243 0 396.5 123.5t191.5 345.5l92 516q10 57 10 108q0 147 -82 238q-109 123 -352 123q-247 0 -400.5 -121.5t-191.5 -347.5z" />
<glyph unicode="R" horiz-adv-x="1296" d="M74 8l254 1438q0 8 8 8h596q188 0 274 -105q62 -76 63 -197q0 -45 -9 -97q-30 -180 -153 -279t-310 -104q120 -45 174 -199l151 -463q3 -10 -8 -10h-10q-11 0 -14 8l-150 449q-38 115 -107 165t-200 50h-412l-117 -664q-3 -8 -10 -8h-14q-9 0 -6 8zM225 700h572 q174 0 288.5 95t145.5 266q9 49 9 91q0 109 -58 178q-80 95 -256 95h-572z" />
<glyph unicode="S" horiz-adv-x="1247" d="M37 338q-4 11 6 14l12 4q8 3 11 -4q47 -184 156 -267t302 -83q492 0 557 363q3 33 3 62q0 81 -26 131q-36 67 -132 101q-62 23 -112 32.5t-150 21.5q-114 14 -190.5 35.5t-147.5 62.5q-122 72 -122 225q0 37 7 80q32 179 177 273t380 94q188 0 298 -78t161 -236 q3 -9 -6 -12l-7 -4q-8 -3 -12 2q-48 151 -152.5 224t-285.5 73q-221 0 -358 -88.5t-166 -253.5q-8 -41 -8 -77q0 -140 118 -202q70 -37 142.5 -56.5t181.5 -31.5q73 -9 106.5 -14t79 -16t88.5 -29q65 -26 105 -66q39 -41 56 -109q9 -35 8 -74q0 -37 -7 -77 q-35 -197 -179.5 -292t-406.5 -95q-205 0 -324 89.5t-163 277.5z" />
<glyph unicode="T" horiz-adv-x="1056" d="M164 1434l4 12q0 8 8 8h993q9 0 9 -8l-4 -12q0 -9 -9 -9h-481l-250 -1417q-3 -8 -10 -8h-14q-10 0 -7 8l250 1417h-481q-8 0 -8 9z" />
<glyph unicode="U" horiz-adv-x="1388" d="M188 494l170 952q3 8 9 8h14q8 0 8 -8l-170 -957q-11 -64 -11 -120q0 -149 76 -242q104 -129 345 -129q243 0 392.5 129.5t188.5 361.5l170 957q0 8 9 8h14q11 0 8 -8l-170 -963q-43 -247 -200 -380.5t-414 -133.5q-257 1 -369 139q-81 100 -82 257q0 60 12 129z" />
<glyph unicode="V" horiz-adv-x="1230" d="M176 1446q-3 8 6 8h15q9 0 12 -8l283 -1296l24 -107h2q1 2 60 107l743 1296q5 8 12 8h19q7 0 4 -8l-824 -1436q-7 -10 -16 -10h-12q-12 0 -12 10z" />
<glyph unicode="W" horiz-adv-x="1755" d="M199 1446q-3 8 6 8h14q9 0 12 -8l121 -1235q6 -52 15 -162h2l73 160l557 1196q5 8 15 8h14q10 0 10 -8l131 -1200q1 -16 8.5 -77t8.5 -79h2q28 61 65 154l568 1243q3 8 12 8h14q9 0 6 -8l-651 -1436q-3 -10 -16 -10h-12q-13 0 -13 10l-129 1184q0 6 -6 70q-9 66 -12 98 h-2l-78 -168l-551 -1184q-3 -10 -16 -10h-13q-12 0 -12 10z" />
<glyph unicode="X" horiz-adv-x="1216" d="M-59 0q-8 0 0 14l682 725l-416 707q-3 8 6 8h16q10 0 15 -8l401 -682l641 682q5 8 14 8h23q9 0 6 -8l-667 -711l425 -721q8 -14 -4 -14h-16q-9 0 -12 8l-416 703l-659 -703q-8 -8 -17 -8h-22z" />
<glyph unicode="Y" horiz-adv-x="1241" d="M182 1446q-3 8 6 8h17q9 0 14 -8l408 -807l694 807q5 8 14 8h21q9 0 6 -8l-725 -840l-105 -598q-3 -8 -10 -8h-14q-9 0 -6 8l104 600z" />
<glyph unicode="Z" horiz-adv-x="1091" d="M-51 8l2 10q0 13 8 21l1165 1386h-909q-8 0 -8 9l4 12q0 8 8 8h940q8 0 8 -8l-2 -8q-5 -14 -8 -17l-1167 -1390h948q9 0 6 -8l-2 -15q-3 -8 -10 -8h-977q-9 0 -6 8z" />
<glyph unicode="[" horiz-adv-x="483" d="M-8 -291l358 2036q3 8 10 8h304q9 0 6 -8l-2 -12q0 -9 -9 -9h-280l-352 -1994h280q9 0 6 -9l-2 -12q-3 -8 -10 -8h-303q-9 0 -6 8z" />
<glyph unicode="\" horiz-adv-x="761" d="M225 1446q-3 8 6 8h17q9 0 12 -8l301 -1561q3 -8 -8 -8h-16q-8 0 -11 8z" />
<glyph unicode="]" horiz-adv-x="481" d="M-143 -291l2 12q3 9 10 9h281l352 1994h-281q-8 0 -8 9l2 12q3 8 10 8h303q10 0 7 -8l-359 -2036q-3 -8 -10 -8h-303q-9 0 -6 8z" />
<glyph unicode="^" horiz-adv-x="1216" d="M221 1077l567 576q6 6 15 6h8q7 0 10 -6l375 -576q6 -12 -6 -12h-14q-11 0 -19 8l-352 549h-4l-541 -549q-5 -8 -18 -8h-19q-14 0 -2 12z" />
<glyph unicode="_" horiz-adv-x="1056" d="M-47 -20l2 12q3 8 10 8h909q10 0 7 -8l-2 -12q0 -9 -9 -9h-909q-8 0 -8 9z" />
<glyph unicode="`" horiz-adv-x="526" d="M240 1456q-8 6 0 14l2 3q8 8 18 2l320 -236q6 -6 0 -12l-2 -2q-8 -9 -15 -2z" />
<glyph unicode="a" horiz-adv-x="1077" d="M113 389l55 307q32 196 148 286.5t333 90.5q186 0 309 -57q48 -20 60 -42q8 -13 7 -36q0 -15 -3 -35l-148 -840q-3 -10 -20 -18q-195 -74 -434 -74q-188 -1 -266 111q-53 76 -52 192q0 53 11 115zM141 389q-11 -59 -10 -109q-1 -108 47 -178q70 -104 246 -104 q242 0 422 74l147 831q6 40 -2 53.5t-47 32.5q-125 58 -299 58q-202 0 -309 -83t-139 -268z" />
<glyph unicode="b" horiz-adv-x="1087" d="M72 141l241 1366q0 9 11 9h12q6 0 6 -9l-94 -528q210 94 426 94q324 0 324 -280q0 -52 -11 -113l-55 -307q-68 -402 -488 -402q-184 0 -309 58q-47 20 -59 41q-7 13 -7 36q0 15 3 35zM100 141q-6 -40 2.5 -53.5t47.5 -32.5q123 -57 299 -57q389 0 454 379l55 307 q10 56 10 103q0 260 -298 260q-214 0 -426 -99z" />
<glyph unicode="c" horiz-adv-x="1044" d="M104 365l58 325q32 184 157.5 283.5t331.5 99.5q177 0 262.5 -71t104.5 -216q3 -12 -6 -12l-11 -2q-10 -3 -10 4q-19 140 -98 204t-246 64q-190 0 -308 -94.5t-149 -263.5l-57 -326q-8 -44 -8 -82q1 -110 65 -182q86 -96 273 -96q167 0 273.5 68.5t174.5 216.5q3 9 11 6 l14 -4q4 -4 2 -11q-69 -156 -185 -230.5t-292 -74.5q-201 1 -295 105q-70 78 -70 200q0 42 8 89z" />
<glyph unicode="d" horiz-adv-x="1085" d="M143 377l56 307q70 389 448 389q223 0 393 -92l95 526q0 9 10 9h12q6 0 6 -9l-241 -1366q-7 -49 -26.5 -70.5t-74.5 -41.5q-149 -58 -329 -58q-359 0 -359 297q0 50 10 109zM172 377q-9 -54 -9 -101q0 -278 333 -278q179 0 319 57q46 19 58.5 32.5t19.5 53.5l143 809 q-168 97 -393 97q-351 0 -416 -363z" />
<glyph unicode="e" horiz-adv-x="1052" d="M100 362l54 293q35 198 167 308t334 110q210 -1 306 -91q66 -63 66 -159q0 -43 -13 -94q-32 -133 -151.5 -202.5t-307.5 -69.5q-222 0 -401 43l-25 -138q-9 -48 -9 -90q0 -111 60 -179q82 -95 271 -95q151 0 254 54.5t184 166.5q2 7 12 4l10 -6q3 -3 0 -10 q-166 -236 -465 -236q-202 1 -290 103q-64 75 -65 193q0 44 9 95zM158 528q170 -45 403 -45q359 0 424 252q13 48 13 88q0 87 -61 143q-89 80 -286 81q-189 0 -314 -105t-157 -291z" />
<glyph unicode="f" horiz-adv-x="675" d="M76 1026l2 10q3 8 10 8h248l14 86q40 224 135 304q94 79 310 82h12q9 0 6 -9l-2 -10q-3 -8 -10 -8q-210 0 -297 -72q-87 -69 -125 -287l-14 -86h364q9 0 6 -8l-2 -10q0 -8 -8 -8h-365l-178 -1010q-3 -8 -10 -8h-12q-9 0 -6 8l178 1010h-248q-8 0 -8 8z" />
<glyph unicode="g" horiz-adv-x="1087" d="M-16 -287q-3 10 6 13l10 4q7 4 10 -4q33 -117 108.5 -173.5t213.5 -56.5q382 0 456 412l27 153q-197 -90 -424 -90q-191 0 -269 102q-54 72 -54 186q0 49 10 106l55 309q67 399 488 399q186 0 309 -57q47 -20 59 -42q7 -12 7 -36q0 -15 -3 -35l-176 -995 q-77 -440 -491 -440q-272 0 -342 245zM106 365q-10 -57 -10 -105q0 -262 299 -262q229 0 426 96l144 809q6 40 -2.5 53.5t-47.5 32.5q-125 58 -299 58q-197 0 -308 -91.5t-146 -281.5z" />
<glyph unicode="h" horiz-adv-x="1116" d="M49 8l264 1499q0 9 11 9h12q6 0 6 -9l-92 -522q204 88 420 88q327 0 327 -282q0 -49 -10 -107l-119 -676q-3 -8 -10 -8h-12q-9 0 -6 8l118 674q10 56 10 103q0 262 -302 262q-213 0 -422 -93l-166 -946q-3 -8 -10 -8h-13q-9 0 -6 8z" />
<glyph unicode="i" horiz-adv-x="335" d="M49 8l180 1028q3 8 11 8h12q9 0 6 -8l-180 -1028q-3 -8 -10 -8h-13q-9 0 -6 8zM274 1366v8q6 25 29 25h8q27 0 21 -25v-8q-6 -25 -29 -25h-8q-24 0 -21 25z" />
<glyph unicode="j" horiz-adv-x="335" d="M-395 -463l2 12q3 9 10 9q194 0 290 99t134 320l186 1059q3 8 11 8h12q9 0 6 -8l-186 -1056q-21 -118 -55 -200t-88 -139.5t-132 -84.5t-184 -27q-6 0 -6 8zM272 1366v8q6 25 29 25h8q27 0 21 -25v-8q-6 -25 -29 -25h-8q-24 0 -21 25z" />
<glyph unicode="k" horiz-adv-x="999" d="M49 8l264 1499q0 9 11 9h12q6 0 6 -9l-168 -954h311h23l469 483q8 8 20 8h11q14 0 4 -10l-469 -485q71 -7 112.5 -45.5t67.5 -114.5l123 -381q0 -8 -6 -8h-15q-10 0 -10 6l-121 371q-27 83 -72.5 116t-136.5 33h-317l-90 -518q-3 -8 -10 -8h-13q-9 0 -6 8z" />
<glyph unicode="l" horiz-adv-x="352" d="M57 8l265 1499q0 9 10 9h12q6 0 6 -9l-264 -1499q-3 -8 -10 -8h-13q-9 0 -6 8z" />
<glyph unicode="m" horiz-adv-x="1648" d="M43 8l156 889q7 44 27.5 69t68.5 48q136 59 287 59q192 0 260 -108q176 108 399 108q291 0 291 -262q0 -49 -10 -106l-123 -697q-3 -8 -10 -8h-13q-9 0 -6 8l123 694q10 60 10 109q-1 98 -41 153q-62 83 -225 83q-213 0 -383 -105q27 -51 27 -132q0 -47 -9 -105 l-122 -697q-3 -8 -11 -8h-12q-9 0 -6 8l123 694q10 57 10 104q0 100 -44 157q-66 84 -232 84q-152 0 -281 -60q-61 -28 -70 -90l-155 -889q-3 -8 -11 -8h-12q-9 0 -6 8z" />
<glyph unicode="n" horiz-adv-x="1110" d="M43 8l156 889q11 48 29 69.5t67 41.5q171 65 369 65q328 0 328 -279q0 -50 -11 -110l-119 -676q-3 -8 -10 -8h-12q-9 0 -6 8l118 674q10 55 10 103q0 262 -303 262q-194 0 -364 -66q-59 -24 -68 -84l-155 -889q-3 -8 -11 -8h-12q-9 0 -6 8z" />
<glyph unicode="o" d="M94 311l74 422q27 156 160 248t323 92q197 0 297 -91q80 -72 80 -187q0 -30 -6 -62l-74 -422q-26 -157 -157.5 -248.5t-325.5 -91.5q-193 1 -295 93q-81 74 -81 187q0 29 5 60zM123 309q-6 -30 -5 -58q0 -101 74 -167q95 -86 273 -86q180 0 304.5 85t150.5 226l73 426 q6 30 6 58q0 101 -75 169q-95 86 -275 85q-177 0 -301.5 -85.5t-150.5 -226.5z" />
<glyph unicode="p" horiz-adv-x="1085" d="M-37 -442l238 1345q7 49 26.5 71t73.5 42q146 57 330 57q358 0 358 -296q0 -50 -10 -109l-55 -310q-70 -387 -449 -387q-220 0 -391 109l-92 -522q-3 -9 -10 -9h-13q-9 0 -6 9zM90 113q171 -115 389 -115q351 0 416 360l55 310q9 54 9 101q0 278 -332 278 q-177 0 -320 -58q-47 -18 -59.5 -32.5t-18.5 -53.5z" />
<glyph unicode="q" horiz-adv-x="1089" d="M145 358l56 310q71 405 487 405q186 0 309 -57q47 -20 59 -42q8 -13 8 -36q0 -15 -3 -35l-238 -1345q-3 -9 -10 -9h-12q-9 0 -6 9l92 522q-210 -109 -428 -109q-325 0 -325 276q0 51 11 111zM174 358q-10 -55 -10 -102q0 -258 299 -258q223 0 430 115l139 790 q6 40 -2 53.5t-47 32.5q-125 58 -299 58q-390 0 -455 -379z" />
<glyph unicode="r" horiz-adv-x="675" d="M43 8l156 889q11 48 29 69.5t67 41.5q171 65 369 65h61q8 0 8 -8l-2 -10q-3 -8 -10 -8h-62q-194 0 -364 -66q-59 -24 -68 -84l-155 -889q-3 -8 -11 -8h-12q-9 0 -6 8z" />
<glyph unicode="s" horiz-adv-x="993" d="M14 233q0 10 6 13l13 4q8 3 8 -4q24 -131 111.5 -189.5t246.5 -58.5q365 0 412 256q5 29 5 54q0 100 -77 141q-83 42 -235 55q-210 22 -268 53q-99 47 -99 171q0 30 6 65q53 280 428 280q316 0 359 -225q3 -9 -4 -12l-8 -5q-10 -3 -13 5q-24 108 -101.5 159.5 t-234.5 51.5q-171 0 -272.5 -67t-124.5 -192q-7 -33 -7 -61q0 -97 79 -143q7 -6 82 -31q32 -6 53 -8q25 -4 110 -13q10 -2 23 -2q165 -14 252 -63q82 -45 82 -155q0 -29 -6 -62q-50 -279 -443 -279q-168 0 -261 62t-122 200z" />
<glyph unicode="t" horiz-adv-x="651" d="M68 1026l2 10q3 8 10 8h252l41 238q3 8 10 8h12q9 0 6 -8l-41 -238h363q9 0 6 -8l-2 -10q0 -8 -8 -8h-363l-116 -664q-14 -81 -14 -141q0 -99 38 -143q58 -70 271 -70q9 0 6 -8l-2 -12q0 -9 -9 -9q-219 0 -290 80q-44 48 -44 156q0 63 15 147l117 664h-252q-8 0 -8 8z " />
<glyph unicode="u" horiz-adv-x="1112" d="M170 360l119 676q3 8 10 8h12q9 0 6 -8l-118 -674q-10 -56 -10 -103q0 -261 300 -261q199 0 367 65q59 24 68 84l155 889q3 8 11 8h12q9 0 6 -8l-156 -889q-11 -48 -29 -69t-67 -41q-173 -66 -369 -66q-328 0 -328 279q0 50 11 110z" />
<glyph unicode="v" horiz-adv-x="997" d="M111 1034q-3 10 8 10h12q5 0 8 -10l223 -874q29 -112 33 -133h2l80 131l531 878q5 8 16 8h12q9 0 4 -8l-628 -1036q-10 -10 -17 -10h-8q-9 0 -12 10z" />
<glyph unicode="w" horiz-adv-x="1482" d="M125 1034q0 10 8 10h12q9 0 9 -10l118 -827l25 -170h2l88 174l406 784q3 9 12 9h10q7 0 10 -9l123 -774q15 -85 29 -184h2l90 180l408 819q3 8 14 8h12q11 0 4 -10l-516 -1036q-7 -10 -12 -10h-14q-11 0 -11 10l-129 825q-14 106 -20 135h-2q-19 -45 -70 -135l-424 -825 q-7 -10 -12 -10h-14q-6 0 -9 10z" />
<glyph unicode="x" horiz-adv-x="942" d="M-68 6l514 533l-313 499q0 6 8 6h15q7 0 10 -6l301 -481l465 481q9 6 14 6h21q11 0 2 -6l-490 -503l330 -529q0 -6 -6 -6h-19q-5 0 -8 6l-315 510l-492 -510q-9 -6 -14 -6h-21q-8 0 -2 6z" />
<glyph unicode="y" horiz-adv-x="1118" d="M0 -287q-3 10 6 13l10 4q11 4 11 -4q37 -116 112.5 -173t212.5 -57q387 0 461 412l27 147q-235 -84 -420 -84q-329 0 -329 279q0 51 11 110l119 676q3 8 10 8h13q9 0 6 -8l-119 -674q-10 -58 -10 -106q0 -108 48 -169q69 -89 255 -89q194 0 420 86l168 952q3 8 10 8h12 q9 0 6 -8l-198 -1128q-77 -440 -496 -440q-276 0 -346 245z" />
<glyph unicode="z" horiz-adv-x="878" d="M-49 8l2 10q0 7 8 15l895 985h-713q-6 0 -6 8l2 10q3 8 8 8h740q9 0 6 -8l-2 -10q0 -5 -8 -16l-893 -983h727q6 0 6 -9l-2 -10q-3 -8 -8 -8h-756q-9 0 -6 8z" />
<glyph unicode="{" horiz-adv-x="583" d="M18 721l2 12q3 8 11 8h24q111 0 168 53.5t78 170.5l94 536q25 132 91 192t192 60h86q9 0 6 -8l-2 -12q0 -9 -8 -9h-86q-111 0 -169.5 -53t-78.5 -170l-94 -536q-35 -197 -172 -240q122 -44 88 -236l-94 -538q-21 -117 18 -170t150 -53h86q6 0 6 -9l-2 -12q-3 -8 -11 -8 h-86q-127 0 -171.5 60t-20.5 192l94 538q23 122 -15 173t-153 51h-24q-7 0 -7 8z" />
<glyph unicode="|" horiz-adv-x="323" d="M-8 -293l358 2038q3 8 10 8h11q9 0 6 -8l-359 -2038q-3 -8 -10 -8h-10q-9 0 -6 8z" />
<glyph unicode="}" horiz-adv-x="583" d="M-145 -293l2 12q0 9 10 9h86q111 0 168 53t78 170l94 538q35 197 172 240q-122 44 -88 236l94 536q21 117 -17 170t-149 53h-86q-8 0 -8 9l2 12q3 8 10 8h86q128 0 172.5 -60t20.5 -192l-94 -536q-21 -117 17.5 -170.5t149.5 -53.5h25q9 0 6 -8l-2 -12q0 -8 -10 -8h-25 q-111 0 -167.5 -53.5t-77.5 -170.5l-95 -538q-25 -132 -90.5 -192t-191.5 -60h-86q-9 0 -6 8z" />
<glyph unicode="~" horiz-adv-x="1153" d="M143 604q-3 7 2 12q133 103 250 103q84 0 197 -49q110 -49 186 -49q115 0 234 94q6 6 12 0l6 -8q7 -7 -2 -13q-132 -102 -252 -102q-83 0 -196 49t-189 49q-110 0 -229 -94q-6 -6 -12 0z" />
<glyph unicode="&#xa1;" horiz-adv-x="319" d="M-51 -471l223 1233q3 8 10 8h6q10 0 7 -8l-211 -1233q0 -8 -11 -8h-18q-6 0 -6 8zM197 1010v8q6 26 32 26h9q17 0 19.5 -4t0.5 -22v-8q-6 -27 -33 -27h-8q-26 0 -20 27z" />
<glyph unicode="&#xa2;" horiz-adv-x="1083" d="M111 369l57 325q31 178 152.5 276.5t318.5 102.5l31 168q0 8 10 8h14q6 0 6 -8l-30 -168q174 -1 257 -71.5t97 -213.5q0 -9 -6 -12l-12 -4q-8 -3 -11 4q-17 144 -95 206t-249 62q-190 0 -307.5 -94.5t-148.5 -263.5l-58 -326q-30 -169 56.5 -264.5t273.5 -95.5 q167 0 273.5 68.5t174.5 216.5q3 9 11 6l14 -4q4 -4 2 -11q-135 -299 -465 -305l-24 -135q-3 -8 -11 -8h-14q-9 0 -6 8l24 135q-191 4 -278.5 110.5t-56.5 287.5z" />
<glyph unicode="&#xa3;" horiz-adv-x="1275" d="M-16 8l2 12q0 9 10 9h55q89 0 148 71q53 68 69 154l76 426h-205q-8 0 -8 8l2 12q3 9 10 9h205l76 424q27 164 144.5 257t320.5 93q165 0 253.5 -74t117.5 -248q0 -7 -9 -10l-8 -4q-9 -3 -12 6q-29 167 -109 234t-239 67q-187 0 -294.5 -85t-133.5 -236l-76 -424h614 q9 0 6 -9l-2 -12q0 -8 -8 -8h-614l-76 -426q-28 -153 -141 -223v-2h207h694q6 0 6 -9l-2 -12q-3 -8 -10 -8h-1063q-9 0 -6 8z" />
<glyph unicode="&#xa4;" horiz-adv-x="1200" d="M82 233q-7 4 2 13l145 123q-105 132 -75 319q35 184 180 320l-98 118q-4 4 2 13l10 8q6 6 12 0l98 -119q155 125 338 125q177 0 297 -123l144 121q6 6 12 0l6 -8q7 -7 -2 -13l-143 -120q108 -137 73 -322q-30 -177 -176 -317l99 -119q3 -7 -2 -12l-11 -9q-6 -6 -12 0 l-98 119q-160 -127 -342 -127q-184 0 -297 125l-144 -123q-6 -6 -12 0zM186 690q-30 -182 74 -307q102 -129 283 -129q179 0 329 129q149 128 179 307q34 177 -70 305q-104 125 -287 125q-184 0 -327 -125q-147 -126 -181 -305z" />
<glyph unicode="&#xa5;" horiz-adv-x="1277" d="M186 360l2 11q0 8 11 8h374l45 262h-374q-9 0 -6 8l2 10q0 9 10 9h358l-399 778q-3 8 6 8h16q10 0 15 -8l393 -768l668 768q5 8 14 8h20q10 0 7 -8l-678 -778h356q6 0 6 -9l-2 -10q-3 -8 -10 -8h-371l-45 -262h371q6 0 6 -8l-2 -11q0 -8 -10 -8h-371l-59 -344 q-3 -8 -11 -8h-14q-9 0 -6 8l59 344h-374q-7 0 -7 8z" />
<glyph unicode="&#xa6;" horiz-adv-x="348" d="M4 -291l152 854q0 8 8 8h10q8 0 8 -8l-151 -854q-3 -8 -11 -8h-10q-9 0 -6 8zM213 891l149 854q3 8 11 8h10q9 0 6 -8l-149 -854q-3 -8 -11 -8h-10q-9 0 -6 8z" />
<glyph unicode="&#xa7;" horiz-adv-x="1193" d="M-12 -98q-2 7 6 10l14 4q8 3 8 -6q29 -174 129.5 -258t282.5 -84q217 0 344 82.5t152 226.5q21 113 -20 176.5t-132 93.5q-90 27 -252 43h-6q-157 15 -254 54q-56 19 -94 57q-80 80 -55 225q41 241 315 330q-242 64 -199 313q59 330 510 330q370 0 428 -346q3 -6 -8 -10 l-10 -4q-9 -3 -12 6q-58 325 -402 325q-210 0 -329 -81t-146 -228q-12 -120 23 -180t129 -90q64 -21 112 -27q27 -5 133 -16q101 -11 168.5 -28.5t128.5 -51.5q132 -79 99 -254q-40 -224 -293 -332q242 -64 196 -313q-27 -157 -161 -244.5t-367 -87.5q-380 0 -438 365z M139 520q-34 -195 146 -256q92 -31 239 -45q131 -12 187 -24q55 19 155 86q57 38 99 101t55 136q27 170 -96 234q-106 53 -277 67q-71 7 -172 23q-70 -16 -168 -74q-64 -37 -109.5 -101.5t-58.5 -146.5z" />
<glyph unicode="&#xa8;" horiz-adv-x="899" d="M367 1323l2 12q3 23 26 23h13q13 0 16.5 -4.5t1.5 -18.5l-2 -12q-3 -23 -27 -23h-12q-21 0 -18 23zM750 1323l2 12q3 23 28 23h11q23 0 20 -23l-2 -12q-3 -23 -29 -23h-10q-16 0 -19 4t-1 19z" />
<glyph unicode="&#xa9;" horiz-adv-x="1671" d="M176 719q55 312 305 524q248 211 559 211q309 0 484 -211q174 -209 118 -524q-56 -312 -303 -522q-251 -213 -557 -213q-308 0 -485 213q-176 212 -121 522zM205 719q-53 -302 114 -502q169 -205 467 -205t537 205q239 204 291 502q52 300 -115 504q-166 202 -463 202 q-301 0 -540 -202q-238 -201 -291 -504zM553 588l45 254q25 141 121.5 217t255.5 76q135 0 201.5 -55t78.5 -165q0 -6 -4 -10l-14 -4q-10 -3 -10 2q-12 111 -70 157t-190 46q-291 0 -340 -270l-45 -254q-24 -130 38 -200.5t207 -70.5q128 0 206.5 51t129.5 164q4 8 15 4 l10 -2q7 -4 4 -10q-101 -235 -369 -235q-154 0 -224.5 81.5t-45.5 223.5z" />
<glyph unicode="&#xaa;" horiz-adv-x="765" d="M180 897q34 184 291 184q132 0 227 -14l9 51q21 116 -19.5 170.5t-159.5 54.5q-148 0 -241 -112q-9 -9 -13 -4l-10 6q-7 3 0 14q107 125 268 125q132 0 178.5 -64.5t22.5 -195.5l-41 -244q-7 -46 -26 -68.5t-64 -41.5q-73 -31 -196 -31q-133 0 -186.5 42t-39.5 128z M209 893q-11 -69 37 -103t164 -34q107 0 186 28q33 12 47.5 29.5t20.5 54.5l28 172q-94 15 -225 15q-125 0 -184.5 -40.5t-73.5 -121.5z" />
<glyph unicode="&#xab;" horiz-adv-x="1101" d="M82 532q-8 8 2 11l510 436q9 6 12 0l6 -14q3 -10 -4 -15l-491 -418l344 -417q9 -9 -2 -13l-6 -2q-12 -3 -15 0zM532 532q-8 8 3 11l509 436q10 7 13 0l6 -14q3 -10 -4 -15l-492 -418l344 -417q9 -9 -2 -13l-6 -2q-11 -3 -14 0z" />
<glyph unicode="&#xac;" horiz-adv-x="1169" d="M176 727l2 12q0 9 8 9h858q9 0 9 -9l-80 -444q0 -8 -8 -8h-15q-8 0 -8 8l76 424h-836q-9 0 -6 8z" />
<glyph unicode="&#xad;" horiz-adv-x="884" d="M123 539l2 12q3 8 10 8h594q9 0 6 -8l-2 -12q0 -9 -8 -9h-594q-8 0 -8 9z" />
<glyph unicode="&#xae;" horiz-adv-x="1013" d="M211 1057q27 167 160 282q130 115 307 115q161 0 260 -117q95 -117 68 -280q-26 -166 -156 -283q-127 -115 -305 -115q-163 0 -262 117t-72 281zM240 1057q-27 -154 61 -262q89 -111 246 -111q166 0 287 109q120 108 147 264q27 154 -61 262q-89 108 -242 108 q-171 0 -289 -106q-122 -110 -149 -264zM412 848l71 407q3 17 21 17h176q66 0 97.5 -36t21.5 -99q-18 -112 -127 -127l61 -158q7 -10 -6 -10h-8q-11 0 -14 6l-60 158h-176l-29 -158q0 -6 -8 -6h-14q-6 0 -6 6zM473 1032h164q117 0 135 107q8 51 -17.5 78.5t-80.5 27.5h-164z " />
<glyph unicode="&#xaf;" horiz-adv-x="720" d="M244 1321l2 10q0 8 8 8h491q9 0 9 -8l-2 -10q-3 -8 -11 -8h-491q-9 0 -6 8z" />
<glyph unicode="&#xb0;" horiz-adv-x="765" d="M211 1145q21 118 117 196t213 78q114 0 186 -84q70 -85 49 -205q-21 -112 -117 -196q-98 -82 -213 -82q-118 0 -188 88q-68 83 -47 205zM240 1137q-18 -108 43 -181q58 -73 166 -73q103 0 190 75q88 76 106 179q19 106 -41.5 179t-164.5 73q-106 0 -193 -72 q-88 -73 -106 -180z" />
<glyph unicode="&#xb1;" horiz-adv-x="1394" d="M164 305l2 12q3 9 10 9h950q10 0 7 -9l-3 -12q0 -8 -8 -8h-950q-8 0 -8 8zM252 805l2 12q3 8 10 8h463l55 316q3 8 11 8h12q9 0 6 -8l-55 -316h458q10 0 7 -8l-2 -12q0 -8 -9 -8h-458l-56 -310q-3 -8 -10 -8h-12q-9 0 -6 8l55 310h-463q-8 0 -8 8z" />
<glyph unicode="&#xb2;" horiz-adv-x="696" d="M125 860l18 98q30 172 193 230l139 49l9 3q9 3 22 7.5t29 9.5q38 12 61 23q8 2 49 25q47 23 65.5 50.5t37.5 88.5q18 94 -34 149.5t-165 55.5q-62 0 -115.5 -22t-87 -55.5t-53.5 -63t-29 -54.5l-8 -22q-3 -9 -10 -9l-13 2q-11 0 -4 11q4 25 41 84q19 32 60 73 q37 34 96.5 58t124.5 24q125 0 183.5 -64.5t39.5 -170.5q-8 -50 -59 -121q-15 -18 -56 -39q-44 -23 -53 -25q-17 -8 -67 -22q-58 -19 -60 -21l-139 -49q-143 -52 -170 -205l-16 -86h505q11 0 11 -8l-2 -10q-3 -8 -13 -8h-518q-15 0 -12 14z" />
<glyph unicode="&#xb3;" horiz-adv-x="724" d="M156 1061q-3 9 6 12l14 4q4 1 6 -0.5t2 -7.5q12 -116 66.5 -164.5t175.5 -48.5q114 0 185 54t89 147q14 81 -23.5 135.5t-111.5 54.5h-172q-8 0 -8 8l2 11q3 8 10 8h170q72 0 119.5 48.5t61.5 125.5q17 91 -32 146t-149 55q-112 0 -188 -52t-127 -165q-3 -12 -12 -9 l-13 4q-5 3 -2 13q55 124 136.5 179.5t209.5 55.5q114 0 167.5 -63t35.5 -168q-21 -137 -141 -184q120 -56 96 -203q-19 -106 -98 -167t-207 -61q-129 0 -192.5 56.5t-75.5 175.5z" />
<glyph unicode="&#xb4;" horiz-adv-x="526" d="M203 1229q-6 6 4 12l405 234q10 7 19 -2l4 -7q8 -8 -4 -14l-408 -233q-9 -3 -14 2z" />
<glyph unicode="&#xb5;" d="M-45 -442l260 1478q3 8 10 8h13q9 0 6 -8l-119 -676q-64 -364 293 -364q197 0 362 65q37 16 51 34.5t19 49.5l156 891q3 8 10 8h12q9 0 6 -8l-155 -891q-7 -43 -28 -66t-69 -44q-180 -66 -364 -66q-283 0 -324 221l-110 -632q-3 -9 -11 -9h-14q-7 0 -4 9z" />
<glyph unicode="&#xb6;" horiz-adv-x="571" d="M100 -174l246 1391q-53 0 -79.5 32t-18.5 84q7 55 47 88t96 33h150q8 0 8 -8l-287 -1620q0 -8 -10 -8h-14q-7 0 -7 8l281 1595h-102l-281 -1595q0 -8 -10 -8h-13q-6 0 -6 8z" />
<glyph unicode="&#xb7;" horiz-adv-x="346" d="M130.5 506.5q-3.5 4.5 0.5 21.5l2 9q6 26 33 26h8q27 0 21 -26l-2 -9q-6 -26 -33 -26h-8q-18 0 -21.5 4.5z" />
<glyph unicode="&#xb8;" horiz-adv-x="514" d="M-94 -430l2 12q4 11 8 4q63 -63 174 -63q86 0 143 42.5t70 117.5q7 57 -28.5 86.5t-110.5 29.5q-58 0 -90 -14q-12 -4 -15.5 1t2.5 17l105 197h27l-99 -186q42 10 82 10q85 0 125 -36.5t29 -104.5q-13 -87 -79 -137t-165 -50q-109 0 -172 51q-10 11 -8 23z" />
<glyph unicode="&#xb9;" horiz-adv-x="524" d="M190 1460q-3 6 5 10l360 185q12 4 14 4h6q10 0 7 -8l-140 -797q-3 -8 -10 -8h-10q-9 0 -6 8l135 768l-348 -174q-8 -3 -10 2z" />
<glyph unicode="&#xba;" horiz-adv-x="776" d="M203 977l30 164q19 111 98 171t208 60t187.5 -66t37.5 -180l-31 -163q-41 -234 -307 -234q-129 0 -187.5 66t-35.5 182zM229 969q-17 -100 34.5 -155.5t166.5 -55.5q116 0 188 55.5t89 155.5l30 164q17 101 -34.5 155.5t-167.5 54.5q-115 0 -186.5 -55.5t-88.5 -154.5z " />
<glyph unicode="&#xbb;" horiz-adv-x="1105" d="M25 113q-3 7 2 12l491 418l-344 418q-5 8 4 14l8 4q10 7 13 0l358 -436q3 -6 -2 -11l-508 -432q-11 -10 -14 0zM475 113q-3 7 2 12l492 418l-344 418q-5 8 4 14l8 4q9 6 12 0l359 -436q3 -6 -2 -11l-508 -432q-11 -11 -15 0z" />
<glyph unicode="&#xbc;" horiz-adv-x="1652" d="M184 1274q-3 6 4 10l361 184q2 1 5 2t5 2t4 1h6q9 0 6 -9l-139 -796q-3 -9 -10 -9h-10q-9 0 -6 9l135 768l-348 -174q-9 -3 -11 2zM328 10l1054 1434q10 10 17 10h14q16 0 6 -10l-1054 -1434q-10 -10 -21 -10h-12q-14 0 -4 10zM911 260l2 6q3 12 7 17l520 522q8 8 20 8 h13q11 0 8 -10l-92 -524h129q9 0 6 -9v-8q-3 -10 -11 -10h-129l-43 -244q-3 -8 -10 -8h-12q-9 0 -6 8l43 244h-436q-9 0 -9 8zM952 279h408l88 497z" />
<glyph unicode="&#xbd;" horiz-adv-x="1812" d="M184 1274q-3 6 4 10l361 184q2 1 5 2t5 2t4 1h6q9 0 6 -9l-139 -796q-3 -9 -10 -9h-10q-9 0 -6 9l135 768l-348 -174q-9 -3 -11 2zM336 10l1055 1434q10 10 16 10h14q16 0 6 -10l-1054 -1434q-10 -10 -21 -10h-12q-14 0 -4 10zM1071 14l19 99q30 171 192 229l139 49 q2 1 9.5 3.5t21.5 7.5t29 10q43 13 61 22q8 2 49 25q46 23 65 50.5t38 88.5q18 94 -34 149.5t-165 55.5q-62 0 -115.5 -22t-87 -55.5t-53.5 -63t-29 -54.5l-8 -22q-3 -8 -10 -8l-12 2q-11 0 -4 10q4 25 41 84q22 37 59 74q37 34 96.5 57.5t124.5 23.5q125 0 183.5 -64.5 t39.5 -170.5q-8 -50 -59 -121q-15 -18 -55 -39q-39 -20 -54 -24q-21 -11 -67 -23q-59 -19 -60 -20l-139 -50q-143 -52 -170 -204l-16 -86h506q10 0 10 -9l-2 -10q-3 -8 -12 -8h-519q-15 0 -12 14z" />
<glyph unicode="&#xbe;" horiz-adv-x="1773" d="M141 874q-3 10 6 13l15 4q4 1 6 -0.5t2 -7.5q12 -116 66.5 -164.5t175.5 -48.5q115 0 185.5 53.5t88.5 146.5q14 81 -23.5 136t-111.5 55h-172q-8 0 -8 8l2 10q3 8 10 8h170q72 0 119 49t61 126q17 91 -31.5 145.5t-148.5 54.5q-112 0 -188 -52t-127 -165q-3 -11 -13 -8 l-12 4q-5 3 -2 12q56 125 137.5 180.5t208.5 55.5q114 0 167.5 -63.5t35.5 -168.5q-21 -137 -142 -184q121 -56 97 -203q-19 -106 -98 -166.5t-207 -60.5q-129 0 -193 56t-76 175zM457 10l1054 1434q10 10 17 10h14q16 0 6 -10l-1054 -1434q-10 -10 -21 -10h-12q-14 0 -4 10 zM1034 260l2 6q3 14 6 17l521 522q8 8 20 8h12q12 0 9 -10l-93 -524h129q10 0 7 -9v-8q-3 -10 -11 -10h-129l-43 -244q-3 -8 -10 -8h-12q-9 0 -6 8l43 244h-437q-8 0 -8 8zM1075 279h408l88 497z" />
<glyph unicode="&#xbf;" horiz-adv-x="1112" d="M-12 -57q35 191 145 301q54 54 97.5 87t117.5 77q25 16 59 37.5t44 27.5q16 10 84 70q93 89 120 235q3 8 9 8h12q8 0 8 -8q-27 -157 -125 -250q-51 -48 -90 -73q-2 -1 -109 -72q-77 -46 -113.5 -73.5t-92.5 -82.5q-110 -107 -136 -284q-30 -168 68 -281q94 -111 301 -111 q357 0 533 318q6 9 12 6l12 -4q6 -3 4 -10q-188 -338 -559 -338q-219 0 -326 119q-109 121 -75 301zM680 1012v8q6 27 33 27h8q16 0 19 -4.5t1 -22.5v-8q-6 -27 -32 -27h-9q-26 0 -20 27z" />
<glyph unicode="&#xc0;" horiz-adv-x="1269" d="M-74 8l844 1448q7 10 16 10h13q12 0 12 -10l336 -1448q0 -8 -10 -8h-9q-12 0 -12 8l-123 527h-725l-307 -527q-5 -8 -16 -8h-13q-14 0 -6 8zM285 563h704l-196 842l-3 10q-2 10 -2 15h-2q-5 -15 -10 -25zM649 1784q-11 4 0 14l4 4q11 12 21 2l330 -223q6 -6 0 -12l-5 -4 q-5 -5 -14 -2z" />
<glyph unicode="&#xc1;" horiz-adv-x="1269" d="M-74 8l844 1448q7 10 16 10h13q12 0 12 -10l336 -1448q0 -8 -10 -8h-9q-12 0 -12 8l-123 527h-725l-307 -527q-5 -8 -16 -8h-13q-14 0 -6 8zM285 563h704l-196 842l-3 10q-2 10 -2 15h-2q-5 -15 -10 -25zM618 1579q-3 7 5 12l405 234q10 7 19 -2l4 -6q9 -9 -4 -15 l-408 -233q-9 -3 -14 2z" />
<glyph unicode="&#xc2;" horiz-adv-x="1269" d="M-74 8l844 1448q7 10 16 10h13q12 0 12 -10l336 -1448q0 -8 -10 -8h-9q-12 0 -12 8l-123 527h-725l-307 -527q-5 -8 -16 -8h-13q-14 0 -6 8zM285 563h704l-196 842l-3 10q-2 10 -2 15h-2q-5 -15 -10 -25zM489 1577l342 242q13 10 21 10h6q10 0 23 -10l254 -242 q3 -8 -9 -8h-12q-10 0 -16 6l-242 225l-321 -225q-9 -6 -19 -6h-22q-16 0 -5 8z" />
<glyph unicode="&#xc3;" horiz-adv-x="1269" d="M-74 8l844 1448q7 10 16 10h13q12 0 12 -10l336 -1448q0 -8 -10 -8h-9q-12 0 -12 8l-123 527h-725l-307 -527q-5 -8 -16 -8h-13q-14 0 -6 8zM285 563h704l-196 842l-3 10q-2 10 -2 15h-2q-5 -15 -10 -25zM500 1597q14 81 62 130t116 49q36 2 70.5 -14.5t63 -41t56.5 -49 t59.5 -41t61.5 -14.5q56 0 94 41t50 110q3 9 10 9h12q9 0 6 -9q-14 -83 -59.5 -130.5t-116.5 -47.5q-43 -2 -87 23.5t-74.5 56.5t-71 56.5t-78.5 23.5q-55 0 -95 -42t-51 -110q-3 -8 -10 -8h-12q-9 0 -6 8z" />
<glyph unicode="&#xc4;" horiz-adv-x="1269" d="M-74 8l844 1448q7 10 16 10h13q12 0 12 -10l336 -1448q0 -8 -10 -8h-9q-12 0 -12 8l-123 527h-725l-307 -527q-5 -8 -16 -8h-13q-14 0 -6 8zM285 563h704l-196 842l-3 10q-2 10 -2 15h-2q-5 -15 -10 -25zM610 1683l2 13q3 22 27 22h12q13 0 17 -4t2 -18l-2 -13 q-3 -22 -27 -22h-12q-22 0 -19 22zM993 1683l2 13q3 22 29 22h10q24 0 21 -22l-2 -13q-3 -22 -29 -22h-10q-16 0 -19.5 4t-1.5 18z" />
<glyph unicode="&#xc5;" horiz-adv-x="1269" d="M-74 8l838 1436q-78 7 -114.5 57.5t-22.5 130.5q13 85 73 132.5t152 47.5q88 0 129.5 -51t24.5 -137q-13 -79 -64 -125.5t-129 -52.5l334 -1438q0 -8 -10 -8h-9q-12 0 -12 8l-123 527h-725l-307 -527q-5 -8 -16 -8h-13q-14 0 -6 8zM285 563h704l-196 842l-3 10 q-2 10 -2 15h-2q-5 -15 -10 -25zM651 1628q-12 -74 25 -117t115 -43q75 0 126.5 43.5t63.5 116.5q14 74 -22 117t-111 43q-170 0 -197 -160z" />
<glyph unicode="&#xc6;" horiz-adv-x="1638" d="M-100 8l1116 1436q10 10 16 10h643q8 0 8 -8l-4 -12q0 -9 -8 -9h-612l-119 -675h526q7 0 7 -9l-3 -12q-3 -8 -10 -8h-526l-121 -692h643q6 0 6 -9l-2 -12q-3 -8 -10 -8h-666q-9 0 -6 8l72 406h-600l-316 -406q-8 -8 -16 -8h-12q-14 0 -6 8zM272 442h582l174 969z" />
<glyph unicode="&#xc7;" horiz-adv-x="1292" d="M147 467l93 522q42 236 201 365t419 129q231 0 340.5 -87.5t128.5 -275.5q3 -8 -8 -12l-8 -2q-10 -3 -10 4q-20 182 -122 263t-321 81q-248 0 -400.5 -122t-189.5 -341l-90 -520q-39 -223 70.5 -345t353.5 -122q224 0 355 83t217 269q3 9 12 6l10 -4q7 -2 4 -12 q-86 -189 -213 -278q-133 -94 -362 -97l-86 -161q42 10 82 10q84 0 124 -37t29 -105q-13 -87 -79 -136.5t-165 -49.5q-109 0 -172 51q-10 11 -8 23l2 12q4 11 8 4q63 -63 175 -63q86 0 143 42t70 117q7 57 -29 87t-111 30q-58 0 -90 -14q-12 -4 -15 1t3 17l92 172 q-256 1 -375 132.5t-78 363.5z" />
<glyph unicode="&#xc8;" horiz-adv-x="1157" d="M74 8l254 1438q0 8 8 8h846q8 0 8 -8l-4 -12q0 -9 -8 -9h-824l-118 -673h737q9 0 6 -9l-2 -12q-3 -8 -10 -8h-738l-120 -694h854q6 0 6 -9l-2 -12q-3 -8 -11 -8h-876q-9 0 -6 8zM618 1784q-10 4 0 14l5 4q11 11 20 2l330 -223q6 -6 0 -12l-4 -4q-5 -5 -15 -2z" />
<glyph unicode="&#xc9;" horiz-adv-x="1157" d="M74 8l254 1438q0 8 8 8h846q8 0 8 -8l-4 -12q0 -9 -8 -9h-824l-118 -673h737q9 0 6 -9l-2 -12q-3 -8 -10 -8h-738l-120 -694h854q6 0 6 -9l-2 -12q-3 -8 -11 -8h-876q-9 0 -6 8zM588 1579q-4 7 4 12l405 234q10 7 19 -2l4 -6q9 -9 -4 -15l-408 -233q-9 -3 -14 2z" />
<glyph unicode="&#xca;" horiz-adv-x="1157" d="M74 8l254 1438q0 8 8 8h846q8 0 8 -8l-4 -12q0 -9 -8 -9h-824l-118 -673h737q9 0 6 -9l-2 -12q-3 -8 -10 -8h-738l-120 -694h854q6 0 6 -9l-2 -12q-3 -8 -11 -8h-876q-9 0 -6 8zM459 1577l342 242q13 10 20 10h6q10 0 23 -10l254 -242q3 -8 -8 -8h-13q-10 0 -16 6 l-242 225l-321 -225q-9 -6 -19 -6h-22q-15 0 -4 8z" />
<glyph unicode="&#xcb;" horiz-adv-x="1157" d="M74 8l254 1438q0 8 8 8h846q8 0 8 -8l-4 -12q0 -9 -8 -9h-824l-118 -673h737q9 0 6 -9l-2 -12q-3 -8 -10 -8h-738l-120 -694h854q6 0 6 -9l-2 -12q-3 -8 -11 -8h-876q-9 0 -6 8zM580 1683l2 13q3 22 26 22h13q13 0 16.5 -4t1.5 -18l-2 -13q-3 -22 -27 -22h-12 q-21 0 -18 22zM963 1683l2 13q3 22 28 22h11q23 0 20 -22l-2 -13q-3 -22 -29 -22h-10q-16 0 -19 3.5t-1 18.5z" />
<glyph unicode="&#xcc;" horiz-adv-x="391" d="M74 8l254 1438q0 8 8 8h14q8 0 8 -8l-254 -1438q-3 -8 -10 -8h-14q-9 0 -6 8zM201 1784q-11 4 0 14l4 4q11 11 20 2l330 -223q6 -6 0 -12l-4 -4q-5 -5 -14 -2z" />
<glyph unicode="&#xcd;" horiz-adv-x="391" d="M74 8l254 1438q0 8 8 8h14q8 0 8 -8l-254 -1438q-3 -8 -10 -8h-14q-9 0 -6 8zM170 1579q-4 7 4 12l406 234q10 6 18 -2l4 -6q9 -9 -4 -15l-408 -233q-9 -3 -14 2z" />
<glyph unicode="&#xce;" horiz-adv-x="391" d="M51 1577l342 242q13 10 21 10h6q9 0 22 -10l254 -242q3 -8 -8 -8h-12q-11 0 -17 6l-241 225l-322 -225q-9 -6 -18 -6h-23q-15 0 -4 8zM84 8l254 1438q0 8 8 8h14q9 0 9 -8l-254 -1438q-3 -8 -11 -8h-14q-9 0 -6 8z" />
<glyph unicode="&#xcf;" horiz-adv-x="391" d="M74 8l254 1438q0 8 8 8h14q8 0 8 -8l-254 -1438q-3 -8 -10 -8h-14q-9 0 -6 8zM162 1683l2 13q3 22 26 22h13q13 0 16.5 -4t1.5 -18l-2 -13q-3 -22 -26 -22h-13q-21 0 -18 22zM545 1683l2 13q3 22 28 22h11q23 0 20 -22l-2 -13q-3 -22 -29 -22h-10q-16 0 -19 3.5t-1 18.5z " />
<glyph unicode="&#xd0;" horiz-adv-x="1320" d="M18 721l2 8q3 10 15 10h182l125 707q0 8 8 8h404q281 0 411.5 -145t85.5 -400l-65 -372q-44 -253 -225 -395t-463 -142h-404q-9 0 -6 8l123 703h-182q-6 0 -9 3t-2 7zM123 29h381q269 0 439.5 134.5t213.5 377.5l66 372q41 243 -81.5 377.5t-391.5 134.5h-381l-121 -686 h440q11 0 8 -10l-2 -8q-3 -10 -12 -10h-440z" />
<glyph unicode="&#xd1;" horiz-adv-x="1402" d="M74 8l254 1438q0 8 8 8h8l12 -6l592 -1118l146 -271h2l59 351l184 1038q0 6 9 6h14q8 0 8 -8l-254 -1438q-3 -8 -10 -8h-12q-10 0 -13 8l-608 1153q-8 18 -53 107q-41 72 -70 129h-2q-35 -191 -53 -310l-191 -1079q-3 -8 -10 -8h-14q-9 0 -6 8zM557 1597q14 81 62 130 t116 49q43 2 87.5 -23.5t75.5 -56.5t71.5 -56.5t77.5 -23.5q56 0 93.5 41t49.5 110q3 9 10 9h12q10 0 7 -9q-14 -83 -60 -130.5t-117 -47.5q-43 -2 -87 23.5t-74.5 56.5t-71 56.5t-78.5 23.5q-55 0 -94.5 -42t-50.5 -110q-3 -8 -11 -8h-12q-9 0 -6 8z" />
<glyph unicode="&#xd2;" horiz-adv-x="1351" d="M154 473l92 520q42 235 202.5 362.5t421.5 127.5q258 0 377 -133.5t76 -368.5l-92 -520q-41 -235 -201 -362.5t-418 -127.5q-261 0 -381 133.5t-77 368.5zM184 469q-39 -223 71.5 -346t356.5 -123q243 0 396.5 123.5t191.5 345.5l92 516q38 223 -71.5 346t-352.5 123 q-247 0 -400.5 -121.5t-191.5 -347.5zM731 1804q-11 4 0 15l4 4q11 11 21 2l329 -223q7 -6 0 -13l-4 -4q-5 -5 -14 -2z" />
<glyph unicode="&#xd3;" horiz-adv-x="1351" d="M154 473l92 520q42 235 202.5 362.5t421.5 127.5q258 0 377 -133.5t76 -368.5l-92 -520q-41 -235 -201 -362.5t-418 -127.5q-261 0 -381 133.5t-77 368.5zM184 469q-39 -223 71.5 -346t356.5 -123q243 0 396.5 123.5t191.5 345.5l92 516q38 223 -71.5 346t-352.5 123 q-247 0 -400.5 -121.5t-191.5 -347.5zM700 1599q-4 7 5 13l405 233q10 6 18 -2l5 -6q8 -8 -5 -14l-407 -234q-9 -3 -14 2z" />
<glyph unicode="&#xd4;" horiz-adv-x="1351" d="M154 473l92 520q42 235 202.5 362.5t421.5 127.5q258 0 377 -133.5t76 -368.5l-92 -520q-41 -235 -201 -362.5t-418 -127.5q-261 0 -381 133.5t-77 368.5zM184 469q-39 -223 71.5 -346t356.5 -123q243 0 396.5 123.5t191.5 345.5l92 516q38 223 -71.5 346t-352.5 123 q-247 0 -400.5 -121.5t-191.5 -347.5zM571 1597l342 242q13 10 21 10h6q10 0 23 -10l254 -242q3 -8 -9 -8h-12q-10 0 -16 6l-242 226l-322 -226q-9 -6 -18 -6h-23q-15 0 -4 8z" />
<glyph unicode="&#xd5;" horiz-adv-x="1351" d="M154 473l92 520q42 235 202.5 362.5t421.5 127.5q258 0 377 -133.5t76 -368.5l-92 -520q-41 -235 -201 -362.5t-418 -127.5q-261 0 -381 133.5t-77 368.5zM184 469q-39 -223 71.5 -346t356.5 -123q243 0 396.5 123.5t191.5 345.5l92 516q38 223 -71.5 346t-352.5 123 q-247 0 -400.5 -121.5t-191.5 -347.5zM582 1618q14 80 62 129t116 49q36 2 70.5 -14.5t63 -41t56.5 -49t59.5 -41t61.5 -14.5q56 0 93.5 41.5t49.5 110.5q3 8 11 8h12q9 0 6 -8q-14 -83 -59.5 -130.5t-116.5 -47.5q-36 -2 -70.5 14.5t-63 40.5t-56 48.5t-59 41t-62.5 14.5 q-55 0 -95 -41.5t-51 -109.5q-3 -8 -10 -8h-12q-9 0 -6 8z" />
<glyph unicode="&#xd6;" horiz-adv-x="1351" d="M154 473l92 520q42 235 202.5 362.5t421.5 127.5q258 0 377 -133.5t76 -368.5l-92 -520q-41 -235 -201 -362.5t-418 -127.5q-261 0 -381 133.5t-77 368.5zM184 469q-39 -223 71.5 -346t356.5 -123q243 0 396.5 123.5t191.5 345.5l92 516q38 223 -71.5 346t-352.5 123 q-247 0 -400.5 -121.5t-191.5 -347.5zM692 1704l2 12q3 23 27 23h12q13 0 17 -4.5t2 -18.5l-2 -12q-3 -23 -27 -23h-12q-22 0 -19 23zM1075 1704l2 12q3 23 29 23h10q24 0 21 -23l-2 -12q-3 -23 -29 -23h-10q-16 0 -19.5 4t-1.5 19z" />
<glyph unicode="&#xd7;" horiz-adv-x="1024" d="M94 299q-8 8 2 14l414 353l-291 350q-3 7 4 14l2 2q9 9 15 0l290 -350l412 350q10 10 14 0l7 -6q3 -9 -5 -14l-411 -350l289 -353q7 -11 -2 -14l-5 -2q-11 -3 -14 0l-289 352l-413 -352q-6 -6 -15 0z" />
<glyph unicode="&#xd8;" horiz-adv-x="1351" d="M41 -86l154 190q-121 133 -78 369l92 520q41 235 202.5 362.5t422.5 127.5q256 0 376 -135l144 178q6 6 14 6h16q8 0 2 -6l-159 -197q100 -129 59 -348l-92 -520q-41 -235 -201 -362.5t-418 -127.5q-241 0 -362 115l-139 -172q-6 -6 -17 -6h-14q-8 0 -2 6zM147 469 q-38 -218 68 -342l975 1198q-111 129 -359 129t-399 -121q-151 -122 -192 -348zM233 109q115 -109 342 -109q243 0 396.5 123.5t191.5 345.5l92 516q35 200 -49 318z" />
<glyph unicode="&#xd9;" horiz-adv-x="1388" d="M188 494l170 952q3 8 9 8h14q8 0 8 -8l-170 -957q-39 -233 64.5 -362t345.5 -129q243 0 392.5 129.5t188.5 361.5l170 957q0 8 9 8h14q11 0 8 -8l-170 -963q-43 -247 -200 -380.5t-414 -133.5t-369.5 138.5t-69.5 386.5zM743 1784q-10 4 0 14l5 4q11 11 20 2l330 -223 q6 -6 0 -12l-4 -4q-5 -5 -15 -2z" />
<glyph unicode="&#xda;" horiz-adv-x="1388" d="M188 494l170 952q3 8 9 8h14q8 0 8 -8l-170 -957q-39 -233 64.5 -362t345.5 -129q243 0 392.5 129.5t188.5 361.5l170 957q0 8 9 8h14q11 0 8 -8l-170 -963q-43 -247 -200 -380.5t-414 -133.5t-369.5 138.5t-69.5 386.5zM713 1579q-3 7 4 12l405 234q10 7 19 -2l4 -6 q9 -9 -4 -15l-408 -233q-9 -3 -14 2z" />
<glyph unicode="&#xdb;" horiz-adv-x="1388" d="M188 494l170 952q3 8 9 8h14q8 0 8 -8l-170 -957q-39 -233 64.5 -362t345.5 -129q243 0 392.5 129.5t188.5 361.5l170 957q0 8 9 8h14q11 0 8 -8l-170 -963q-43 -247 -200 -380.5t-414 -133.5t-369.5 138.5t-69.5 386.5zM584 1577l342 242q13 10 20 10h6q10 0 23 -10 l254 -242q3 -8 -8 -8h-13q-10 0 -16 6l-242 225l-321 -225q-9 -6 -19 -6h-22q-15 0 -4 8z" />
<glyph unicode="&#xdc;" horiz-adv-x="1388" d="M188 494l170 952q3 8 9 8h14q8 0 8 -8l-170 -957q-39 -233 64.5 -362t345.5 -129q243 0 392.5 129.5t188.5 361.5l170 957q0 8 9 8h14q11 0 8 -8l-170 -963q-43 -247 -200 -380.5t-414 -133.5t-369.5 138.5t-69.5 386.5zM705 1683l2 13q3 22 26 22h12q13 0 17 -4t2 -18 l-2 -13q-3 -22 -27 -22h-12q-21 0 -18 22zM1087 1683l3 13q3 22 28 22h10q24 0 21 -22l-2 -13q-3 -22 -29 -22h-10q-16 0 -19.5 4t-1.5 18z" />
<glyph unicode="&#xdd;" horiz-adv-x="1241" d="M182 1446q-3 8 6 8h17q9 0 14 -8l408 -807l694 807q5 8 14 8h21q9 0 6 -8l-725 -840l-105 -598q-3 -8 -10 -8h-14q-9 0 -6 8l104 600zM600 1579q-4 7 4 12l406 234q10 6 18 -2l4 -6q9 -9 -4 -15l-407 -233q-10 -3 -15 2z" />
<glyph unicode="&#xde;" horiz-adv-x="1247" d="M74 8l254 1438q0 8 8 8h14q8 0 8 -8l-47 -256h512q211 0 315 -126t66 -337q-37 -208 -180 -325t-358 -117h-512l-50 -277q-3 -8 -10 -8h-14q-9 0 -6 8zM158 313h510q199 0 336.5 113.5t169.5 308.5q35 197 -61.5 311.5t-295.5 114.5h-510z" />
<glyph unicode="&#xdf;" horiz-adv-x="1112" d="M49 8l189 1073q37 216 161.5 335.5t319.5 119.5q409 0 338 -410q-22 -115 -94 -207.5t-187 -127.5v-3q125 -32 179 -131t28 -245q-71 -412 -477 -412h-232q-9 0 -6 8l2 10q0 9 9 9h231q374 0 444 389q29 166 -47 263t-241 97h-244q-9 0 -6 8v11q3 8 10 8h244 q154 0 245 104q94 108 115 226q64 376 -315 376q-179 0 -295.5 -112.5t-153.5 -315.5l-188 -1073q-3 -8 -10 -8h-13q-9 0 -6 8z" />
<glyph unicode="&#xe0;" horiz-adv-x="1077" d="M113 389l55 307q32 196 148 286.5t333 90.5q186 0 309 -57q47 -20 59.5 -41.5t4.5 -71.5l-148 -840q-3 -10 -20 -18q-195 -74 -434 -74q-188 0 -265.5 111.5t-41.5 306.5zM141 389q-33 -184 37.5 -287.5t245.5 -103.5q242 0 422 74l147 831q6 40 -2 53.5t-47 32.5 q-125 58 -299 58q-202 0 -309 -83t-139 -268zM553 1438q-8 6 0 14l2 2q8 8 18 2l320 -235q7 -7 0 -13l-2 -2q-8 -8 -14 -2z" />
<glyph unicode="&#xe1;" horiz-adv-x="1077" d="M113 389l55 307q32 196 148 286.5t333 90.5q186 0 309 -57q47 -20 59.5 -41.5t4.5 -71.5l-148 -840q-3 -10 -20 -18q-195 -74 -434 -74q-188 0 -265.5 111.5t-41.5 306.5zM141 389q-33 -184 37.5 -287.5t245.5 -103.5q242 0 422 74l147 831q6 40 -2 53.5t-47 32.5 q-125 58 -299 58q-202 0 -309 -83t-139 -268zM510 1210q-6 6 4 13l406 233q10 6 18 -2l4 -6q8 -8 -4 -14l-408 -234q-9 -3 -14 2z" />
<glyph unicode="&#xe2;" horiz-adv-x="1077" d="M113 389l55 307q32 196 148 286.5t333 90.5q186 0 309 -57q47 -20 59.5 -41.5t4.5 -71.5l-148 -840q-3 -10 -20 -18q-195 -74 -434 -74q-188 0 -265.5 111.5t-41.5 306.5zM141 389q-33 -184 37.5 -287.5t245.5 -103.5q242 0 422 74l147 831q6 40 -2 53.5t-47 32.5 q-125 58 -299 58q-202 0 -309 -83t-139 -268zM377 1192l342 242q17 10 22 10h7q10 0 20 -10l254 -242q8 -8 -6 -8h-12q-10 0 -19 6l-242 229l-321 -229q-9 -6 -16 -6h-23q-14 0 -6 8z" />
<glyph unicode="&#xe3;" horiz-adv-x="1077" d="M113 389l55 307q32 196 148 286.5t333 90.5q186 0 309 -57q47 -20 59.5 -41.5t4.5 -71.5l-148 -840q-3 -10 -20 -18q-195 -74 -434 -74q-188 0 -265.5 111.5t-41.5 306.5zM141 389q-33 -184 37.5 -287.5t245.5 -103.5q242 0 422 74l147 831q6 40 -2 53.5t-47 32.5 q-125 58 -299 58q-202 0 -309 -83t-139 -268zM389 1229q14 82 60.5 130t115.5 48q75 0 164 -80q86 -80 152 -80q56 0 93.5 41.5t49.5 110.5q3 8 10 8h13q9 0 6 -8q-34 -178 -172 -178q-41 0 -77 16.5t-62 39.5t-51.5 46.5t-58 40t-69.5 16.5q-55 0 -94 -41.5t-51 -109.5 q0 -8 -8 -8h-13q-8 0 -8 8z" />
<glyph unicode="&#xe4;" horiz-adv-x="1077" d="M113 389l55 307q32 196 148 286.5t333 90.5q186 0 309 -57q47 -20 59.5 -41.5t4.5 -71.5l-148 -840q-3 -10 -20 -18q-195 -74 -434 -74q-188 0 -265.5 111.5t-41.5 306.5zM141 389q-33 -184 37.5 -287.5t245.5 -103.5q242 0 422 74l147 831q6 40 -2 53.5t-47 32.5 q-125 58 -299 58q-202 0 -309 -83t-139 -268zM504 1325l2 12q3 23 26 23h13q13 0 16.5 -4.5t1.5 -18.5l-2 -12q-3 -22 -26 -22h-13q-21 0 -18 22zM887 1325l2 12q3 23 29 23h10q23 0 20 -23l-2 -12q-3 -22 -28 -22h-11q-16 0 -19 3.5t-1 18.5z" />
<glyph unicode="&#xe5;" horiz-adv-x="1077" d="M113 389l55 307q32 196 148 286.5t333 90.5q186 0 309 -57q47 -20 59.5 -41.5t4.5 -71.5l-148 -840q-3 -10 -20 -18q-195 -74 -434 -74q-188 0 -265.5 111.5t-41.5 306.5zM141 389q-33 -184 37.5 -287.5t245.5 -103.5q242 0 422 74l147 831q6 40 -2 53.5t-47 32.5 q-125 58 -299 58q-202 0 -309 -83t-139 -268zM539 1370q13 85 73 132.5t152 47.5q88 0 129.5 -51t24.5 -137q-13 -85 -72 -132.5t-148 -47.5q-88 0 -132 51t-27 137zM563 1366q-12 -74 25 -117t114 -43q75 0 127 43.5t64 116.5q14 74 -22 117t-111 43q-170 0 -197 -160z" />
<glyph unicode="&#xe6;" horiz-adv-x="1597" d="M53 279q26 153 133 223.5t306 70.5q144 0 284 -28l23 127q20 88 17 167.5t-38 133.5q-60 74 -213 74q-214 0 -346 -187q-4 -7 -10 -4l-12 4q-8 3 -2 12q74 105 163 153t213 48q149 0 212.5 -68t58.5 -198q57 127 162.5 196.5t240.5 69.5q181 0 262 -89.5t43 -252.5 q-32 -134 -138 -204t-269 -70q-174 0 -348 47l-25 -142q-64 -364 272 -364q131 0 222.5 54.5t162.5 166.5q6 9 11 4l14 -6q2 -3 0 -10q-149 -236 -414 -236q-237 0 -290 179q-47 -78 -143.5 -128.5t-225.5 -50.5q-191 0 -271.5 77t-54.5 231zM82 274q-25 -141 48.5 -208.5 t252.5 -67.5q160 0 256 76q73 60 100 112q-15 81 4 176l29 158q-138 27 -287 27q-184 0 -280.5 -65.5t-122.5 -207.5zM801 530q158 -47 348 -47q313 0 375 252q36 151 -39 231.5t-244 80.5q-164 0 -276 -105t-144 -291z" />
<glyph unicode="&#xe7;" horiz-adv-x="1044" d="M104 365l58 325q32 184 157.5 283.5t331.5 99.5q177 0 262.5 -71t104.5 -216q3 -12 -6 -12l-11 -2q-10 -3 -10 4q-19 140 -98 204t-246 64q-190 0 -308 -94.5t-149 -263.5l-57 -326q-30 -169 56.5 -264.5t273.5 -95.5q167 0 273.5 68.5t174.5 216.5q3 9 11 6l14 -4 q4 -4 2 -11q-137 -302 -469 -305l-84 -157q27 8 82 8q85 0 125 -36.5t29 -104.5q-13 -87 -79 -136t-165 -49q-109 0 -172 51q-11 11 -8 23l2 12q4 11 8 4q63 -63 174 -63q86 0 143 42.5t70 117.5q7 57 -28.5 86.5t-110.5 29.5q-58 0 -90 -14q-12 -4 -15.5 1t2.5 17l90 168 q-194 4 -282 109t-56 285z" />
<glyph unicode="&#xe8;" horiz-adv-x="1052" d="M100 362l54 293q35 198 167 308t334 110q210 0 306 -90.5t53 -253.5q-32 -133 -151.5 -202.5t-307.5 -69.5q-222 0 -401 43l-25 -138q-31 -174 51 -269t271 -95q151 0 254 54.5t184 166.5q2 7 12 4l10 -6q3 -3 0 -10q-166 -236 -465 -236q-202 0 -290.5 102.5 t-55.5 288.5zM158 528q170 -45 403 -45q359 0 424 252q41 151 -48 231.5t-286 80.5q-189 0 -314 -105t-157 -291zM530 1438q-8 6 0 14l2 2q9 9 19 2l319 -235q6 -7 0 -13l-2 -2q-8 -8 -14 -2z" />
<glyph unicode="&#xe9;" horiz-adv-x="1052" d="M100 362l54 293q35 198 167 308t334 110q210 0 306 -90.5t53 -253.5q-32 -133 -151.5 -202.5t-307.5 -69.5q-222 0 -401 43l-25 -138q-31 -174 51 -269t271 -95q151 0 254 54.5t184 166.5q2 7 12 4l10 -6q3 -3 0 -10q-166 -236 -465 -236q-202 0 -290.5 102.5 t-55.5 288.5zM158 528q170 -45 403 -45q359 0 424 252q41 151 -48 231.5t-286 80.5q-189 0 -314 -105t-157 -291zM487 1210q-6 6 5 13l405 233q10 6 18 -2l5 -6q8 -8 -5 -14l-407 -234q-9 -3 -14 2z" />
<glyph unicode="&#xea;" horiz-adv-x="1052" d="M100 362l54 293q35 198 167 308t334 110q210 0 306 -90.5t53 -253.5q-32 -133 -151.5 -202.5t-307.5 -69.5q-222 0 -401 43l-25 -138q-31 -174 51 -269t271 -95q151 0 254 54.5t184 166.5q2 7 12 4l10 -6q3 -3 0 -10q-166 -236 -465 -236q-202 0 -290.5 102.5 t-55.5 288.5zM158 528q170 -45 403 -45q359 0 424 252q41 151 -48 231.5t-286 80.5q-189 0 -314 -105t-157 -291zM354 1192l342 242q17 10 23 10h6q10 0 20 -10l254 -242q8 -8 -6 -8h-12q-9 0 -18 6l-242 229l-322 -229q-9 -6 -16 -6h-23q-14 0 -6 8z" />
<glyph unicode="&#xeb;" horiz-adv-x="1052" d="M100 362l54 293q35 198 167 308t334 110q210 0 306 -90.5t53 -253.5q-32 -133 -151.5 -202.5t-307.5 -69.5q-222 0 -401 43l-25 -138q-31 -174 51 -269t271 -95q151 0 254 54.5t184 166.5q2 7 12 4l10 -6q3 -3 0 -10q-166 -236 -465 -236q-202 0 -290.5 102.5 t-55.5 288.5zM158 528q170 -45 403 -45q359 0 424 252q41 151 -48 231.5t-286 80.5q-189 0 -314 -105t-157 -291zM481 1325l2 12q3 23 27 23h12q13 0 17 -4.5t2 -18.5l-2 -12q-3 -22 -27 -22h-12q-22 0 -19 22zM864 1325l2 12q3 23 29 23h10q24 0 21 -23l-2 -12 q-3 -22 -29 -22h-10q-16 0 -19.5 4t-1.5 18z" />
<glyph unicode="&#xec;" horiz-adv-x="335" d="M49 8l180 1028q3 8 11 8h12q9 0 6 -8l-180 -1028q-3 -8 -10 -8h-13q-9 0 -6 8zM102 1434l4 2q14 7 17 4l242 -223q12 -9 2 -15l-5 -2q-10 -4 -14 0l-244 219q-16 9 -2 15z" />
<glyph unicode="&#xed;" horiz-adv-x="335" d="M49 8l180 1028q3 8 11 8h12q9 0 6 -8l-180 -1028q-3 -8 -10 -8h-13q-9 0 -6 8zM119 1208q-3 7 6 13l332 233q11 8 18 -2l4 -6q3 -6 -8 -14l-334 -234q-6 -6 -14 2z" />
<glyph unicode="&#xee;" horiz-adv-x="335" d="M29 1208l254 222q13 10 20 10h6q5 0 15 -10l174 -222q4 -4 1.5 -6t-10.5 -2h-8q-13 0 -16 6l-162 207l-235 -207q-6 -6 -19 -6h-16q-7 0 -4 8zM51 8l180 1028q3 8 11 8h12q9 0 6 -8l-180 -1028q-3 -8 -10 -8h-13q-9 0 -6 8z" />
<glyph unicode="&#xef;" horiz-adv-x="335" d="M49 8l180 1028q3 8 11 8h12q9 0 6 -8l-180 -1028q-3 -8 -10 -8h-13q-9 0 -6 8zM131 1364l4 12q3 23 25 23h12q24 0 21 -23l-5 -12q0 -14 -4.5 -18.5t-19.5 -4.5h-12q-24 0 -21 23zM391 1364l4 12q3 23 27 23h10q26 0 23 -23l-4 -12q-3 -23 -27 -23h-10q-14 0 -19 5t-4 18 z" />
<glyph unicode="&#xf0;" horiz-adv-x="1120" d="M100 348l54 307q32 181 161 280t338 99q153 0 246 -59.5t117 -165.5q36 196 15.5 329t-99.5 214l-223 -195q-11 -7 -15 0l-6 6q-3 10 2 15l223 192q-137 119 -440 119q-9 0 -6 8l2 10q0 9 10 9q314 0 457 -125l160 137q8 8 14 0l4 -6q6 -6 -2 -15l-158 -135 q160 -165 93 -549l-84 -475q-31 -180 -159.5 -278.5t-336.5 -98.5q-212 0 -305 97.5t-62 279.5zM129 348q-29 -167 59 -258.5t283 -91.5q194 0 314 91.5t149 258.5l55 309q29 167 -58.5 259t-281.5 92q-195 0 -316.5 -93t-150.5 -260z" />
<glyph unicode="&#xf1;" horiz-adv-x="1110" d="M43 8l156 889q11 48 29 69.5t67 41.5q171 65 369 65q387 0 317 -389l-119 -676q-3 -8 -10 -8h-12q-9 0 -6 8l118 674q64 365 -293 365q-194 0 -364 -66q-59 -24 -68 -84l-155 -889q-3 -8 -11 -8h-12q-9 0 -6 8zM340 1229q14 82 60.5 130t115.5 48q75 0 164 -80 q86 -80 151 -80q56 0 94 41.5t50 110.5q3 8 10 8h12q10 0 7 -8q-34 -178 -173 -178q-41 0 -76.5 16.5t-61.5 39.5t-51.5 46.5t-58 40t-69.5 16.5q-55 0 -94 -41.5t-51 -109.5q0 -8 -9 -8h-12q-8 0 -8 8z" />
<glyph unicode="&#xf2;" d="M94 311l74 422q27 156 160 248t323 92q196 0 296.5 -91t74.5 -249l-74 -422q-26 -157 -157.5 -248.5t-325.5 -91.5q-193 0 -295 92.5t-76 247.5zM123 309q-26 -140 69 -225.5t273 -85.5q180 0 304.5 85t150.5 226l73 426q26 141 -69 226.5t-275 85.5q-177 0 -301.5 -85.5 t-150.5 -226.5zM526 1436q-8 6 0 14l2 2q9 9 19 2l319 -235q6 -7 0 -13l-2 -2q-8 -8 -14 -2z" />
<glyph unicode="&#xf3;" d="M94 311l74 422q27 156 160 248t323 92q196 0 296.5 -91t74.5 -249l-74 -422q-26 -157 -157.5 -248.5t-325.5 -91.5q-193 0 -295 92.5t-76 247.5zM123 309q-26 -140 69 -225.5t273 -85.5q180 0 304.5 85t150.5 226l73 426q26 141 -69 226.5t-275 85.5q-177 0 -301.5 -85.5 t-150.5 -226.5zM483 1208q-6 6 4 13l406 233q10 6 18 -2l4 -6q8 -8 -4 -14l-407 -234q-10 -3 -15 2z" />
<glyph unicode="&#xf4;" d="M94 311l74 422q27 156 160 248t323 92q196 0 296.5 -91t74.5 -249l-74 -422q-26 -157 -157.5 -248.5t-325.5 -91.5q-193 0 -295 92.5t-76 247.5zM123 309q-26 -140 69 -225.5t273 -85.5q180 0 304.5 85t150.5 226l73 426q26 141 -69 226.5t-275 85.5q-177 0 -301.5 -85.5 t-150.5 -226.5zM350 1190l342 242q17 10 23 10h6q10 0 20 -10l254 -242q8 -8 -6 -8h-12q-10 0 -19 6l-241 229l-322 -229q-9 -6 -16 -6h-23q-14 0 -6 8z" />
<glyph unicode="&#xf5;" d="M94 311l74 422q27 156 160 248t323 92q196 0 296.5 -91t74.5 -249l-74 -422q-26 -157 -157.5 -248.5t-325.5 -91.5q-193 0 -295 92.5t-76 247.5zM123 309q-26 -140 69 -225.5t273 -85.5q180 0 304.5 85t150.5 226l73 426q26 141 -69 226.5t-275 85.5q-177 0 -301.5 -85.5 t-150.5 -226.5zM362 1227q14 82 61 130t116 48q74 0 163 -80q86 -80 152 -80q56 0 93.5 41.5t49.5 110.5q3 8 11 8h12q9 0 6 -8q-34 -178 -172 -178q-41 0 -76.5 16.5t-61.5 39.5t-51.5 46.5t-58 40t-69.5 16.5q-55 0 -94.5 -41.5t-51.5 -109.5q0 -8 -8 -8h-12q-9 0 -9 8z " />
<glyph unicode="&#xf6;" d="M94 311l74 422q27 156 160 248t323 92q196 0 296.5 -91t74.5 -249l-74 -422q-26 -157 -157.5 -248.5t-325.5 -91.5q-193 0 -295 92.5t-76 247.5zM123 309q-26 -140 69 -225.5t273 -85.5q180 0 304.5 85t150.5 226l73 426q26 141 -69 226.5t-275 85.5q-177 0 -301.5 -85.5 t-150.5 -226.5zM477 1323l2 12q3 23 27 23h12q13 0 17 -4.5t2 -18.5l-2 -12q-3 -23 -27 -23h-12q-22 0 -19 23zM860 1323l2 12q3 23 29 23h10q24 0 21 -23l-2 -12q-3 -23 -29 -23h-10q-16 0 -19.5 4t-1.5 19z" />
<glyph unicode="&#xf7;" horiz-adv-x="1249" d="M150 657l2 13q0 8 8 8h946q8 0 8 -8l-2 -13q-3 -8 -10 -8h-946q-9 0 -6 8zM526 240v8q6 26 33 26h8q27 0 21 -26v-8q-6 -27 -33 -27h-8q-17 0 -20 4.5t-1 22.5zM674 1085l2 9q6 26 31 26h8q28 0 22 -26l-2 -9q-3 -26 -30 -26h-9q-17 0 -20.5 4t-1.5 22z" />
<glyph unicode="&#xf8;" d="M36.5 -70q-0.5 2 0.5 4l102 127q-101 90 -73 250l73 422q26 157 158 248.5t324 91.5q173 0 276 -74l104 127q4 4 11 4h20q5 0 2 -6l-116 -143q102 -95 75 -248l-73 -422q-26 -157 -159 -248.5t-327 -91.5q-169 0 -272 74l-90 -111q-6 -6 -13 -6h-20q-2 0 -2.5 2zM94 309 q-27 -148 62 -225l725 891q-101 72 -260 72q-177 0 -302 -85.5t-151 -226.5zM178 68q88 -70 258 -70q180 0 304.5 85t150.5 226l74 426q24 137 -66 221z" />
<glyph unicode="&#xf9;" horiz-adv-x="1112" d="M170 360l119 676q3 8 10 8h12q9 0 6 -8l-118 -674q-64 -364 290 -364q199 0 367 65q59 24 68 84l155 889q3 8 11 8h12q9 0 6 -8l-156 -889q-11 -48 -29 -69t-67 -41q-173 -66 -369 -66q-387 0 -317 389zM578 1436q-8 6 0 14l2 2q8 8 18 2l320 -235q6 -7 0 -13l-3 -2 q-8 -8 -14 -2z" />
<glyph unicode="&#xfa;" horiz-adv-x="1112" d="M170 360l119 676q3 8 10 8h12q9 0 6 -8l-118 -674q-64 -364 290 -364q199 0 367 65q59 24 68 84l155 889q3 8 11 8h12q9 0 6 -8l-156 -889q-11 -48 -29 -69t-67 -41q-173 -66 -369 -66q-387 0 -317 389zM535 1208q-6 6 4 13l405 233q10 7 19 -2l4 -6q8 -8 -4 -14 l-408 -234q-9 -3 -14 2z" />
<glyph unicode="&#xfb;" horiz-adv-x="1112" d="M170 360l119 676q3 8 10 8h12q9 0 6 -8l-118 -674q-64 -364 290 -364q199 0 367 65q59 24 68 84l155 889q3 8 11 8h12q9 0 6 -8l-156 -889q-11 -48 -29 -69t-67 -41q-173 -66 -369 -66q-387 0 -317 389zM401 1190l342 242q17 10 23 10h6q11 0 21 -10l254 -242q8 -8 -7 -8 h-12q-9 0 -18 6l-242 229l-322 -229q-9 -6 -16 -6h-22q-15 0 -7 8z" />
<glyph unicode="&#xfc;" horiz-adv-x="1112" d="M170 360l119 676q3 8 10 8h12q9 0 6 -8l-118 -674q-64 -364 290 -364q199 0 367 65q59 24 68 84l155 889q3 8 11 8h12q9 0 6 -8l-156 -889q-11 -48 -29 -69t-67 -41q-173 -66 -369 -66q-387 0 -317 389zM528 1323l2 12q3 23 27 23h12q13 0 17 -4.5t2 -18.5l-2 -12 q-3 -23 -27 -23h-12q-22 0 -19 23zM911 1323l2 12q3 23 29 23h10q24 0 21 -23l-2 -12q-3 -23 -29 -23h-10q-16 0 -19.5 4t-1.5 19z" />
<glyph unicode="&#xfd;" horiz-adv-x="1118" d="M0 -287q-3 10 6 13l10 4q11 4 11 -4q37 -116 112.5 -173t212.5 -57q387 0 461 412l27 147q-235 -84 -420 -84q-388 0 -318 389l119 676q3 8 10 8h13q9 0 6 -8l-119 -674q-31 -186 38 -275t255 -89q194 0 420 86l168 952q3 8 10 8h12q9 0 6 -8l-198 -1128 q-77 -440 -496 -440q-276 0 -346 245zM467 1208q-6 6 4 13l406 233q10 6 18 -2l4 -6q8 -8 -4 -14l-408 -234q-9 -3 -14 2z" />
<glyph unicode="&#xfe;" horiz-adv-x="1093" d="M-31 -442l344 1949q0 9 11 9h12q6 0 6 -9l-96 -544q170 92 389 92q420 0 346 -406l-51 -293q-70 -387 -451 -387q-218 0 -389 109l-92 -520q-3 -9 -10 -9h-13q-9 0 -6 9zM96 111q74 -56 209 -91q89 -24 180 -24q351 0 416 360l51 293q65 379 -321 379q-210 0 -391 -96z " />
<glyph unicode="&#xff;" horiz-adv-x="1118" d="M0 -287q-3 10 6 13l10 4q11 4 11 -4q37 -116 112.5 -173t212.5 -57q387 0 461 412l27 147q-235 -84 -420 -84q-388 0 -318 389l119 676q3 8 10 8h13q9 0 6 -8l-119 -674q-31 -186 38 -275t255 -89q194 0 420 86l168 952q3 8 10 8h12q9 0 6 -8l-198 -1128 q-77 -440 -496 -440q-276 0 -346 245zM461 1323l2 12q3 23 26 23h13q13 0 16.5 -4.5t1.5 -18.5l-2 -12q-3 -23 -26 -23h-13q-21 0 -18 23zM844 1323l2 12q3 23 28 23h11q23 0 20 -23l-2 -12q-3 -23 -29 -23h-10q-16 0 -19 4t-1 19z" />
<glyph unicode="&#x152;" horiz-adv-x="1695" d="M154 471l92 520q42 235 204.5 364.5t423.5 129.5q108 0 220 -31h671q9 0 9 -8l-5 -12q0 -9 -8 -9h-653l-119 -675h567q7 0 7 -9l-2 -12q-3 -8 -11 -8h-567l-121 -692h684q6 0 6 -9l-2 -12q-3 -8 -10 -8h-702q-118 -31 -232 -31q-260 0 -377.5 133.5t-74.5 368.5zM184 469 q-39 -223 71.5 -347t356.5 -124q116 0 217 29l248 1398q-102 31 -209 31q-246 0 -399.5 -124t-192.5 -347z" />
<glyph unicode="&#x153;" horiz-adv-x="1640" d="M100 309l74 426q26 154 141.5 246t278.5 92q143 0 223 -72t80 -206q117 278 397 278q181 0 259 -87.5t40 -250.5q-32 -135 -135.5 -206.5t-265.5 -71.5q-178 0 -336 45l-25 -140q-30 -172 34.5 -268t226.5 -96q132 0 219 51.5t157 161.5q8 9 13 4l12 -6q3 -3 0 -10 q-72 -115 -167.5 -171.5t-238.5 -56.5q-281 0 -290 265q-56 -124 -160 -194.5t-234 -70.5q-162 0 -245.5 92t-57.5 246zM127 307q-25 -140 53.5 -224.5t227.5 -84.5q152 0 260 98t137 260l61 349q26 160 -47.5 251t-226.5 91q-149 0 -255.5 -85t-131.5 -225zM862 530 q158 -47 336 -47q306 0 367 252q38 151 -34 231.5t-241 80.5q-163 0 -268.5 -104t-138.5 -292z" />
<glyph unicode="&#x178;" horiz-adv-x="1241" d="M182 1446q-3 8 6 8h17q9 0 14 -8l408 -807l694 807q5 8 14 8h21q9 0 6 -8l-725 -840l-105 -598q-3 -8 -10 -8h-14q-9 0 -6 8l104 600zM592 1683l2 13q3 22 27 22h12q13 0 16.5 -4t1.5 -18l-2 -13q-3 -22 -26 -22h-13q-21 0 -18 22zM975 1683l2 13q3 22 29 22h10 q23 0 20 -22l-2 -13q-3 -22 -28 -22h-11q-16 0 -19 3.5t-1 18.5z" />
<glyph unicode="&#x2c6;" horiz-adv-x="737" d="M174 1210l342 242q17 10 23 10h6q10 0 20 -10l254 -242q8 -8 -6 -8h-12q-10 0 -19 6l-241 230l-322 -230q-9 -6 -16 -6h-23q-14 0 -6 8z" />
<glyph unicode="&#x2dc;" horiz-adv-x="624" d="M123 1247q14 82 60.5 130t115.5 48q76 0 164 -79q86 -80 151 -80q56 0 94 41t50 110q3 8 10 8h12q9 0 6 -8q-34 -178 -172 -178q-41 0 -76.5 16.5t-61.5 40t-51.5 47t-58 40t-69.5 16.5q-55 0 -94 -42t-51 -110q0 -8 -9 -8h-12q-8 0 -8 8z" />
<glyph unicode="&#x2000;" horiz-adv-x="924" />
<glyph unicode="&#x2001;" horiz-adv-x="1849" />
<glyph unicode="&#x2002;" horiz-adv-x="924" />
<glyph unicode="&#x2003;" horiz-adv-x="1849" />
<glyph unicode="&#x2004;" horiz-adv-x="616" />
<glyph unicode="&#x2005;" horiz-adv-x="462" />
<glyph unicode="&#x2006;" horiz-adv-x="308" />
<glyph unicode="&#x2007;" horiz-adv-x="308" />
<glyph unicode="&#x2008;" horiz-adv-x="231" />
<glyph unicode="&#x2009;" horiz-adv-x="369" />
<glyph unicode="&#x200a;" horiz-adv-x="102" />
<glyph unicode="&#x2010;" horiz-adv-x="884" d="M123 539l2 12q3 8 10 8h594q9 0 6 -8l-2 -12q0 -9 -8 -9h-594q-8 0 -8 9z" />
<glyph unicode="&#x2011;" horiz-adv-x="884" d="M123 539l2 12q3 8 10 8h594q9 0 6 -8l-2 -12q0 -9 -8 -9h-594q-8 0 -8 9z" />
<glyph unicode="&#x2012;" horiz-adv-x="884" d="M123 539l2 12q3 8 10 8h594q9 0 6 -8l-2 -12q0 -9 -8 -9h-594q-8 0 -8 9z" />
<glyph unicode="&#x2013;" horiz-adv-x="1193" d="M123 543l2 12q0 8 10 8h909q7 0 7 -8l-2 -12q-3 -8 -11 -8h-909q-9 0 -6 8z" />
<glyph unicode="&#x2014;" horiz-adv-x="1603" d="M123 543l2 12q0 8 10 8h1319q6 0 6 -8l-2 -12q-3 -8 -10 -8h-1319q-9 0 -6 8z" />
<glyph unicode="&#x2018;" horiz-adv-x="352" d="M225 1149l158 297q3 8 10 8h8q10 0 7 -8l-142 -297q-8 -14 -20 -14h-13q-16 0 -8 14z" />
<glyph unicode="&#x2019;" horiz-adv-x="348" d="M217 1143l141 297q8 14 21 14h12q16 0 8 -14l-157 -297q-3 -8 -11 -8h-8q-9 0 -6 8z" />
<glyph unicode="&#x201a;" horiz-adv-x="262" d="M-14 -205l80 422q3 8 8 8h18q8 0 8 -8l-88 -422q0 -8 -8 -8h-10q-11 0 -8 8z" />
<glyph unicode="&#x201c;" horiz-adv-x="528" d="M225 1149l158 297q3 8 10 8h8q10 0 7 -8l-142 -297q-8 -14 -20 -14h-13q-16 0 -8 14zM401 1149l158 297q3 8 10 8h9q9 0 6 -8l-142 -297q-8 -14 -20 -14h-12q-17 0 -9 14z" />
<glyph unicode="&#x201d;" horiz-adv-x="524" d="M217 1143l141 297q8 14 21 14h12q16 0 8 -14l-157 -297q-3 -8 -11 -8h-8q-9 0 -6 8zM393 1143l142 297q8 14 20 14h12q16 0 8 -14l-157 -297q-3 -8 -10 -8h-9q-9 0 -6 8z" />
<glyph unicode="&#x201e;" horiz-adv-x="454" d="M-98 -240l141 297q9 15 20 15h13q17 0 8 -15l-158 -297q-3 -8 -10 -8h-8q-9 0 -6 8zM78 -240l141 297q9 15 21 15h12q17 0 8 -15l-158 -297q-3 -8 -10 -8h-8q-9 0 -6 8z" />
<glyph unicode="&#x2022;" horiz-adv-x="487" d="M186 539q9 49 60 49q23 0 33.5 -14t5.5 -35q-2 -21 -18.5 -35.5t-39.5 -14.5q-47 0 -41 50z" />
<glyph unicode="&#x2026;" horiz-adv-x="1017" d="M24.5 -3.5q-3.5 4.5 0.5 21.5l2 9q6 26 32 26h9q26 0 20 -26l-2 -9q-6 -26 -33 -26h-8q-17 0 -20.5 4.5zM392.5 -3.5q-3.5 4.5 0.5 21.5l2 9q6 26 33 26h8q27 0 21 -26l-2 -9q-6 -26 -33 -26h-8q-18 0 -21.5 4.5zM761.5 -3.5q-3.5 4.5 0.5 21.5l2 9q6 26 33 26h8 q26 0 20 -26l-2 -9q-6 -26 -32 -26h-9q-17 0 -20.5 4.5z" />
<glyph unicode="&#x202f;" horiz-adv-x="369" />
<glyph unicode="&#x2039;" horiz-adv-x="653" d="M82 532q-8 8 2 11l510 436q9 6 12 0l8 -12q3 -10 -4 -15l-491 -417l344 -418q7 -7 -2 -13l-8 -4q-11 -8 -15 0z" />
<glyph unicode="&#x203a;" horiz-adv-x="655" d="M25 113q-3 7 2 12l491 418l-344 418q-5 8 4 14l8 4q10 7 13 0l358 -436q3 -6 -2 -11l-508 -432q-11 -10 -14 0z" />
<glyph unicode="&#x205f;" horiz-adv-x="462" />
<glyph unicode="&#x20ac;" horiz-adv-x="1474" d="M68 557l6 12q6 9 12 9h227l49 278h-163q-5 0 -7.5 2t-1.5 6l9 13q3 8 10 8h158l18 106q43 235 205 364.5t422 129.5q194 0 299.5 -63t144.5 -195q3 -13 -6 -13l-12 -2q-11 0 -11 7q-37 124 -136.5 180.5t-284.5 56.5q-245 0 -397 -122t-189 -341l-21 -108h762q9 0 6 -8 l-8 -13q-3 -8 -12 -8h-752l-49 -278h672q10 0 4 -9l-6 -12q-5 -8 -15 -8h-661l-14 -86q-37 -219 72.5 -342t351.5 -123q193 0 316 63.5t204 198.5q6 9 12 6l12 -6q8 -3 2 -12q-87 -142 -218.5 -210.5t-334.5 -68.5q-257 0 -374 131t-76 365l14 84h-233q-11 0 -6 8z" />
<glyph unicode="&#x2122;" horiz-adv-x="1269" d="M217 1405l2 8q0 10 10 10h435q8 0 8 -10l-2 -8q-3 -8 -13 -8h-200l-84 -479q-4 -11 -15 -11h-6q-5 0 -7 3.5t-1 7.5l84 479h-205q-9 0 -6 8zM643 918l88 495q0 10 12 10h5q7 0 10 -6l170 -354l293 352q5 8 14 8h10q6 0 6 -8l-88 -497q-4 -11 -12 -11h-8q-5 0 -7 3.5 t-1 7.5l59 339l20 109q-1 -2 -29.5 -36t-39.5 -48l-207 -248q-3 -6 -12 -6h-4q-10 0 -13 6l-116 244q-9 23 -23.5 53.5t-17.5 36.5l-21 -111l-59 -339q-4 -11 -10 -11h-11q-5 0 -7 3.5t-1 7.5z" />
<glyph unicode="&#x25fc;" horiz-adv-x="1044" d="M0 0v1044h1044v-1044h-1044z" />
</font>
</defs>
</svg>
