<?xml version="1.0" standalone="no"?>
<!DOCTYPE svg PUBLIC "-//W3C//DTD SVG 1.1//EN" "http://www.w3.org/Graphics/SVG/1.1/DTD/svg11.dtd" >
<svg xmlns="http://www.w3.org/2000/svg" xmlns:xlink="http://www.w3.org/1999/xlink" version="1.1">
<metadata></metadata>
<defs>
<font id="panton_extrablackitalic" horiz-adv-x="1441" >
<font-face units-per-em="2048" ascent="1554" descent="-494" />
<missing-glyph horiz-adv-x="327" />
<glyph unicode="&#xfb01;" horiz-adv-x="1286" d="M70 82l112 637h-45q-45 0 -59.5 17.5t-7.5 64.5l32 182q8 45 29 63.5t68 18.5h45v4q41 232 182.5 339.5t394.5 107.5h482q47 0 62 -18.5t5 -65.5l-31 -179q-7 -47 -29 -65.5t-69 -18.5h-436q-94 0 -109 -96l-2 -8h531q45 0 59.5 -17.5t7.5 -64.5l-159 -901 q-8 -45 -29 -63.5t-68 -18.5h-286q-45 0 -60 17.5t-8 64.5l113 637h-162l-113 -637q-8 -45 -29.5 -63.5t-68.5 -18.5h-283q-47 0 -61.5 17.5t-7.5 64.5z" />
<glyph unicode="&#xfb02;" horiz-adv-x="1306" d="M70 82l112 637h-45q-45 0 -59.5 17.5t-7.5 64.5l32 182q8 45 29 63.5t68 18.5h45v4q80 447 577 447h502q48 0 63 -18.5t5 -65.5l-238 -1350q-8 -45 -29 -63.5t-67 -18.5h-287q-45 0 -60 17.5t-8 64.5l193 1087h-90q-94 0 -109 -96l-2 -8h49q45 0 60 -17.5t8 -64.5 l-33 -182q-8 -45 -29 -63.5t-67 -18.5h-49l-113 -637q-8 -45 -29.5 -63.5t-68.5 -18.5h-283q-47 0 -61.5 17.5t-7.5 64.5z" />
<glyph horiz-adv-x="0" />
<glyph unicode="&#xd;" horiz-adv-x="681" />
<glyph unicode=" "  horiz-adv-x="327" />
<glyph unicode="&#x09;" horiz-adv-x="327" />
<glyph unicode="&#xa0;" horiz-adv-x="327" />
<glyph unicode="!" horiz-adv-x="620" d="M-4 150l18 104q17 94 59 130t138 36h160q96 0 126 -36t13 -130l-18 -104q-17 -94 -59 -130t-138 -36h-160q-96 0 -126 36t-13 130zM127 580l117 854q6 44 26.5 61.5t67.5 17.5h295q47 0 62 -17t7 -62l-188 -854q-11 -47 -30.5 -64.5t-63.5 -17.5h-227q-44 0 -58 17.5 t-8 64.5z" />
<glyph unicode="&#x22;" horiz-adv-x="892" d="M137 981l70 401q8 45 23.5 58.5t62.5 13.5h225q48 0 61 -14t1 -58l-123 -401q-13 -44 -32 -56t-71 -12h-155q-47 0 -58 12t-4 56zM551 981l70 401q8 45 23.5 58.5t62.5 13.5h225q48 0 60.5 -14t0.5 -58l-123 -401q-13 -44 -31.5 -56t-70.5 -12h-156q-47 0 -58 12t-3 56z " />
<glyph unicode="#" horiz-adv-x="1636" d="M-9.5 247q-10.5 18 9.5 62l102 207q20 43 46 59.5t75 16.5h99l92 190h-105q-47 0 -58 18t9 62l102 207q20 42 46.5 58t74.5 16h101l73 153q37 82 117 82h234q44 0 54.5 -19t-9.5 -63l-74 -153h156l73 153q24 45 50 63.5t69 18.5h234q44 0 53.5 -19t-10.5 -63l-74 -153 h104q45 0 55 -17t-10 -61l-98 -209q-35 -74 -121 -74h-100l-92 -190h106q47 0 57.5 -18t-10.5 -62l-104 -207q-20 -43 -47 -59.5t-74 -16.5h-100l-70 -147q-37 -82 -117 -82h-233q-44 0 -54.5 19t9.5 63l69 147h-155l-70 -147q-24 -45 -50 -63.5t-69 -18.5h-233 q-44 0 -53.5 19t10.5 63l70 147h-105q-44 0 -54.5 18zM717 592h155l93 190h-156z" />
<glyph unicode="$" horiz-adv-x="1318" d="M18 313q-15 81 72 109l252 84q47 19 71.5 11.5t43.5 -48.5q18 -40 55.5 -58t112.5 -18q86 0 124.5 14t45.5 52q6 33 -29.5 51t-116.5 31q-233 41 -323 88q-228 117 -176 401q29 162 138.5 251.5t311.5 125.5l10 59q8 45 29 62.5t68 17.5h266q47 0 61 -17.5t6 -62.5 l-10 -57q120 -23 186.5 -80.5t102.5 -163.5q13 -41 -1.5 -64.5t-64.5 -43.5l-252 -103q-44 -18 -62.5 -10t-35.5 51q-17 49 -47 66.5t-98 17.5q-136 0 -148 -65q-6 -37 31.5 -55.5t134.5 -32.5q254 -41 359 -115q169 -120 122 -377q-29 -164 -143 -255.5t-321 -127.5 l-11 -57q-10 -47 -31 -64.5t-65 -17.5h-266q-46 0 -61 18.5t-7 63.5l8 51q-302 47 -342 268z" />
<glyph unicode="%" horiz-adv-x="1961" d="M139 993l27 160q30 157 143.5 244.5t294.5 87.5q182 0 264.5 -88t53.5 -244l-27 -160q-30 -155 -142.5 -241t-293.5 -86q-182 0 -265.5 86.5t-54.5 240.5zM190 27.5q-8 27.5 25 62.5l1174 1290q48 51 75 62q27 12 103 12h258q42 0 50.5 -26t-22.5 -58l-1171 -1290 q-51 -55 -80 -66q-28 -14 -110 -14h-248q-46 0 -54 27.5zM453 1018q-12 -60 59 -60q66 0 78 60l18 112q12 60 -55 60q-70 0 -82 -60zM1135 299l28 160q26 156 140 244t296 88q181 0 264 -87.5t56 -244.5l-29 -160q-30 -157 -141.5 -242.5t-292.5 -85.5q-183 0 -266.5 86 t-54.5 242zM1450 324q-9 -60 59 -60q69 0 78 60l21 112q9 60 -58 60q-71 0 -80 -60z" />
<glyph unicode="&#x26;" horiz-adv-x="1452" d="M31 428q47 249 307 387q-26 54 -35.5 131.5t2.5 145.5q32 178 167 285.5t351 107.5q181 0 285 -113q101 -113 74 -285q-40 -223 -250 -348l-23 -12l70 -94l98 84q64 52 107 0l149 -174q36 -48 -22 -94l-119 -101l201 -268q25 -31 8.5 -55.5t-60.5 -24.5h-325 q-46 0 -68.5 9t-42.5 38l-33 43q-189 -121 -421 -121q-229 0 -343 122.5t-77 336.5zM446 428q-8 -47 17 -74.5t76 -27.5q63 0 127 43l-129 172q-79 -39 -91 -113zM698 1098q-13 -58 21 -109l14 8q63 40 78 101q9 59 -47 59q-57 0 -66 -59z" />
<glyph unicode="'" horiz-adv-x="479" d="M137 981l70 401q8 45 23.5 58.5t62.5 13.5h225q48 0 61 -14t1 -58l-123 -401q-13 -44 -32 -56t-71 -12h-155q-47 0 -58 12t-4 56z" />
<glyph unicode="(" horiz-adv-x="675" d="M45 258l166 940q38 217 141.5 352.5t280.5 212.5q44 16 66 4t34 -57l84 -268q13 -41 0 -63.5t-63 -47.5q-51 -25 -76 -62t-37 -104l-154 -874q-13 -63 -0.5 -102.5t54.5 -63.5q39 -25 44 -46.5t-20 -64.5l-178 -268q-31 -48 -56 -59t-63 6q-150 75 -205.5 211t-17.5 354z " />
<glyph unicode=")" horiz-adv-x="675" d="M-51 14q-12 41 1.5 63.5t63.5 47.5q51 26 76 63t35 103l154 874q13 62 1.5 102t-53.5 64q-39 25 -44.5 46.5t18.5 64.5l178 268q32 48 57.5 59t63.5 -6q150 -74 204.5 -210t16.5 -355l-166 -940q-38 -218 -141 -354t-279 -211q-45 -16 -66.5 -4t-35.5 57z" />
<glyph unicode="*" horiz-adv-x="708" d="M180 1155l39 76q35 69 92 35l105 -60v127q0 68 69 68h80q38 0 48.5 -15.5t-1.5 -52.5l-43 -127l125 60q38 18 55 10t23 -45l14 -78q12 -67 -63 -76l-131 -20l74 -90q46 -49 -19 -90l-76 -46q-67 -40 -86 21l-36 109l-78 -111q-44 -65 -88 -27l-62 54q-49 40 10 90l107 90 l-123 20q-70 9 -35 78z" />
<glyph unicode="+" horiz-adv-x="1155" d="M45 567l37 207q7 51 31 70.5t75 19.5h248l43 248q7 50 31 70t76 20h207q51 0 67 -19.5t6 -70.5l-43 -248h250q51 0 66.5 -19.5t7.5 -70.5l-37 -207q-11 -51 -33 -70.5t-73 -19.5h-250l-43 -250q-11 -51 -33.5 -70.5t-73.5 -19.5h-207q-50 0 -65.5 19t-7.5 71l43 250h-248 q-51 0 -66.5 19.5t-7.5 70.5z" />
<glyph unicode="," horiz-adv-x="565" d="M-119.5 -258q-10.5 12 0.5 49l154 516q19 62 48.5 88.5t84.5 26.5h244q122 0 63 -115l-242 -497q-41 -80 -133 -80h-168q-41 0 -51.5 12z" />
<glyph unicode="-" horiz-adv-x="813" d="M47 432l39 219q7 50 31 70t76 20h491q51 0 66.5 -19.5t7.5 -70.5l-39 -219q-7 -51 -30.5 -70.5t-74.5 -19.5h-491q-51 0 -67.5 19.5t-8.5 70.5z" />
<glyph unicode="." horiz-adv-x="561" d="M-10 150l22 124q17 96 60 132t137 36h119q96 0 126 -37t13 -131l-23 -124q-17 -94 -59.5 -130t-136.5 -36h-119q-96 0 -126 36t-13 130z" />
<glyph unicode="/" horiz-adv-x="1071" d="M-63 -47l782 1425q25 45 49.5 60.5t71.5 15.5h293q42 0 52 -19t-11 -57l-783 -1425q-25 -45 -49.5 -60.5t-71.5 -15.5h-293q-86 0 -40 76z" />
<glyph unicode="0" horiz-adv-x="1341" d="M98 549l72 407q44 253 226.5 391t471.5 138q282 0 416 -158q134 -162 88 -418l-72 -407q-44 -256 -223.5 -394.5t-466.5 -138.5q-284 0 -420 160q-138 159 -92 420zM565 496q-10 -55 19.5 -85t91.5 -30q128 0 149 115l82 462q8 56 -20 85.5t-88 29.5q-63 0 -104 -30 t-48 -85z" />
<glyph unicode="1" horiz-adv-x="929" d="M96 1051q-14 43 0.5 70t63.5 53l471 245q68 35 133 35h127q51 0 67.5 -19.5t8.5 -70.5l-226 -1274q-11 -51 -33 -70.5t-73 -19.5h-295q-51 0 -67.5 19.5t-6.5 70.5l133 752l-88 -45q-61 -28 -86.5 -20t-44.5 54z" />
<glyph unicode="2" horiz-adv-x="1271" d="M-33 90l35 199q29 119 81.5 194t143.5 131q67 40 105.5 59t120.5 52q4 2 12.5 5.5t11.5 4.5q27 13 68 29q28 10 69 27q94 42 113 59q83 65 88 131q15 92 -80 92q-44 0 -78.5 -26t-78.5 -93q-31 -50 -55.5 -61.5t-69.5 4.5l-256 102q-43 17 -51 42.5t16 72.5 q211 371 647 371q261 0 393 -135q132 -137 94 -349q-37 -212 -152 -328.5t-319 -174.5q-42 -12 -139 -35q-96 -23 -129 -35q-42 -16 -45 -33v-6h557q51 0 66.5 -19.5t7.5 -70.5l-37 -209q-7 -50 -31 -70t-76 -20h-958q-51 0 -66.5 19.5t-7.5 70.5z" />
<glyph unicode="3" horiz-adv-x="1294" d="M14 340q-15 86 78 117l264 88q51 17 72.5 4.5t32.5 -62.5q21 -118 139 -118t133 86q7 46 -12 65t-70 19h-90q-51 0 -67.5 19.5t-8.5 70.5l37 211q7 50 31 70t76 20h61q100 0 115 78q7 43 -12.5 60t-75.5 17q-65 0 -101.5 -20t-70.5 -80q-26 -50 -52 -62t-73 5l-232 88 q-45 17 -52.5 42t16.5 72q100 184 265 269.5t423 85.5q247 0 366 -125t84 -313q-34 -181 -211 -285q184 -114 144 -346q-77 -447 -639 -447q-497 0 -570 371z" />
<glyph unicode="4" horiz-adv-x="1370" d="M-12 362l28 164q12 64 28 96t58 74l723 695q39 37 70 50t84 13h250q51 0 67.5 -19.5t8.5 -70.5l-131 -743h92q50 0 65.5 -19.5t7.5 -71.5l-30 -168q-7 -51 -30.5 -70.5t-74.5 -19.5h-92l-33 -182q-11 -51 -33 -70.5t-73 -19.5h-273q-50 0 -65.5 19t-7.5 71l32 182h-596 q-51 0 -67 19.5t-8 70.5zM498 621h223l45 262z" />
<glyph unicode="5" horiz-adv-x="1277" d="M-6 307q-10 46 6.5 71t67.5 44l297 106q43 18 65.5 7t34.5 -58q12 -46 42 -67t91 -21q113 0 131 113q11 56 -14.5 81t-98.5 25h-426q-57 0 -74 25t1 80l172 616q20 72 55.5 99.5t110.5 27.5h780q51 0 66.5 -19.5t7.5 -70.5l-41 -229q-7 -50 -31 -70t-76 -20h-489l-21 -76 h97q141 0 242 -35.5t155.5 -101t74 -157.5t-2.5 -206q-40 -225 -209 -362q-175 -140 -441 -140q-259 0 -397.5 81t-175.5 257z" />
<glyph unicode="6" horiz-adv-x="1349" d="M104 553l70 397q92 535 707 535q241 0 372 -78.5t166 -247.5q7 -47 -9 -71.5t-67 -43.5l-247 -90q-48 -17 -66 4q-12 10 -41 58q-20 32 -53 44.5t-100 12.5q-89 0 -134.5 -33.5t-58.5 -111.5l-2 -13q65 9 168 9q309 0 431 -112.5t79 -358.5q-42 -236 -224 -360t-477 -124 q-298 0 -431 152.5t-83 431.5zM559 453q-6 -47 21.5 -70t105.5 -23q83 0 117.5 21t42.5 68q8 45 -20.5 64t-108.5 19q-85 0 -146 -12z" />
<glyph unicode="7" horiz-adv-x="1191" d="M131 90l619 954h-500q-50 0 -66 19.5t-8 71.5l41 229q7 51 30.5 70.5t74.5 19.5h962q51 0 67.5 -19.5t8.5 -70.5l-31 -174q-15 -70 -49 -125l-649 -985q-35 -51 -68 -65.5t-114 -14.5h-289q-88 0 -29 90z" />
<glyph unicode="8" horiz-adv-x="1345" d="M51 418q40 208 252 334q-125 98 -90 305q36 208 206 318t443 110q276 0 405.5 -115t92.5 -321q-30 -168 -176 -287q154 -121 114 -340q-83 -453 -702 -453q-312 0 -447.5 118t-97.5 331zM526 440q-8 -43 25.5 -65.5t105.5 -22.5q65 0 106.5 23t47.5 59q6 41 -27 58 q-35 18 -174 67q-75 -66 -84 -119zM688 1024q-9 -61 90 -94l35 -12q65 53 74 106q6 34 -16 53t-74 19q-94 0 -109 -72z" />
<glyph unicode="9" horiz-adv-x="1349" d="M25 295q-8 47 8 71.5t67 43.5l248 90q47 16 68 -2q9 -11 39 -60q20 -32 53 -44.5t100 -12.5q89 0 134.5 33.5t58.5 111.5l2 13q-65 -9 -168 -9q-309 0 -431 112.5t-79 358.5q42 236 223.5 360t476.5 124q298 0 431 -152.5t83 -431.5l-69 -397q-92 -535 -707 -535 q-241 0 -372 78.5t-166 247.5zM598 1006q-8 -45 20.5 -64.5t108.5 -19.5q83 0 145 12l13 67q6 47 -21.5 70t-105.5 23q-83 0 -117.5 -21t-42.5 -67z" />
<glyph unicode=":" horiz-adv-x="602" d="M14 150l23 124q17 96 59.5 132t136.5 36h119q96 0 126.5 -37t13.5 -131l-23 -124q-17 -94 -60 -130t-137 -36h-118q-97 0 -127 36t-13 130zM119 803l22 125q17 96 60 132t137 36h119q96 0 126 -37t13 -131l-23 -125q-17 -94 -59.5 -130t-136.5 -36h-119q-96 0 -126 36 t-13 130z" />
<glyph unicode=";" horiz-adv-x="610" d="M-96.5 -258q-10.5 12 0.5 49l153 516q19 62 48.5 88.5t84.5 26.5h244q123 0 64 -115l-242 -497q-24 -44 -53.5 -62t-79.5 -18h-168q-41 0 -51.5 12zM135 866l23 125q17 96 59.5 132t136.5 36h119q96 0 126 -37t13 -131l-22 -125q-17 -94 -60 -130t-137 -36h-119 q-96 0 -126 36t-13 130z" />
<glyph unicode="&#x3c;" horiz-adv-x="1032" d="M41 563l37 209q7 43 26 66t64 47l807 399q57 25 75 9.5t7 -76.5l-45 -256q-13 -71 -32.5 -97t-76.5 -51l-307 -135l-2 -6l258 -137q50 -25 60 -49.5t-1 -96.5l-49 -270q-18 -121 -104 -68l-666 402q-38 24 -48 45.5t-3 64.5z" />
<glyph unicode="=" horiz-adv-x="1236" d="M41 313l39 219q11 52 33.5 71.5t72.5 19.5h885q51 0 67.5 -20t6.5 -71l-39 -219q-7 -50 -31 -70t-76 -20h-884q-51 0 -66.5 19.5t-7.5 70.5zM127 805l39 219q11 51 33 70.5t73 19.5h885q51 0 67.5 -19.5t6.5 -70.5l-39 -219q-7 -51 -30.5 -70.5t-74.5 -19.5h-884 q-51 0 -67.5 19.5t-8.5 70.5z" />
<glyph unicode="&#x3e;" horiz-adv-x="1034" d="M10 119l53 291q12 70 31.5 94.5t77.5 50.5l307 133v6l-260 140q-46 26 -55.5 50t0.5 97l41 236q11 61 35 76.5t71 -9.5l664 -399q39 -23 49.5 -46t3.5 -67l-37 -209q-7 -42 -26 -63.5t-66 -46.5l-805 -402q-57 -25 -76 -9t-8 77z" />
<glyph unicode="?" horiz-adv-x="1239" d="M135.5 1104.5q-7.5 26.5 18.5 73.5q100 175 244.5 255t377.5 80q268 0 404 -116.5t104 -319.5q-16 -93 -70 -170.5t-114 -115.5q-59 -37 -142 -76q-92 -47 -114 -64q-65 -47 -74 -94q-9 -49 -31 -68q-21 -18 -69 -18h-246q-49 0 -64.5 18t-7.5 68q40 236 221 330 q15 8 80 39t80 39q29 15 55 48.5t33 73.5q15 80 -78 80q-68 0 -110 -27t-96 -112q-31 -51 -56 -62.5t-69 5.5l-226 90q-43 17 -50.5 43.5zM246 150l18 104q17 94 59 130t138 36h160q96 0 126 -36t13 -130l-19 -104q-17 -95 -58.5 -130.5t-137.5 -35.5h-160q-96 0 -126 36 t-13 130z" />
<glyph unicode="@" horiz-adv-x="1859" d="M98 524l27 152q64 372 328 592q260 217 682 217q423 0 616 -217q192 -216 127 -592l-27 -152q-38 -216 -168 -334q-132 -120 -299 -120q-111 0 -174 75q-161 -53 -368 -53q-406 0 -342 371l47 272q67 371 473 371q236 0 412 -72q41 -18 49.5 -38t-2.5 -64l-97 -547 q-9 -47 41 -47q101 0 131 182l29 160q95 543 -485 543q-280 0 -454.5 -142.5t-219.5 -400.5l-29 -160q-44 -255 80.5 -390.5t407.5 -135.5q218 0 452 39q54 10 67 -0.5t5 -55.5l-21 -116q-7 -44 -24 -60.5t-64 -27.5q-218 -43 -450 -43q-428 0 -621 211q-193 214 -129 583z M817 469q-11 -51 14.5 -73.5t92.5 -22.5l145 8l74 414q0 19 -13 22q-47 8 -126 8q-67 0 -99 -22t-43 -74z" />
<glyph unicode="A" d="M-98 22q-3 6 -2 14q0 20 18 52l684 1292q23 44 48 59t75 15h303q48 0 69.5 -15.5t28.5 -56.5l232 -1294q2 -12 2 -22q0 -66 -82 -66h-279q-76 0 -105 21t-34 73l-10 105h-385l-47 -105q-24 -52 -59 -73t-105 -21h-295q-47 0 -57 22zM633 571h182l-16 164q-2 38 -2 79 q0 76 8 161l6 43h-20q-24 -150 -82 -281z" />
<glyph unicode="B" horiz-adv-x="1353" d="M-4 90l225 1276q7 50 31 70t76 20h622q222 0 328 -107q82 -82 82 -213q0 -39 -8 -83q-19 -100 -66 -164.5t-141 -120.5l-2 -10q93 -44 131 -141q24 -61 25 -135q0 -44 -9 -93q-35 -189 -187 -289t-390 -100h-643q-50 0 -66 20q-10 13 -11 39q0 14 3 31zM520 365h164 q112 0 127 96q2 12 2 22q0 33 -17 49q-22 22 -79 21h-164zM616 920h123q106 0 121 86q2 12 2 21q0 31 -16 47q-22 20 -76 20h-123z" />
<glyph unicode="C" horiz-adv-x="1339" d="M96 586l60 340q47 271 240.5 415t508.5 144q458 0 529 -379q4 -18 4 -32q0 -24 -10 -40q-16 -26 -68 -43l-270 -92q-29 -8 -48 -8q-16 0 -26 5q-23 11 -33 60q-12 64 -44 90.5t-103 26.5q-102 0 -147 -40t-64 -140l-60 -332q-7 -36 -6 -65q-1 -50 19 -75q32 -40 135 -40 q127 0 192 117q30 50 55 62q10 5 24 5q20 0 46 -10l266 -102q47 -17 55 -43q2 -6 2 -14q0 -24 -20 -60q-200 -367 -686 -367q-310 0 -454 170q-109 129 -109 315q0 63 12 132z" />
<glyph unicode="D" horiz-adv-x="1392" d="M-4 90l225 1274q7 51 30.5 70.5t74.5 19.5h518q307 0 450 -174q106 -129 106 -315q0 -67 -14 -142l-47 -264q-47 -274 -239.5 -416.5t-511.5 -142.5h-518q-50 0 -66 20q-10 13 -11 39q0 14 3 31zM528 412h109q109 0 163.5 46t73.5 150l41 240q6 33 6 61q1 55 -25 87 q-38 48 -148 48h-109z" />
<glyph unicode="E" horiz-adv-x="1212" d="M-4 90l225 1274q7 51 30.5 70.5t74.5 19.5h893q51 0 67 -20q11 -14 11 -40q0 -14 -3 -30l-41 -229q-7 -51 -31 -71t-75 -20h-508l-18 -106h393q51 0 67 -20q10 -12 10 -35q0 -15 -4 -35l-40 -230q-7 -51 -30.5 -70.5t-74.5 -19.5h-393l-21 -116h523q51 0 67 -20 q10 -12 10 -35q0 -15 -4 -35l-41 -232q-11 -51 -33 -70.5t-73 -19.5h-907q-50 0 -66 20q-10 13 -11 39q0 14 3 31z" />
<glyph unicode="F" horiz-adv-x="1198" d="M-4 90l225 1274q7 51 30.5 70.5t74.5 19.5h893q51 0 67 -20q11 -14 11 -40q0 -14 -3 -30l-41 -229q-7 -51 -31 -71t-75 -20h-508l-33 -186h393q51 0 67 -20q10 -13 10 -39q0 -14 -3 -31l-39 -229q-11 -51 -33 -70.5t-73 -19.5h-393l-64 -359q-7 -51 -31 -70.5t-75 -19.5 h-295q-50 0 -66 20q-10 13 -11 39q0 14 3 31z" />
<glyph unicode="G" horiz-adv-x="1398" d="M98 598l58 328q47 274 238 416.5t507 142.5q467 0 537 -381q2 -14 2 -26q0 -27 -12 -46q-18 -26 -68 -43l-264 -76q-30 -8 -49 -8q-17 0 -27 5q-21 12 -31 61q-12 56 -46.5 79t-106.5 23q-102 0 -147 -40t-64 -140l-60 -332q-7 -36 -7 -65q0 -50 20 -75q32 -40 135 -40 q172 0 190 100v8h-145q-51 0 -68 20q-10 12 -10 37q0 15 4 34l31 178q7 51 31 70.5t75 19.5h537q51 0 68 -20q10 -12 10 -36q0 -15 -4 -34l-52 -293q-42 -231 -234.5 -363.5t-498.5 -132.5q-309 0 -452 174q-109 133 -109 322q0 63 12 133z" />
<glyph unicode="H" horiz-adv-x="1419" d="M0 90l225 1276q11 51 33.5 70.5t73.5 19.5h295q49 0 65 -19q10 -13 11 -39q0 -14 -3 -32l-75 -424h303l76 424q11 51 33 70.5t73 19.5h295q51 0 67 -20q10 -12 11 -36q0 -15 -4 -34l-226 -1276q-11 -51 -33 -70.5t-73 -19.5h-295q-52 0 -68 20q-10 12 -10 36q0 15 4 34 l78 442h-303l-78 -442q-11 -51 -33 -70.5t-73 -19.5h-295q-52 0 -68 20q-10 12 -10 36q0 15 4 34z" />
<glyph unicode="I" horiz-adv-x="638" d="M-4 82l227 1290q10 47 31 64.5t65 17.5h312q47 0 61 -18q9 -12 9 -35q0 -13 -3 -29l-227 -1290q-8 -45 -29 -63.5t-67 -18.5h-312q-45 0 -59 18q-10 12 -10 37q0 12 2 27z" />
<glyph unicode="J" horiz-adv-x="1200" d="M-41 332q-2 14 -2 26q0 28 12 46q17 25 68 42l254 86q33 12 55 12q12 0 22 -4q25 -10 35 -57q27 -104 119 -104q98 0 119 135l152 854q11 50 32.5 69t71.5 19h299q49 0 64 -19q11 -13 11 -39q0 -13 -3 -30l-156 -887q-47 -260 -207.5 -386t-447.5 -126q-427 0 -498 363z " />
<glyph unicode="K" horiz-adv-x="1366" d="M-4 90l225 1274q7 51 30.5 70.5t74.5 19.5h295q51 0 67 -20q11 -14 11 -40q0 -14 -3 -30l-75 -426h22h14l306 434q38 54 67 68q25 14 111 14h293q50 0 60 -27q3 -7 3 -14q0 -23 -24 -57l-439 -623q35 -35 56 -96l184 -524q7 -22 7 -40q-1 -23 -13 -41q-22 -32 -76 -32 h-277q-87 0 -121.5 18.5t-54.5 77.5l-104 344q-27 86 -70 86h-18l-76 -436q-7 -51 -31 -70.5t-75 -19.5h-295q-50 0 -66 20q-10 13 -11 39q0 14 3 31z" />
<glyph unicode="L" horiz-adv-x="1126" d="M0 90l225 1274q7 51 30.5 70.5t74.5 19.5h295q51 0 67 -20q11 -14 11 -40q0 -14 -3 -30l-168 -952h457q51 0 67 -20q10 -13 10 -39q0 -14 -3 -31l-41 -232q-7 -50 -31 -70t-76 -20h-841q-52 0 -68 20q-10 12 -10 36q0 15 4 34z" />
<glyph unicode="M" horiz-adv-x="1705" d="M-2 86l225 1284q7 49 31 67.5t76 18.5h250q57 0 80.5 -12.5t33.5 -50.5l187 -652l413 650q26 41 51 53t80 12h265q51 0 66 -18q10 -12 10 -37q0 -14 -3 -31l-225 -1284q-7 -49 -30.5 -67.5t-75.5 -18.5h-291q-51 0 -67 18q-10 12 -10 38q0 13 3 30l20 127q23 124 66 256 q43 130 150 356h-21q-97 -179 -168 -299l-123 -202q-42 -60 -110 -60h-181q-42 0 -61.5 13.5t-30.5 46.5l-57 202l-55 299h-19q21 -302 21 -379v-12q-2 -71 -27 -223l-20 -125q-7 -49 -31 -67.5t-76 -18.5h-272q-50 0 -66 18q-10 12 -11 38q0 13 3 30z" />
<glyph unicode="N" horiz-adv-x="1439" d="M-4 90l225 1274q7 51 30.5 70.5t74.5 19.5h305q61 0 82 -41l188 -434q51 -117 107 -383h18q-34 273 -37 350v16q0 74 23 216l32 186q7 51 30.5 70.5t74.5 19.5h270q51 0 67 -20q11 -13 12 -40q0 -13 -3 -30l-225 -1274q-11 -51 -33.5 -70.5t-73.5 -19.5h-284 q-59 0 -80 43l-166 369q-45 96 -64 170q-18 72 -45 286h-16q7 -184 7 -277q0 -31 -1 -52q-2 -70 -35 -267l-33 -182q-7 -51 -31 -70.5t-75 -19.5h-270q-50 0 -66 20q-10 13 -11 39q0 14 3 31z" />
<glyph unicode="O" horiz-adv-x="1411" d="M96 584l58 327q47 277 240.5 425.5t506.5 148.5q311 0 455 -170q109 -127 109 -315q0 -64 -13 -136l-57 -327q-50 -276 -241.5 -422t-506.5 -146q-311 0 -454 168q-109 127 -109 314q0 63 12 133zM561 537q-3 -19 -3 -35q0 -121 155 -121q181 0 205 156l67 381q4 20 4 38 q-1 48 -29 77q-38 40 -124 40q-180 0 -207 -155z" />
<glyph unicode="P" horiz-adv-x="1341" d="M-4 90l225 1274q7 51 30.5 70.5t74.5 19.5h583q247 0 373 -156q90 -115 90 -281q0 -62 -12 -130q-42 -242 -205.5 -364t-425.5 -122h-203l-55 -311q-7 -51 -31 -70.5t-75 -19.5h-295q-50 0 -66 20q-10 13 -11 39q0 14 3 31zM598 811h141q6 -1 12 -1q65 0 103 61 q26 40 26 80q0 16 -4 32q-16 60 -83 61q-6 1 -13 0h-141z" />
<glyph unicode="Q" horiz-adv-x="1435" d="M96 584l58 327q47 277 240.5 425.5t506.5 148.5q311 0 455 -170q109 -127 109 -315q0 -65 -13 -136l-57 -327q-35 -196 -144 -326l80 -119q20 -31 20 -53q0 -6 -1 -12q-7 -26 -52 -62l-217 -149q-39 -30 -66 -30h-3q-29 2 -54 40l-106 162q-100 -19 -205 -19 q-311 0 -454 168q-109 127 -109 314q0 63 12 133zM561 537q-3 -19 -3 -35q0 -121 155 -121q181 0 205 156l67 381q4 20 4 38q0 48 -29 77q-38 40 -124 40q-180 0 -207 -155z" />
<glyph unicode="R" horiz-adv-x="1363" d="M-4 90l225 1274q7 51 30.5 70.5t74.5 19.5h600q246 0 366 -141q89 -104 89 -267q0 -57 -11 -120q-50 -277 -278 -410q31 -53 49 -104l104 -299q7 -22 7 -40q0 -23 -12 -41q-22 -32 -77 -32h-276q-81 0 -124.5 27.5t-60.5 89.5l-69 245q-7 25 -12 36t-14.5 24.5t-24 19.5 t-37.5 9h-10l-64 -361q-7 -51 -31 -70.5t-75 -19.5h-295q-50 0 -66 20q-10 13 -11 39q0 14 3 31zM602 836h158q47 0 80 30t41 78q4 15 4 27q0 27 -16 45q-23 28 -72 28h-158z" />
<glyph unicode="S" horiz-adv-x="1329" d="M-16 274q-3 15 -3 28q0 28 12 46q17 26 68 43l250 84q34 14 58 14q11 0 20 -3q29 -9 47 -52q30 -74 185 -74q172 0 184 72q1 5 1 10q0 32 -36 47q-41 18 -154 37q-263 46 -378 144q-118 104 -118 281q0 50 9 106q37 207 215.5 317.5t474.5 110.5q225 0 349.5 -71 t174.5 -222q7 -24 7 -41t-6 -28q-12 -22 -64 -42l-246 -96q-31 -12 -51 -12q-10 0 -17 3q-21 9 -38 54q-28 78 -162 78q-150 0 -162 -72q-1 -5 -1 -9q0 -35 41 -53q46 -20 175 -38q476 -72 476 -422q0 -53 -11 -113q-76 -432 -713 -432q-235 0 -395 78q-165 77 -192 227z " />
<glyph unicode="T" horiz-adv-x="1273" d="M119 1135l41 229q7 51 30 70.5t74 19.5h1053q51 0 67 -20q11 -13 11 -40q0 -13 -2 -30l-41 -229q-7 -51 -31.5 -71t-75.5 -20h-289l-168 -954q-11 -51 -33 -70.5t-73 -19.5h-295q-51 0 -67 20q-10 12 -11 36q0 15 4 34l168 954h-288q-50 0 -66 20q-11 13 -11 40 q0 14 3 31z" />
<glyph unicode="U" horiz-adv-x="1421" d="M113 594l137 770q11 52 32.5 71t71.5 19h295q51 0 67 -20q11 -13 12 -40q0 -13 -3 -30l-150 -838q-4 -20 -4 -38q0 -109 146 -109q163 0 190 147l150 838q7 51 30 70.5t74 19.5h295q52 0 68 -20q11 -13 11 -40q0 -13 -3 -30l-150 -844q-47 -270 -232 -410.5t-497 -140.5 q-308 0 -448 174q-105 131 -105 316q0 64 13 135z" />
<glyph unicode="V" d="M147 1366q-2 12 -2 23q0 65 80 65h301q77 0 107.5 -21t32.5 -73l41 -641q2 -35 2 -73q0 -76 -9 -167l-4 -43h21q27 150 82 281l268 643q24 52 59 73t105 21h313q60 0 60 -37q0 -20 -17 -51l-663 -1292q-25 -44 -50 -59t-75 -15h-344q-48 0 -70 15.5t-29 56.5z" />
<glyph unicode="W" horiz-adv-x="1955" d="M145 1368q-1 12 -1 22q0 31 12 45q16 19 61 19h307q61 0 84.5 -16t24.5 -62l-19 -446q-6 -187 -47 -408h17q47 246 108 408l170 446q17 46 45.5 62t85.5 16h283q58 0 81.5 -16t24.5 -62l13 -446v-22q0 -138 -33 -386h16q58 271 99 408l139 446q17 47 44.5 62.5t88.5 15.5 h283q46 0 55 -21q3 -6 3 -15q0 -20 -15 -50l-537 -1292q-18 -44 -45.5 -60t-77.5 -16h-328q-51 0 -74 16t-24 56l-4 299v30q0 199 37 422h-18q-48 -221 -132 -454l-106 -293q-20 -43 -48 -59.5t-77 -16.5h-319q-52 0 -75 15.5t-24 56.5z" />
<glyph unicode="X" horiz-adv-x="1380" d="M-106 24q-1 5 -1 10q0 22 27 56l529 651l-283 629q-18 35 -1.5 59.5t58.5 24.5h301q87 0 117 -13.5t47 -60.5l96 -256l183 256q35 53 67 64q33 10 109 10h327q42 0 50 -24q2 -5 1 -11q0 -21 -24 -49l-508 -629l305 -651q11 -20 11 -36q-1 -16 -9 -28q-18 -26 -63 -26 h-328q-86 0 -114 13.5t-48 66.5l-96 268l-192 -268q-34 -49 -68 -64q-37 -16 -123 -16h-315q-47 0 -55 24z" />
<glyph unicode="Y" horiz-adv-x="1415" d="M154 1428q15 26 61 26h289q89 0 117.5 -12.5t46.5 -65.5l118 -362l258 362q40 55 70 66q34 12 117 12h295q46 0 53 -26q1 -5 1 -10q0 -23 -24 -54l-606 -803l-82 -471q-11 -51 -33 -70.5t-73 -19.5h-295q-51 0 -67 20q-11 12 -11 36q0 15 4 34l82 467l-319 807 q-10 20 -10 37q0 15 8 27z" />
<glyph unicode="Z" horiz-adv-x="1267" d="M-45 90l22 129q8 49 46 90l636 735h-436q-51 0 -67 20q-10 12 -10 36q0 15 4 35l40 229q7 51 30.5 70.5t74.5 19.5h985q52 0 68 -20q11 -13 11 -40q0 -13 -3 -30l-23 -127q-8 -49 -45 -92l-641 -733h461q52 0 68 -20q10 -12 9 -36q0 -15 -3 -34l-41 -232 q-11 -51 -33.5 -70.5t-73.5 -19.5h-1005q-51 0 -67 20q-10 13 -10 39q0 14 3 31z" />
<glyph unicode="[" horiz-adv-x="778" d="M-51 -221l334 1892q11 52 28.5 67t67.5 15h504q51 0 62 -13.5t3 -64.5l-28 -168q-7 -50 -25 -63.5t-70 -13.5h-151l-248 -1405h152q51 0 62.5 -13.5t4.5 -64.5l-31 -170q-7 -50 -24.5 -64t-69.5 -14h-504q-51 0 -63 14.5t-4 65.5z" />
<glyph unicode="\" horiz-adv-x="1050" d="M182 1380q-8 39 8 56.5t58 17.5h274q47 0 68 -15.5t28 -58.5l283 -1427q18 -76 -65 -76h-275q-48 0 -68.5 16t-27.5 60z" />
<glyph unicode="]" horiz-adv-x="778" d="M-115 -223l31 170q7 51 24 64.5t68 13.5h152l248 1405h-152q-51 0 -62 13t-4 64l29 168q7 50 24.5 64t69.5 14h504q51 0 63.5 -15.5t4.5 -66.5l-334 -1892q-7 -50 -25.5 -65t-70.5 -15h-504q-51 0 -62.5 13.5t-3.5 64.5z" />
<glyph unicode="^" horiz-adv-x="1374" d="M136.5 1091q-7.5 26 37.5 70l455 426q48 44 80 58t86 14h168q58 0 81.5 -13t57.5 -59l305 -426q59 -96 -61 -96h-279q-76 0 -108 14t-58 60l-88 151h-4l-147 -151q-43 -46 -82.5 -60t-116.5 -14h-260q-59 0 -66.5 26z" />
<glyph unicode="_" horiz-adv-x="1054" d="M-135 -309l37 219q11 51 33 70.5t73 19.5h840q51 0 66.5 -19.5t7.5 -70.5l-37 -219q-11 -51 -33.5 -70.5t-73.5 -19.5h-839q-51 0 -67.5 19.5t-6.5 70.5z" />
<glyph unicode="`" horiz-adv-x="526" d="M205 1280q-63 21 4 82l166 141q62 53 135 4l252 -174q43 -31 -10 -78l-90 -84q-30 -30 -99 -8z" />
<glyph unicode="a" horiz-adv-x="1124" d="M53 459l33 188q41 231 187 340t409 109q258 0 408 -72q50 -26 60 -48q5 -12 6 -32q0 -19 -5 -45l-137 -776q-8 -44 -30 -66t-71 -34q-211 -54 -467 -54q-232 0 -332 130q-71 93 -72 238q0 57 11 122zM494 406q-1 -7 -1 -13q0 -43 54 -43l59 4l60 342q3 10 -7 13 q-20 4 -41 4q-69 0 -81 -62z" />
<glyph unicode="b" horiz-adv-x="1128" d="M-2 166l223 1266q10 47 30.5 64t65.5 17h287q48 0 62 -18q9 -12 9 -34q0 -13 -3 -29l-60 -340q78 4 90 4q234 0 334 -128q72 -92 73 -236q0 -56 -11 -120l-33 -188q-41 -233 -188 -344t-410 -111q-258 0 -408 72q-51 27 -61 49q-5 12 -5 31t5 45zM485 367q-2 -5 2 -9 q12 -6 43 -6q70 0 82 62l43 245q1 7 1 13q0 43 -54 43l-57 -8z" />
<glyph unicode="c" horiz-adv-x="1064" d="M53 457l33 190q80 449 596 449q183 0 287.5 -79.5t128.5 -219.5q2 -14 2 -26q0 -27 -12 -45q-16 -24 -66 -42l-242 -78q-31 -9 -51 -9q-13 1 -23 5q-20 12 -32 60q-7 39 -23 52t-47 13q-54 0 -69 -74l-41 -241q-2 -13 -3 -24q0 -48 44 -48q31 0 48.5 11.5t39.5 51.5 q25 47 53 59q11 5 26 5q20 0 46 -10l243 -76q54 -18 54 -60q0 -25 -19 -59q-176 -293 -555 -293q-249 0 -353 128q-76 93 -76 241q0 56 11 119z" />
<glyph unicode="d" horiz-adv-x="1126" d="M57 473l33 189q41 226 177 330t380 104q12 0 46 -1t42 -1l62 340q8 45 29 63.5t67 18.5h287q46 0 60 -18q10 -12 9 -37q0 -12 -2 -27l-225 -1268q-7 -53 -27.5 -75t-81.5 -46q-201 -76 -450 -76q-240 0 -344 136q-74 97 -74 242q0 59 12 126zM496 408q-1 -7 -1 -13 q0 -43 54 -43l51 4q5 3 8 11l60 342q-21 6 -47 6q-70 0 -82 -62z" />
<glyph unicode="e" horiz-adv-x="1120" d="M51 455l35 198q37 210 193.5 326.5t406.5 116.5q247 0 368 -94q104 -80 104 -227q0 -24 -3 -50q-17 -138 -130.5 -221.5t-289.5 -83.5q-158 0 -237 8l-6 -35q-3 -17 -3 -32q0 -70 72 -70q33 0 64.5 11.5t44.5 23.5q2 2 13 12t19 18q26 31 62 31q24 0 53 -14l172 -80 q42 -19 48 -44q1 -4 1 -9q0 -24 -24 -64q-148 -207 -508 -207q-266 -1 -380 129q-85 97 -85 248q0 51 10 109zM543 690q66 -4 86 -4q77 0 86 57q4 29 -13.5 43.5t-56.5 14.5q-80 0 -98 -90z" />
<glyph unicode="f" horiz-adv-x="808" d="M74 82l112 637h-45q-45 0 -59 17q-10 12 -10 38q0 12 2 27l32 182q8 45 29 63.5t68 18.5h45v4q42 238 180 342.5t383 104.5h61q48 0 63 -18q9 -12 9 -33q0 -14 -4 -33l-31 -179q-7 -47 -29 -65.5t-69 -18.5q-96 0 -111 -96l-2 -8h97q45 0 59 -17q10 -12 10 -38 q0 -12 -2 -27l-33 -182q-8 -45 -29 -63.5t-67 -18.5h-96l-113 -637q-8 -45 -29.5 -63.5t-68.5 -18.5h-283q-47 0 -61 18q-10 11 -10 37q0 12 2 27z" />
<glyph unicode="g" horiz-adv-x="1128" d="M-33 -252q-9 19 -9 36q0 49 75 81l229 102q28 14 50 14q32 0 50 -30q7 -15 12.5 -24t16 -21.5t25 -18.5t33.5 -6q66 0 81 78l13 74q-78 -4 -90 -4q-234 0 -335 127q-72 91 -72 236q0 56 11 120l25 137q41 231 186 339t410 108q257 0 407 -72q50 -25 61 -48q6 -11 6 -32 q0 -19 -5 -45l-160 -905q-82 -475 -588 -475q-328 0 -432 229zM500 465q-1 -7 -1 -13q0 -42 54 -42l57 8l49 282q1 4 0 6.5t-12 4.5t-33 2q-70 0 -82 -62z" />
<glyph unicode="h" horiz-adv-x="1144" d="M-18 82l239 1352q8 45 29 63.5t67 18.5h287q45 0 60 -18q10 -12 10 -37q0 -12 -2 -27l-62 -340q18 2 90 2q239 0 339 -118q72 -85 72 -224q0 -54 -11 -117l-99 -555q-8 -45 -29 -63.5t-67 -18.5h-287q-46 0 -60 18q-10 12 -9 37q0 12 2 27l94 534q8 43 -5 59.5t-54 16.5 q-35 0 -45 -2l-109 -608q-8 -45 -29 -63.5t-67 -18.5h-287q-45 0 -59 18q-10 12 -10 37q0 12 2 27z" />
<glyph unicode="i" horiz-adv-x="585" d="M-18 82l159 901q8 45 29 63.5t68 18.5h286q45 1 60 -17q10 -12 10 -38q0 -12 -2 -27l-160 -901q-8 -45 -29 -63.5t-67 -18.5h-287q-45 0 -59 18q-10 12 -10 37q0 12 2 27zM184 1305l4 22q17 91 56.5 124.5t130.5 33.5h160q91 1 119 -33q17 -21 17 -64q0 -26 -7 -61 l-5 -22q-17 -91 -55.5 -124.5t-128.5 -33.5h-160q-91 0 -119 34q-18 21 -18 65q0 25 6 59z" />
<glyph unicode="j" horiz-adv-x="587" d="M-281 -387l39 219q7 47 29.5 65.5t69.5 18.5q95 0 110 96l172 971q7 47 29 64.5t70 17.5h282q47 0 62 -17q10 -12 10 -38q0 -12 -2 -27l-178 -1008q-42 -238 -192 -342t-431 -104q-47 0 -63 19q-10 12 -10 36q0 13 3 29zM182 1305l4 22q17 91 56.5 124.5t130.5 33.5h159 q91 0 119 -34q17 -21 17 -64q0 -26 -6 -60l-5 -22q-17 -91 -55.5 -124.5t-128.5 -33.5h-160q-91 0 -119 34q-18 21 -18 65q0 25 6 59z" />
<glyph unicode="k" horiz-adv-x="1165" d="M-18 82l239 1352q7 47 28 64.5t66 17.5h289q44 0 59 -18q10 -12 10 -36q0 -12 -3 -28l-127 -719h22h10l160 264q31 51 64.5 68.5t101.5 17.5h225q81 0 81 -46q0 -25 -25 -65l-264 -417l14 -39l117 -383q9 -26 9 -47q0 -68 -106 -68h-233q-79 0 -110 17t-38 67l-34 242 q-6 43 -50 43h-6l-51 -287q-8 -45 -29 -63.5t-65 -18.5h-289q-44 0 -58 18q-9 12 -9 36q0 12 2 28z" />
<glyph unicode="l" horiz-adv-x="587" d="M-18 82l239 1352q8 45 29 63.5t67 18.5h287q45 0 60 -18q10 -12 10 -37q0 -12 -2 -27l-240 -1352q-8 -45 -29 -63.5t-67 -18.5h-287q-45 0 -59 18q-10 12 -10 37q0 12 2 27z" />
<glyph unicode="m" horiz-adv-x="1646" d="M-23 82l144 807q11 56 32.5 81.5t77.5 45.5q213 80 449 80q153 0 244 -49q146 49 293 49q233 0 327 -118q67 -83 66 -219q0 -56 -11 -122l-98 -555q-8 -45 -29 -63.5t-67 -18.5h-287q-46 0 -60 18q-10 12 -9 37q0 12 2 27l96 543q6 38 -3.5 52.5t-41.5 14.5q-23 0 -31 -2 q-5 -41 -10 -63l-96 -545q-8 -45 -29 -63.5t-68 -18.5h-286q-45 0 -60 18q-10 12 -10 37q0 12 2 27l96 543q6 38 -3.5 52.5t-41.5 14.5h-20q-10 0 -10 -12l-107 -598q-8 -45 -29 -63.5t-67 -18.5h-287q-45 0 -60 18q-10 12 -10 37q0 12 2 27z" />
<glyph unicode="n" horiz-adv-x="1140" d="M-23 82l144 807q11 56 32.5 81.5t77.5 45.5q213 80 465 80q239 0 339 -118q72 -85 72 -224q0 -54 -11 -117l-99 -555q-8 -45 -29 -63.5t-67 -18.5h-287q-46 0 -60 18q-10 12 -9 37q0 12 2 27l94 534q8 43 -5 59.5t-54 16.5q-31 0 -39 -2q-8 -3 -8 -8l-107 -600 q-8 -45 -29 -63.5t-67 -18.5h-287q-45 0 -60 18q-10 12 -10 37q0 12 2 27z" />
<glyph unicode="o" horiz-adv-x="1134" d="M49 453l33 196q38 217 192.5 332t411.5 115q253 0 367 -128q86 -96 86 -248q0 -49 -9 -104l-32 -196q-38 -218 -194.5 -334.5t-414.5 -116.5q-249 0 -363 130q-86 98 -86 250q0 49 9 104zM489 416q-2 -9 -2 -16q0 -50 68 -50q80 0 92 66l41 233q2 9 2 17q0 51 -69 51 q-79 0 -91 -68z" />
<glyph unicode="p" horiz-adv-x="1126" d="M-102 -367l223 1266q7 53 27 75t81 46q201 76 451 76q242 0 346 -128q75 -92 75 -237q0 -55 -11 -117l-33 -188q-82 -457 -561 -457q-12 0 -46 1t-42 1l-60 -338q-10 -47 -31 -64.5t-65 -17.5h-287q-46 0 -61 19q-9 11 -9 34q0 13 3 29zM475 356q21 -6 47 -6q70 0 82 62 l43 245q1 7 1 13q0 43 -54 43l-49 -6q-7 -2 -10 -11z" />
<glyph unicode="q" horiz-adv-x="1130" d="M53 451l33 188q41 233 188 345t410 112q258 0 408 -72q50 -26 60 -48q6 -12 6 -32q0 -19 -5 -45l-223 -1266q-10 -47 -31 -64.5t-65 -17.5h-287q-46 0 -61 19q-10 12 -10 35q0 12 3 28l60 340q-78 -4 -90 -4q-235 0 -335 127q-72 92 -72 235q0 56 11 120zM496 406 q-1 -7 -1 -13q0 -43 54 -43l57 8l60 338q3 10 -7 13q-20 4 -38 4q-70 0 -82 -62z" />
<glyph unicode="r" horiz-adv-x="749" d="M-20 82l145 817q11 56 33 82.5t78 46.5q160 59 446 68h61q46 0 61 -18q10 -12 10 -36q0 -12 -3 -28l-37 -219q-10 -47 -31 -64.5t-65 -17.5h-80q-37 0 -47 -2q-9 0 -12 -13l-109 -616q-8 -45 -29 -63.5t-67 -18.5h-287q-45 0 -59 18q-10 12 -10 37q0 12 2 27z" />
<glyph unicode="s" horiz-adv-x="1073" d="M-16 213q-2 13 -2 24q0 65 73 87l211 71q50 10 71 10q6 -1 9 -1q17 -4 31 -29q29 -51 115 -51q71 0 97.5 10t31.5 35q5 30 -23.5 39.5t-142.5 13.5q-216 6 -308 92q-70 65 -70 176q0 35 7 74q59 332 530 332q191 0 293 -54t148 -165q9 -19 9 -35q0 -49 -75 -82l-188 -82 q-23 -11 -39 -14.5t-26.5 0t-15.5 8t-13 15t-13 15.5q-42 39 -112 39q-66 0 -87 -7.5t-26 -31.5q-2 -6 -1.5 -11.5t4.5 -9.5t13 -7.5t24.5 -6.5t37.5 -5.5t53 -4.5q258 -18 350 -97q70 -60 69 -165q0 -34 -7 -73q-29 -170 -174.5 -261.5t-386.5 -91.5q-414 0 -467 244z" />
<glyph unicode="t" horiz-adv-x="819" d="M49 801l33 182q7 47 28 64.5t66 17.5h70l28 164q8 45 29 63.5t68 18.5h286q45 1 60 -17q10 -12 10 -38q0 -12 -2 -27l-29 -164h99q45 -1 59 -19q9 -12 9 -34q0 -13 -3 -29l-33 -182q-8 -45 -29 -63.5t-65 -18.5h-98l-47 -262q-2 -13 -2 -25q0 -72 80 -72q47 0 62 -18 q10 -12 10 -36q0 -13 -3 -30l-39 -219q-7 -47 -29 -65.5t-69 -18.5q-280 1 -394 105q-83 77 -84 225q0 54 11 117l53 299h-69q-45 -1 -59 17q-9 12 -9 37q0 12 2 28z" />
<glyph unicode="u" horiz-adv-x="1140" d="M66 451l94 532q8 45 29 63.5t67 18.5h287q45 1 59 -17q10 -12 10 -38q0 -12 -2 -27l-94 -534q-8 -43 5 -59.5t54 -16.5q23 0 33 2q14 3 17 16l104 592q8 45 29 63.5t67 18.5h287q45 1 60 -17q10 -12 10 -38q0 -12 -2 -27l-144 -807q-11 -56 -32.5 -81.5t-77.5 -45.5 q-213 -80 -465 -80q-235 -1 -335 127q-71 92 -71 235q0 56 11 120z" />
<glyph unicode="v" horiz-adv-x="1159" d="M90 971q-2 17 -2 30q0 31 12 45q17 18 74 19h260q64 0 87 -16t24 -66l18 -313v-25q0 -90 -18 -207l-8 -47h20q28 166 72 279l123 311q20 55 43 69.5t88 14.5h286q59 -1 69 -19q3 -5 3 -12q0 -21 -20 -63l-463 -899q-41 -72 -123 -72h-322q-47 0 -68 15.5t-32 56.5z" />
<glyph unicode="w" horiz-adv-x="1634" d="M84 971q-2 16 -2 29q0 32 12 46q17 20 74 19h258q72 1 94 -15q20 -14 19 -59v-8l-9 -195q-3 -47 -12 -137q-4 -43 -20 -155l-11 -64h19q57 262 90 356l66 193q13 53 42.5 68.5t106.5 15.5h186q74 0 97 -15.5t22 -66.5l-2 -195q0 -39 -10 -137q-7 -69 -19 -155l-10 -64h21 q49 240 84 356l59 193q17 54 42.5 69t100.5 15h254q58 1 68 -19q3 -6 3 -15q0 -21 -19 -60l-377 -899q-35 -72 -123 -72h-291q-100 0 -100 72v145q0 135 16 283l6 53h-18q-54 -207 -105 -336l-57 -145q-28 -72 -123 -72h-262q-94 0 -100 72z" />
<glyph unicode="x" horiz-adv-x="1179" d="M-98 23q-2 4 -1 9q0 23 36 64l370 451l-201 422q-13 26 -13 45q0 51 93 51h256q71 0 99 -13.5t41 -56.5l53 -164l108 164q30 46 57.5 58t96.5 12h279q71 0 71 -34q0 -23 -33 -62l-344 -420l207 -453q15 -30 15 -51q0 -15 -7 -23q-17 -22 -84 -22h-264q-74 0 -98 12 t-37 58l-61 200l-129 -200q-28 -46 -58 -58t-102 -12h-270q-70 0 -80 23z" />
<glyph unicode="y" horiz-adv-x="1144" d="M-16 -252q-9 19 -9 36q0 49 74 81l227 102q24 12 41.5 15t29.5 -3.5t18 -13.5t16 -22q13 -22 19.5 -31.5t22.5 -18.5t40 -12q67 0 82 78l12 74q-18 -2 -90 -2q-234 0 -335 131q-70 92 -70 233q0 59 12 127l82 461q8 45 29 63.5t67 18.5h287q45 0 59 -17q10 -12 10 -38 q0 -12 -2 -27l-84 -473q-7 -42 6.5 -59t55.5 -17q35 0 45 2l96 547q8 45 29 63.5t67 18.5h287q45 0 60 -17q10 -12 10 -38q0 -12 -2 -27l-175 -983q-83 -471 -598 -471q-172 0 -270 51.5t-149 167.5z" />
<glyph unicode="z" horiz-adv-x="1028" d="M-43 82l35 197q6 34 14.5 47.5t36.5 38.5l383 327h-268q-44 0 -59 18q-10 12 -10 35q0 12 3 27l37 211q7 47 28 64.5t66 17.5h758q44 -1 59 -19q10 -12 10 -35q0 -12 -3 -28l-35 -197q-9 -53 -70 -102l-393 -311h319q44 0 60 -18q11 -12 10 -37q0 -11 -2 -25l-37 -211 q-8 -45 -29 -63.5t-67 -18.5h-778q-45 0 -60 18q-10 12 -10 37q0 12 2 27z" />
<glyph unicode="{" horiz-adv-x="907" d="M8 592l45 254q8 43 27 62.5t55 19.5h12q137 0 164 178l62 342q30 163 115 234t260 71h264q44 0 58.5 -18t6.5 -62l-39 -219q-7 -44 -28.5 -62t-65.5 -18h-100q-23 0 -40.5 -14t-21.5 -37l-55 -313q-35 -192 -213 -289q151 -68 111 -291l-54 -301q-4 -22 9 -36.5t34 -14.5 h103q44 0 58.5 -18t6.5 -62l-39 -219q-7 -44 -28.5 -62t-65.5 -18h-258q-179 0 -241 70.5t-33 232.5l59 332q30 178 -102 178h-13q-68 0 -53 80z" />
<glyph unicode="|" horiz-adv-x="612" d="M-51 -221l334 1894q7 44 29 62t67 18h274q44 0 59 -18t7 -62l-334 -1894q-7 -44 -28.5 -62t-65.5 -18h-275q-44 0 -59 18t-8 62z" />
<glyph unicode="}" horiz-adv-x="907" d="M-109 -221l39 219q7 44 29 62t66 18h102q23 0 40 15t19 36l54 301q40 225 213 291q-145 103 -111 289l55 313q5 20 -8.5 35.5t-36.5 15.5h-100q-44 0 -59 18t-7 62l39 219q7 44 28.5 62t65.5 18h265q175 0 236.5 -71t31.5 -234l-61 -342q-27 -178 102 -178h12 q36 0 48.5 -19.5t4.5 -62.5l-45 -254q-15 -80 -82 -80h-12q-134 0 -164 -178l-59 -332q-30 -163 -116.5 -233t-264.5 -70h-258q-44 0 -59 18t-7 62z" />
<glyph unicode="~" horiz-adv-x="1191" d="M141 647q-58 64 23 127q139 109 299 109q94 0 192 -37q93 -37 146 -37q63 0 127 43q43 30 63 29.5t51 -33.5l140 -154q58 -64 -23 -127q-138 -108 -299 -108q-97 0 -190 37q-98 34 -148 34q-68 0 -127 -41q-45 -30 -64 -29t-50 34z" />
<glyph unicode="&#xa1;" horiz-adv-x="606" d="M-96 -371l188 854q11 47 30.5 64.5t63.5 17.5h228q44 0 57.5 -17.5t7.5 -64.5l-117 -854q-6 -45 -26.5 -62.5t-67.5 -17.5h-295q-47 0 -62 17.5t-7 62.5zM96 809l19 104q17 95 58.5 130.5t137.5 35.5h160q96 0 126 -36t13 -130l-18 -104q-17 -94 -59 -130t-138 -36h-159 q-97 0 -127 36t-13 130z" />
<glyph unicode="&#xa2;" horiz-adv-x="1130" d="M76 465l33 190q59 335 401 418l14 92q7 46 30 64t69 18h225q44 0 58 -17.5t7 -64.5l-16 -96q170 -52 211 -283q8 -48 -6.5 -70.5t-63.5 -35.5l-241 -76q-54 -16 -75 -4.5t-32 59.5q-7 40 -21.5 54t-41.5 14q-55 0 -70 -74l-41 -241q-12 -72 41 -72q31 0 48.5 11.5 t39.5 51.5q26 47 53.5 59t71.5 -5l244 -76q87 -28 35 -119q-125 -204 -340 -266l-15 -84q-10 -47 -31 -64.5t-65 -17.5h-225q-46 0 -61 18.5t-7 63.5l12 76q-152 38 -213 163.5t-28 313.5z" />
<glyph unicode="&#xa3;" horiz-adv-x="1409" d="M-25 90l37 209q9 75 56 84l14 4q75 18 96 86l4 14h-47q-51 0 -67.5 20t-6.5 71l25 145q11 51 33.5 70.5t73.5 19.5h57l37 213q34 208 207 334q171 125 436 125q434 0 516 -375q10 -47 -7 -72.5t-69 -42.5l-270 -94q-51 -16 -69 -5.5t-36 62.5q-18 65 -46.5 90t-76.5 25 q-97 0 -112 -92l-31 -168h299q51 0 67.5 -19.5t6.5 -70.5l-25 -145q-11 -52 -33.5 -71.5t-72.5 -19.5h-316v-6q-21 -75 -102 -123l4 -12q130 43 307 43h371q51 0 66.5 -19.5t7.5 -70.5l-37 -209q-11 -51 -33.5 -70.5t-73.5 -19.5h-1116q-51 0 -67.5 19.5t-6.5 70.5z" />
<glyph unicode="&#xa4;" horiz-adv-x="1361" d="M3 331.5q4 25.5 42 57.5l143 123q-15 89 0 178q15 91 64 178l-102 123q-26 32 -21.5 57.5t41.5 57.5l217 184q38 32 63.5 32t51.5 -32l100 -121q197 65 361 0l141 121q38 32 63.5 32t51.5 -32l151 -184q26 -32 22 -57.5t-42 -57.5l-140 -119q17 -80 2 -182 q-17 -91 -65 -182l98 -119q26 -32 21.5 -57.5t-41.5 -57.5l-217 -184q-38 -32 -63.5 -32t-51.5 32l-98 121q-193 -66 -361 0l-143 -121q-38 -32 -63.5 -32t-51.5 32l-151 184q-26 32 -22 57.5zM563 690q-8 -57 24 -96t89 -39q56 0 102 39t56 96q10 55 -22.5 94t-88.5 39 q-55 0 -101.5 -38.5t-58.5 -94.5z" />
<glyph unicode="&#xa5;" horiz-adv-x="1507" d="M190 289l21 119q7 44 28.5 61.5t65.5 17.5h213l10 60h-213q-44 0 -58.5 18t-6.5 62l20 118q7 44 29 62t66 18h96l-264 539q-21 37 -4.5 63.5t63.5 26.5h291q89 0 117.5 -12.5t46.5 -65.5l118 -362l258 362q40 55 70 66q35 12 117 12h293q47 0 55 -26.5t-25 -63.5 l-458 -539h96q44 0 58.5 -18t6.5 -62l-20 -118q-7 -44 -28.5 -62t-65.5 -18h-211l-10 -60h211q44 0 58.5 -17.5t6.5 -61.5l-20 -119q-7 -44 -29 -62t-66 -18h-196l-21 -119q-11 -51 -33 -70.5t-73 -19.5h-295q-51 0 -67.5 19.5t-6.5 70.5l21 119h-199q-44 0 -59 18t-7 62z " />
<glyph unicode="&#xa6;" horiz-adv-x="618" d="M-49 -219l137 770q7 44 28.5 62t65.5 18h275q44 0 59 -18t8 -62l-137 -770q-7 -44 -28.5 -62t-65.5 -18h-275q-44 0 -59 18t-8 62zM150 903l135 768q8 45 29 63.5t67 18.5h274q45 0 59 -17.5t7 -64.5l-135 -768q-8 -45 -27.5 -62.5t-66.5 -17.5h-275q-47 0 -61 17.5 t-6 62.5z" />
<glyph unicode="&#xa7;" horiz-adv-x="1296" d="M-57 -137q-15 84 84 121l202 75q54 17 74.5 6t38.5 -63q27 -96 180 -96q127 0 142 78q4 28 -19.5 44t-77.5 29q-25 6 -86 18q-83 15 -128.5 26t-120 42t-111 70.5t-59.5 109t-7 160.5q34 186 224 291q-121 89 -80 311q37 194 197.5 297t439.5 103q204 0 313 -72t154 -229 q13 -47 -1.5 -71.5t-70.5 -47.5l-187 -74q-49 -21 -73 -11.5t-41 58.5q-18 54 -54.5 72t-105.5 18q-99 0 -111 -69q-4 -29 25 -48.5t96 -37.5q4 -1 22 -6.5t32 -8.5q219 -54 299 -116q134 -105 100 -301q-30 -168 -172 -271q56 -43 78 -127.5t2 -189.5q-37 -197 -199 -300.5 t-444 -103.5q-236 0 -379.5 78.5t-175.5 235.5zM543 512q-9 -97 110 -121q28 -4 31 -4q65 62 68 127q9 88 -97 123l-32 8q-77 -65 -80 -133z" />
<glyph unicode="&#xa8;" horiz-adv-x="899" d="M201 1329l4 31q17 93 58 127.5t134 34.5h17q97 0 126.5 -35t12.5 -127l-4 -31q-17 -91 -60 -126.5t-137 -35.5h-16q-94 0 -123 35.5t-12 126.5zM655 1329l4 31q17 92 60 127t137 35h14q94 0 124.5 -35t13.5 -127l-4 -31q-17 -91 -59.5 -126.5t-135.5 -35.5h-14 q-94 0 -125.5 36t-14.5 126z" />
<glyph unicode="&#xa9;" horiz-adv-x="1570" d="M119 717q52 310 307 524q254 213 561 213q309 0 486 -213q173 -211 120 -524q-55 -310 -305 -522q-253 -215 -561 -215q-309 0 -485 215t-123 522zM328 717q-40 -224 86 -377q127 -154 350 -154q221 0 401 154q179 153 219 377q41 226 -86 377t-348 151q-223 0 -403 -151 q-178 -147 -219 -377zM510 623l35 198q25 142 125.5 221.5t257.5 79.5q119 0 188.5 -56.5t87.5 -158.5q7 -49 -3 -67.5t-52 -30.5l-115 -37q-41 -12 -55 -4t-21 49q-12 55 -75 55q-74 0 -86 -57l-35 -201q-9 -59 65 -59q61 0 95 57q23 41 40 49t52 -4l112 -41q36 -12 40 -30 t-19 -68q-108 -211 -363 -211q-154 0 -226.5 86t-47.5 230z" />
<glyph unicode="&#xaa;" horiz-adv-x="716" d="M115 924q18 99 95.5 143.5t250.5 44.5h12l6 37q6 29 -22 29q-22 0 -43 -21q-41 -35 -61 -38.5t-58 16.5l-80 43q-24 12 -32.5 24t-4 28t24.5 40q106 112 305 112q308 0 258 -264l-45 -264q-8 -44 -29.5 -66.5t-75.5 -39.5q-105 -31 -229 -31q-167 0 -229.5 52t-42.5 155z M397 928q-6 -31 21 -31h14q2 0 4 2l8 57h-16q-25 0 -31 -28z" />
<glyph unicode="&#xab;" horiz-adv-x="1366" d="M16 536.5q4 22.5 39 51.5l494 422q59 52 102 0l109 -133q40 -51 -19 -101l-274 -233l186 -226q42 -48 -16 -100l-162 -139q-57 -51 -100 0l-338 407q-25 29 -21 51.5zM589.5 536.5q4.5 22.5 39.5 51.5l493 422q59 53 103 0l108 -133q40 -52 -18 -101l-275 -233l187 -226 q42 -47 -17 -100l-161 -139q-58 -52 -101 0l-338 407q-25 29 -20.5 51.5z" />
<glyph unicode="&#xac;" horiz-adv-x="1230" d="M57 567l39 226q10 47 30 64t64 17h932q44 0 59 -18.5t7 -62.5l-82 -469q-8 -45 -29 -63.5t-65 -18.5h-287q-45 0 -59 17.5t-7 64.5l29 161h-565q-45 0 -59 17.5t-7 64.5z" />
<glyph unicode="&#xad;" horiz-adv-x="813" d="M47 432l39 219q7 50 31 70t76 20h491q51 0 66.5 -19.5t7.5 -70.5l-39 -219q-7 -51 -30.5 -70.5t-74.5 -19.5h-491q-51 0 -67.5 19.5t-8.5 70.5z" />
<glyph unicode="&#xae;" horiz-adv-x="927" d="M152 1057q26 172 167 297q139 121 318 121q169 0 274 -123q103 -124 76 -295q-27 -174 -166 -295q-138 -123 -315 -123q-172 0 -277 123q-105 119 -77 295zM276 1057q-21 -123 50 -209q70 -88 196 -88q120 0 221 88q102 85 123 209q21 126 -47 209q-71 86 -192 86 q-123 0 -226 -86q-104 -87 -125 -209zM383 901l53 307q4 23 13 30t30 7h156q67 0 101 -39t22 -102q-15 -82 -78 -115l33 -59q35 -62 -49 -62h-41q-27 0 -35.5 5t-18.5 28l-30 64h-13l-10 -64q-4 -20 -12 -26.5t-27 -6.5h-63q-23 0 -29 6.5t-2 26.5zM541 1075h53q24 0 33 27 q6 31 -21 31h-53z" />
<glyph unicode="&#xaf;" horiz-adv-x="720" d="M168 1280l18 104q7 43 27.5 59.5t62.5 16.5h519q46 0 58.5 -15.5t4.5 -60.5l-18 -104q-8 -45 -25.5 -60.5t-64.5 -15.5h-519q-44 0 -57.5 16t-5.5 60z" />
<glyph unicode="&#xb0;" horiz-adv-x="884" d="M145 1137q35 184 170 301q134 116 314 116q179 0 282 -118q106 -121 72 -299q-30 -173 -172 -297q-141 -123 -315 -123q-176 0 -279 121q-102 120 -72 299zM455 1134q-7 -45 18 -76.5t72 -31.5q73 0 113 67t-1 121q-26 34 -71.5 34t-83.5 -34q-40 -35 -47 -80z" />
<glyph unicode="&#xb1;" horiz-adv-x="1212" d="M4 158l39 221q7 50 31 70t76 20h884q51 0 67.5 -19.5t6.5 -70.5l-39 -221q-7 -51 -31 -70.5t-75 -19.5h-885q-51 0 -66.5 19.5t-7.5 70.5zM115 803l37 207q7 51 31 70.5t75 19.5h248l18 104q7 50 31 70t76 20h207q51 0 67 -19.5t6 -70.5l-18 -104h250q51 0 66.5 -19.5 t7.5 -70.5l-37 -207q-11 -52 -33 -71t-72 -19h-250l-20 -107q-7 -51 -30.5 -70.5t-74.5 -19.5h-206q-51 0 -67.5 19.5t-8.5 70.5l20 107h-248q-51 0 -67 19.5t-8 70.5z" />
<glyph unicode="&#xb2;" horiz-adv-x="776" d="M96 889l15 76q20 116 73.5 174t177.5 96l115 35q65 21 74 73q6 31 -21 36q-34 6 -68 -33q-5 -5 -9 -11q-33 -43 -49.5 -50t-61.5 3l-119 45q-38 14 -42.5 40.5t24.5 76.5q62 101 150 148t231 47q151 0 230.5 -71t62.5 -185q-30 -225 -224 -275l-80 -22q-30 -5 -34 -17v-2 h194q44 0 58 -15.5t6 -56.5l-21 -112q-6 -39 -23.5 -54.5t-58.5 -15.5h-538q-42 0 -55 15.5t-7 54.5z" />
<glyph unicode="&#xb3;" horiz-adv-x="792" d="M111 1014q-9 68 45 88l114 39q54 16 71.5 8.5t29.5 -47.5q15 -51 100 -51q63 0 66 30q5 24 -6.5 32.5t-47.5 8.5h-57q-29 0 -36.5 10.5t-2.5 41.5l25 131q5 30 17.5 41.5t43.5 11.5h41q59 0 68 39q4 19 -9.5 28t-44.5 9q-83 0 -125 -60q-43 -60 -102 -33l-90 45 q-47 27 -14 84q109 189 391 189q155 0 235 -68.5t60 -185.5q-15 -92 -107 -156q94 -55 70 -184q-43 -248 -387 -248q-324 0 -348 197z" />
<glyph unicode="&#xb4;" horiz-adv-x="526" d="M160 1255q-35 48 18 78l314 174q88 49 135 -4l112 -141q46 -61 -24 -82l-400 -117q-74 -21 -94 8z" />
<glyph unicode="&#xb5;" horiz-adv-x="1177" d="M-84 -369l240 1352q8 45 29 63.5t67 18.5h287q45 0 59.5 -17.5t7.5 -64.5l-94 -534q-8 -43 5 -59.5t54 -16.5q19 0 29 2q19 4 21 16l104 592q8 45 29 63.5t67 18.5h287q45 0 60 -17.5t8 -64.5l-144 -807q-9 -59 -78 -113q-59 -42 -152 -68t-175 -26q-104 0 -195 31 l-65 -369q-8 -45 -29 -63.5t-68 -18.5h-286q-45 0 -60 17.5t-8 64.5z" />
<glyph unicode="&#xb6;" horiz-adv-x="1529" d="M137 944q41 234 211 373q168 137 406 137h778q46 0 60.5 -18.5t6.5 -63.5l-258 -1472q-11 -48 -31 -65t-67 -17h-223q-45 0 -59 17.5t-7 64.5l201 1144h-92l-201 -1144q-11 -46 -31.5 -64t-66.5 -18h-223q-45 0 -59 17.5t-7 64.5l88 503q-228 3 -348 156 q-119 149 -78 385z" />
<glyph unicode="&#xb7;" horiz-adv-x="595" d="M82 596l22 125q17 96 60 132t137 36h119q96 0 126 -37t13 -131l-22 -125q-17 -94 -60 -130t-137 -36h-119q-96 0 -126 36t-13 130z" />
<glyph unicode="&#xb8;" horiz-adv-x="514" d="M-168 -416l16 94q15 82 91 37q54 -34 111.5 -32.5t64.5 41.5q5 23 -13 31.5t-73 8.5h-41q-56 0 -15 66l105 170h217l-47 -88h14q84 -1 120 -66.5t11 -158.5q-52 -199 -346 -199q-72 0 -162 33q-59 21 -53 63z" />
<glyph unicode="&#xb9;" horiz-adv-x="618" d="M176 1382q-27 68 47 107l252 131q48 25 103 25h71q65 0 84.5 -25t7.5 -86l-108 -616q-8 -45 -31 -63.5t-74 -18.5h-137q-50 0 -66 18.5t-8 63.5l64 362l-47 -25q-52 -24 -74.5 -17t-40.5 46z" />
<glyph unicode="&#xba;" horiz-adv-x="708" d="M135 1006l21 114q23 129 113.5 196.5t242.5 67.5q148 0 217.5 -78.5t44.5 -213.5l-20 -115q-20 -127 -112.5 -193.5t-246.5 -66.5q-146 0 -215.5 78.5t-44.5 210.5zM408 993q-6 -30 30 -30q37 0 43 30l21 115q2 14 -6.5 22.5t-26.5 8.5q-38 0 -41 -31z" />
<glyph unicode="&#xbb;" horiz-adv-x="1368" d="M63 217q-42 50 17 100l268 226l-192 233q-23 27 -19 49t37 52l154 133q58 56 102 0l346 -422q41 -56 -18 -103l-482 -407q-59 -53 -100 0zM637 217q-42 51 16 100l269 226l-193 233q-23 27 -18.5 49t37.5 52l153 133q59 56 103 0l346 -422q41 -56 -19 -103l-481 -407 q-59 -53 -100 0z" />
<glyph unicode="&#xbc;" horiz-adv-x="1941" d="M182 1202q-27 68 47 107l252 131q47 24 103 24h71q65 0 85 -24.5t8 -85.5l-109 -617q-8 -45 -31 -63.5t-73 -18.5h-138q-50 0 -65.5 18.5t-7.5 63.5l63 363l-47 -25q-52 -24 -74.5 -17t-40.5 46zM357 26q-13 26 16 64l950 1290q34 49 63 62q27 12 103 12h176 q48 0 59 -23.5t-16 -60.5l-948 -1290q-42 -54 -68 -66q-25 -14 -108 -14h-166q-48 0 -61 26zM1069 207l10 65q12 65 49 99l394 383q37 37 63 47t82 10h107q51 0 68 -19.5t7 -68.5l-61 -352h22q40 0 51.5 -13t6.5 -47l-21 -112q-6 -37 -21.5 -50.5t-56.5 -13.5h-22l-12 -61 q-12 -72 -78 -72h-162q-63 0 -51 72l12 61h-323q-42 0 -56 17t-8 55zM1403 371h94l19 110z" />
<glyph unicode="&#xbd;" horiz-adv-x="1945" d="M182 1202q-27 68 47 107l252 131q47 24 103 24h71q65 0 85 -24.5t8 -85.5l-109 -617q-8 -45 -31 -63.5t-73 -18.5h-138q-50 0 -65.5 18.5t-7.5 63.5l63 363l-47 -25q-52 -24 -74.5 -17t-40.5 46zM326 26q-13 26 16 64l950 1290q34 49 64 62q27 12 102 12h176 q48 0 59 -23.5t-16 -60.5l-948 -1290q-43 -55 -67 -66q-25 -14 -109 -14h-166q-48 0 -61 26zM1124 70l15 75q20 116 74 174.5t178 96.5l114 35q65 21 74 73q6 31 -21 36q-34 6 -68 -33l-9 -11q-33 -43 -49.5 -50t-61.5 3l-119 45q-38 14 -42.5 40.5t24.5 76.5 q62 101 150 147.5t231 46.5q151 0 230.5 -71t62.5 -185q-30 -224 -224 -274l-79 -23q-31 -5 -35 -16v-2h194q44 0 58 -15.5t6 -56.5l-21 -112q-6 -39 -23.5 -54.5t-58.5 -15.5h-538q-42 0 -55 15.5t-7 54.5z" />
<glyph unicode="&#xbe;" horiz-adv-x="1966" d="M98 840q-9 68 45 88l115 39q55 16 71 8.5t29 -47.5q15 -51 101 -51q62 0 65 30q5 24 -6 32.5t-47 8.5h-57q-29 0 -36.5 10t-2.5 41l24 131q5 30 18 42t44 12h41q58 0 67 39q4 19 -9 28t-44 9q-83 0 -125 -60q-43 -60 -102 -33l-90 45q-48 28 -15 84q109 189 391 189 q155 0 235 -68.5t60 -185.5q-15 -93 -106 -156q94 -55 70 -184q-43 -248 -388 -248q-324 0 -348 197zM410 26q-13 26 16 64l950 1290q34 49 64 62q27 12 102 12h176q48 0 59 -23.5t-16 -60.5l-948 -1290q-42 -54 -68 -66q-25 -14 -108 -14h-166q-48 0 -61 26zM1081 205 l11 65q12 65 49 99l393 383q37 37 63 47t82 10h107q52 0 69 -19.5t7 -68.5l-62 -352h23q40 0 51 -13t6 -47l-20 -112q-6 -37 -21.5 -50.5t-56.5 -13.5h-23l-12 -61q-12 -72 -78 -72h-162q-63 0 -51 72l12 61h-323q-42 0 -56 17t-8 55zM1415 369h94l19 110z" />
<glyph unicode="&#xbf;" horiz-adv-x="1232" d="M-37 -18q16 93 71 172t116 116q36 23 139 76q88 42 114 62q65 47 74 94q9 48 31 67t70 19h245q49 0 64.5 -18t7.5 -68q-40 -236 -221 -330q-15 -8 -80.5 -39t-79.5 -39q-29 -15 -55 -49t-33 -74q-15 -80 78 -80q68 0 110.5 27.5t96.5 112.5q31 51 56 62.5t69 -5.5 l225 -90q43 -17 51 -43.5t-18 -73.5q-100 -175 -245 -255.5t-378 -80.5q-268 0 -404 117t-104 320zM487 805l19 104q17 95 58.5 130.5t137.5 35.5h160q96 0 126 -36t13 -130l-18 -104q-17 -94 -59 -130t-138 -36h-159q-97 0 -127 36t-13 130z" />
<glyph unicode="&#xc0;" d="M-97.5 22q-9.5 22 15.5 66l684 1292q23 44 48 59t75 15h303q48 0 69.5 -15.5t28.5 -56.5l232 -1294q15 -88 -80 -88h-279q-76 0 -105 21t-34 73l-10 105h-385l-47 -105q-24 -52 -59 -73t-105 -21h-295q-47 0 -56.5 22zM633 571h182l-16 164q-7 110 6 240l6 43h-20 q-24 -150 -82 -281zM657 1649q-59 21 2 82l160 153q59 59 137 8l258 -170q45 -26 -6 -77l-88 -86q-30 -34 -98 -13z" />
<glyph unicode="&#xc1;" d="M-97.5 22q-9.5 22 15.5 66l684 1292q23 44 48 59t75 15h303q48 0 69.5 -15.5t28.5 -56.5l232 -1294q15 -88 -80 -88h-279q-76 0 -105 21t-34 73l-10 105h-385l-47 -105q-24 -52 -59 -73t-105 -21h-295q-47 0 -56.5 22zM618 1642q-35 47 19 78l317 164q88 46 136 -8 l106 -147q48 -61 -27 -82l-401 -103q-74 -21 -94 12zM633 571h182l-16 164q-7 110 6 240l6 43h-20q-24 -150 -82 -281z" />
<glyph unicode="&#xc2;" d="M-97.5 22q-9.5 22 15.5 66l684 1292q23 44 48 59t75 15h303q48 0 69.5 -15.5t28.5 -56.5l232 -1294q15 -88 -80 -88h-279q-76 0 -105 21t-34 73l-10 105h-385l-47 -105q-24 -52 -59 -73t-105 -21h-295q-47 0 -56.5 22zM451 1579.5q8 17.5 30 36.5l260 219q47 39 78 49 q30 10 101 10h90q63 0 88 -10.5t57 -48.5l184 -219q27 -26 16.5 -52t-57.5 -26h-215q-74 0 -100 8t-43 37l-31 57l-53 -55q-30 -30 -58.5 -38.5t-97.5 -8.5h-202q-33 0 -44 12t-3 29.5zM633 571h182l-16 164q-7 110 6 240l6 43h-20q-24 -150 -82 -281z" />
<glyph unicode="&#xc3;" d="M-97.5 22q-9.5 22 15.5 66l684 1292q23 44 48 59t75 15h303q48 0 69.5 -15.5t28.5 -56.5l232 -1294q15 -88 -80 -88h-279q-76 0 -105 21t-34 73l-10 105h-385l-47 -105q-24 -52 -59 -73t-105 -21h-295q-47 0 -56.5 22zM510 1612q47 262 256 262q96 0 180 -35t101 -35 q26 0 32 33q9 37 43 37h156q50 0 41 -49q-24 -139 -87.5 -200.5t-172.5 -61.5q-100 0 -178 34q-81 35 -97 35q-26 0 -32 -33q-6 -36 -43 -36h-158q-50 0 -41 49zM633 571h182l-16 164q-7 110 6 240l6 43h-20q-24 -150 -82 -281z" />
<glyph unicode="&#xc4;" d="M-97.5 22q-9.5 22 15.5 66l684 1292q23 44 48 59t75 15h303q48 0 69.5 -15.5t28.5 -56.5l232 -1294q15 -88 -80 -88h-279q-76 0 -105 21t-34 73l-10 105h-385l-47 -105q-24 -52 -59 -73t-105 -21h-295q-47 0 -56.5 22zM520 1704l6 31q17 93 57.5 127t133.5 34h16 q96 0 125.5 -34t15.5 -127l-6 -31q-17 -91 -60 -126.5t-136 -35.5h-17q-94 0 -123 35.5t-12 126.5zM633 571h182l-16 164q-7 110 6 240l6 43h-20q-24 -150 -82 -281zM975 1704l6 31q13 92 55.5 126.5t139.5 34.5h14q95 0 125.5 -35t13.5 -126l-6 -31q-17 -91 -59.5 -126.5 t-135.5 -35.5h-14q-94 0 -125 36t-14 126z" />
<glyph unicode="&#xc5;" d="M-97.5 22q-9.5 22 15.5 66l649 1210q-62 77 -41 203q24 144 134.5 223.5t273.5 79.5q155 0 235 -81.5t54 -221.5q-20 -116 -101 -190l236 -1223q18 -88 -80 -88h-279q-76 0 -105 21t-34 73l-10 105h-385l-47 -105q-24 -52 -59 -73t-105 -21h-295q-47 0 -56.5 22zM633 571 h182l-16 164q-7 110 6 240l6 43h-20q-24 -150 -82 -281zM797 1501q-6 -32 12.5 -51.5t56.5 -19.5q72 0 84 71q12 74 -59 74q-82 0 -94 -74z" />
<glyph unicode="&#xc6;" horiz-adv-x="1904" d="M-102.5 25q-11.5 25 20.5 63l1067 1292q39 46 60.5 60t62.5 14h809q51 0 67.5 -19.5t8.5 -70.5l-41 -229q-11 -51 -33.5 -71t-73.5 -20h-356l-19 -106h242q51 0 66.5 -19.5t7.5 -70.5l-41 -230q-7 -51 -30.5 -70.5t-74.5 -19.5h-241l-21 -116h371q51 0 66.5 -19.5 t7.5 -70.5l-41 -232q-7 -50 -31 -70t-76 -20h-698q-51 0 -66.5 19.5t-7.5 70.5l15 78h-422l-74 -88q-45 -51 -70 -64q-37 -16 -112 -16h-281q-50 0 -61.5 25zM793 520h186l100 412z" />
<glyph unicode="&#xc7;" horiz-adv-x="1339" d="M92 586l60 340q47 271 240.5 415t508.5 144q458 0 529 -379q10 -47 -6.5 -72.5t-67.5 -42.5l-271 -92q-51 -14 -73.5 -3t-32.5 60q-12 64 -44.5 90.5t-103.5 26.5q-102 0 -146.5 -39.5t-63.5 -140.5l-60 -332q-18 -100 13.5 -140t134.5 -40q127 0 192 117q30 50 55 62 t70 -5l266 -102q47 -17 55 -43.5t-18 -73.5q-169 -309 -549 -359l-39 -73h15q84 -1 120 -67t11 -159q-52 -198 -346 -198q-72 0 -162 33q-59 21 -53 63l16 94q15 81 90 37q54 -34 111.5 -33t64.5 41q5 24 -13 32.5t-73 8.5h-41q-56 0 -18 60l96 157q-264 23 -388 187.5 t-79 425.5z" />
<glyph unicode="&#xc8;" horiz-adv-x="1212" d="M-4 90l225 1274q7 51 30.5 70.5t74.5 19.5h893q51 0 67 -19.5t8 -70.5l-41 -229q-7 -51 -31 -71t-75 -20h-508l-18 -106h393q51 0 67 -19.5t6 -70.5l-40 -230q-7 -51 -30.5 -70.5t-74.5 -19.5h-393l-21 -116h523q51 0 67 -19.5t6 -70.5l-41 -232q-11 -51 -33 -70.5 t-73 -19.5h-907q-51 0 -66.5 19.5t-7.5 70.5zM553 1649q-59 21 2 82l160 153q59 59 137 8l258 -170q45 -26 -6 -77l-88 -86q-30 -34 -98 -13z" />
<glyph unicode="&#xc9;" horiz-adv-x="1212" d="M-4 90l225 1274q7 51 30.5 70.5t74.5 19.5h893q51 0 67 -19.5t8 -70.5l-41 -229q-7 -51 -31 -71t-75 -20h-508l-18 -106h393q51 0 67 -19.5t6 -70.5l-40 -230q-7 -51 -30.5 -70.5t-74.5 -19.5h-393l-21 -116h523q51 0 67 -19.5t6 -70.5l-41 -232q-11 -51 -33 -70.5 t-73 -19.5h-907q-51 0 -66.5 19.5t-7.5 70.5zM514 1642q-35 48 18 78l318 164q87 46 135 -8l107 -147q48 -61 -27 -82l-401 -103q-75 -21 -95 12z" />
<glyph unicode="&#xca;" horiz-adv-x="1212" d="M-4 90l225 1274q7 51 30.5 70.5t74.5 19.5h893q51 0 67 -19.5t8 -70.5l-41 -229q-7 -51 -31 -71t-75 -20h-508l-18 -106h393q51 0 67 -19.5t6 -70.5l-40 -230q-7 -51 -30.5 -70.5t-74.5 -19.5h-393l-21 -116h523q51 0 67 -19.5t6 -70.5l-41 -232q-11 -51 -33 -70.5 t-73 -19.5h-907q-51 0 -66.5 19.5t-7.5 70.5zM346.5 1579.5q8.5 17.5 30.5 36.5l260 219q47 39 78 49q30 10 100 10h90q63 0 88.5 -10.5t57.5 -48.5l184 -219q27 -26 16.5 -52t-57.5 -26h-215q-74 0 -100 8t-43 37l-31 57l-53 -55q-30 -30 -58.5 -38.5t-97.5 -8.5h-203 q-33 0 -44 12t-2.5 29.5z" />
<glyph unicode="&#xcb;" horiz-adv-x="1212" d="M-4 90l225 1274q7 51 30.5 70.5t74.5 19.5h893q51 0 67 -19.5t8 -70.5l-41 -229q-7 -51 -31 -71t-75 -20h-508l-18 -106h393q51 0 67 -19.5t6 -70.5l-40 -230q-7 -51 -30.5 -70.5t-74.5 -19.5h-393l-21 -116h523q51 0 67 -19.5t6 -70.5l-41 -232q-11 -51 -33 -70.5 t-73 -19.5h-907q-51 0 -66.5 19.5t-7.5 70.5zM416 1704l6 31q17 93 57 127t133 34h17q96 0 125.5 -34t15.5 -127l-6 -31q-17 -91 -60 -126.5t-137 -35.5h-16q-94 0 -123 35.5t-12 126.5zM870 1704l7 31q13 92 55 126.5t139 34.5h14q95 0 126 -35t14 -126l-6 -31 q-17 -91 -59.5 -126.5t-135.5 -35.5h-14q-94 0 -125.5 36t-14.5 126z" />
<glyph unicode="&#xcc;" horiz-adv-x="638" d="M-4 82l227 1290q10 47 31 64.5t65 17.5h312q46 0 60.5 -18.5t6.5 -63.5l-227 -1290q-8 -45 -29 -63.5t-67 -18.5h-312q-45 0 -59.5 17.5t-7.5 64.5zM256 1649q-59 21 2 82l160 153q59 59 137 8l258 -170q45 -26 -6 -77l-88 -86q-30 -34 -98 -13z" />
<glyph unicode="&#xcd;" horiz-adv-x="638" d="M-4 82l227 1290q10 47 31 64.5t65 17.5h312q46 0 60.5 -18.5t6.5 -63.5l-227 -1290q-8 -45 -29 -63.5t-67 -18.5h-312q-45 0 -59.5 17.5t-7.5 64.5zM217 1642q-35 47 19 78l317 164q87 46 135 -8l107 -147q48 -61 -27 -82l-401 -103q-75 -21 -95 12z" />
<glyph unicode="&#xce;" horiz-adv-x="638" d="M-4 82l227 1290q10 47 31 64.5t65 17.5h312q46 0 60.5 -18.5t6.5 -63.5l-227 -1290q-8 -45 -29 -63.5t-67 -18.5h-312q-45 0 -59.5 17.5t-7.5 64.5zM49.5 1579.5q8.5 17.5 30.5 36.5l260 219q47 39 78 49q30 10 100 10h90q63 0 88.5 -10.5t57.5 -48.5l184 -219 q27 -26 16.5 -52t-57.5 -26h-215q-74 0 -100 8t-43 37l-31 57l-53 -55q-30 -30 -58.5 -38.5t-97.5 -8.5h-203q-33 0 -44 12t-2.5 29.5z" />
<glyph unicode="&#xcf;" horiz-adv-x="638" d="M-4 82l227 1290q10 47 31 64.5t65 17.5h312q46 0 60.5 -18.5t6.5 -63.5l-227 -1290q-8 -45 -29 -63.5t-67 -18.5h-312q-45 0 -59.5 17.5t-7.5 64.5zM119 1704l6 31q17 93 57 127t133 34h17q96 0 125.5 -34t15.5 -127l-6 -31q-17 -91 -60 -126.5t-137 -35.5h-16 q-94 0 -123 35.5t-12 126.5zM573 1704l7 31q13 92 55 126.5t139 34.5h14q95 0 126 -35t14 -126l-6 -31q-17 -91 -59.5 -126.5t-135.5 -35.5h-14q-94 0 -125.5 36t-14.5 126z" />
<glyph unicode="&#xd0;" horiz-adv-x="1466" d="M25 627l34 196q9 56 64 56h84l86 485q7 51 30 70.5t74 19.5h518q309 0 453 -170q142 -170 92 -450l-47 -265q-47 -275 -242.5 -422t-511.5 -147h-518q-50 0 -65.5 19t-7.5 71l84 481h-84q-31 0 -40 12t-3 44zM600 412h109q109 0 163.5 46t73.5 150l41 240 q19 101 -20 148.5t-148 47.5h-108l-29 -165h119q31 0 40 -12t3 -44l-35 -196q-6 -32 -19.5 -44t-44.5 -12h-118z" />
<glyph unicode="&#xd1;" horiz-adv-x="1439" d="M-4 90l225 1274q7 51 30.5 70.5t74.5 19.5h305q61 0 82 -41l188 -434q51 -117 107 -383h18q-34 273 -37 350q-3 74 23 232l32 186q7 51 30.5 70.5t74.5 19.5h270q51 0 67.5 -19.5t8.5 -70.5l-225 -1274q-11 -51 -33.5 -70.5t-73.5 -19.5h-284q-59 0 -80 43l-166 369 q-45 96 -64 170q-18 72 -45 286h-16q9 -246 6 -329q-2 -70 -35 -267l-33 -182q-7 -51 -31 -70.5t-75 -19.5h-270q-51 0 -66.5 19.5t-7.5 70.5zM512 1612q47 262 256 262q96 0 180 -35t101 -35q26 0 32 33q9 37 43 37h156q50 0 41 -49q-24 -139 -87.5 -200.5t-172.5 -61.5 q-100 0 -178 34q-81 35 -97 35q-26 0 -32 -33q-6 -36 -43 -36h-158q-50 0 -41 49z" />
<glyph unicode="&#xd2;" horiz-adv-x="1411" d="M96 584l58 327q47 277 240.5 425.5t506.5 148.5q311 0 455 -170q146 -171 96 -451l-57 -327q-50 -276 -241.5 -422t-506.5 -146q-311 0 -454 168q-146 169 -97 447zM561 537q-24 -156 152 -156q181 0 205 156l67 381q14 75 -24.5 115t-124.5 40q-180 0 -207 -155z M686 1669q-59 21 2 82l160 154q59 59 137 8l258 -170q46 -26 -6 -78l-88 -86q-29 -33 -98 -12z" />
<glyph unicode="&#xd3;" horiz-adv-x="1411" d="M96 584l58 327q47 277 240.5 425.5t506.5 148.5q311 0 455 -170q146 -171 96 -451l-57 -327q-50 -276 -241.5 -422t-506.5 -146q-311 0 -454 168q-146 169 -97 447zM561 537q-24 -156 152 -156q181 0 205 156l67 381q14 75 -24.5 115t-124.5 40q-180 0 -207 -155z M647 1663q-35 47 19 78l317 164q87 46 135 -9l107 -147q48 -61 -27 -82l-401 -102q-75 -21 -95 12z" />
<glyph unicode="&#xd4;" horiz-adv-x="1411" d="M96 584l58 327q47 277 240.5 425.5t506.5 148.5q311 0 455 -170q146 -171 96 -451l-57 -327q-50 -276 -241.5 -422t-506.5 -146q-311 0 -454 168q-146 169 -97 447zM479.5 1599.5q8.5 16.5 30.5 36.5l260 219q50 40 78 50q30 10 100 10h90q62 0 87.5 -10.5t58.5 -49.5 l184 -219q27 -26 16.5 -51.5t-57.5 -25.5h-215q-74 0 -100 8t-43 37l-31 57l-53 -55q-30 -30 -58.5 -38.5t-97.5 -8.5h-203q-33 0 -44 12t-2.5 28.5zM561 537q-24 -156 152 -156q181 0 205 156l67 381q14 75 -24.5 115t-124.5 40q-180 0 -207 -155z" />
<glyph unicode="&#xd5;" horiz-adv-x="1411" d="M96 584l58 327q47 277 240.5 425.5t506.5 148.5q311 0 455 -170q146 -171 96 -451l-57 -327q-50 -276 -241.5 -422t-506.5 -146q-311 0 -454 168q-146 169 -97 447zM539 1632q47 262 256 262q99 0 180 -34q84 -35 100 -35q27 0 33 33q9 36 43 36h156q50 0 41 -49 q-24 -139 -88 -200.5t-173 -61.5q-95 0 -176 35t-98 35q-27 0 -33 -33q-6 -37 -43 -37h-157q-50 0 -41 49zM561 537q-24 -156 152 -156q181 0 205 156l67 381q14 75 -24.5 115t-124.5 40q-180 0 -207 -155z" />
<glyph unicode="&#xd6;" horiz-adv-x="1411" d="M96 584l58 327q47 277 240.5 425.5t506.5 148.5q311 0 455 -170q146 -171 96 -451l-57 -327q-50 -276 -241.5 -422t-506.5 -146q-311 0 -454 168q-146 169 -97 447zM549 1724l6 31q17 93 57 127.5t133 34.5h17q96 0 125.5 -34.5t15.5 -127.5l-6 -31q-17 -91 -60 -126 t-137 -35h-16q-94 0 -123 35t-12 126zM561 537q-24 -156 152 -156q181 0 205 156l67 381q14 75 -24.5 115t-124.5 40q-180 0 -207 -155zM1004 1724l6 31q13 92 55 127t139 35h15q94 0 125 -35t14 -127l-6 -31q-17 -91 -59.5 -126t-135.5 -35h-14q-94 0 -125 35.5t-14 125.5z " />
<glyph unicode="&#xd7;" horiz-adv-x="1124" d="M12 397q5 27 43 62l242 207l-170 206q-29 35 -24 62t47 59l182 156q38 35 66.5 35t54.5 -35l170 -207l245 209q41 32 68 32t53 -32l129 -156q27 -35 23 -60.5t-45 -60.5l-246 -208l172 -209q52 -61 -21 -123l-182 -154q-41 -32 -66.5 -32t-54.5 32l-172 209l-243 -207 q-41 -35 -68 -35t-53 35l-129 156q-26 32 -21 59z" />
<glyph unicode="&#xd8;" horiz-adv-x="1411" d="M-96.5 -77q-3.5 15 14.5 32l191 229q-101 154 -60 400l57 327q47 277 241 425.5t507 148.5q173 0 305 -60l64 76q25 26 40 32.5t52 6.5h219q48 0 14 -43l-200 -237q98 -154 57 -396l-57 -327q-50 -276 -241.5 -422t-506.5 -146q-173 0 -297 56l-63 -76q-23 -29 -38 -35 t-59 -6h-213q-23 0 -26.5 15zM532 645l349 410q-35 18 -93 18q-179 0 -206 -155l-41 -230q-1 -9 -4.5 -24t-4.5 -19zM578 395q32 -14 88 -14q180 0 204 156l37 208q0 1 1.5 10t3.5 20.5t3 17.5z" />
<glyph unicode="&#xd9;" horiz-adv-x="1421" d="M113 594l137 770q11 52 32.5 71t71.5 19h295q51 0 67.5 -19.5t8.5 -70.5l-150 -838q-27 -147 142 -147q163 0 190 147l150 838q7 51 30 70.5t74 19.5h295q51 0 67.5 -19.5t8.5 -70.5l-150 -844q-47 -270 -232 -410.5t-497 -140.5q-308 0 -448 174q-141 176 -92 451z M686 1649q-59 21 2 82l160 153q59 59 137 8l258 -170q45 -26 -6 -77l-88 -86q-30 -34 -98 -13z" />
<glyph unicode="&#xda;" horiz-adv-x="1421" d="M113 594l137 770q11 52 32.5 71t71.5 19h295q51 0 67.5 -19.5t8.5 -70.5l-150 -838q-27 -147 142 -147q163 0 190 147l150 838q7 51 30 70.5t74 19.5h295q51 0 67.5 -19.5t8.5 -70.5l-150 -844q-47 -270 -232 -410.5t-497 -140.5q-308 0 -448 174q-141 176 -92 451z M647 1642q-35 47 19 78l317 164q87 46 135 -8l107 -147q48 -61 -27 -82l-401 -103q-75 -21 -95 12z" />
<glyph unicode="&#xdb;" horiz-adv-x="1421" d="M113 594l137 770q11 52 32.5 71t71.5 19h295q51 0 67.5 -19.5t8.5 -70.5l-150 -838q-27 -147 142 -147q163 0 190 147l150 838q7 51 30 70.5t74 19.5h295q51 0 67.5 -19.5t8.5 -70.5l-150 -844q-47 -270 -232 -410.5t-497 -140.5q-308 0 -448 174q-141 176 -92 451z M479.5 1579.5q8.5 17.5 30.5 36.5l260 219q47 39 78 49q30 10 100 10h90q63 0 88.5 -10.5t57.5 -48.5l184 -219q27 -26 16.5 -52t-57.5 -26h-215q-74 0 -100 8t-43 37l-31 57l-53 -55q-30 -30 -58.5 -38.5t-97.5 -8.5h-203q-33 0 -44 12t-2.5 29.5z" />
<glyph unicode="&#xdc;" horiz-adv-x="1421" d="M113 594l137 770q11 52 32.5 71t71.5 19h295q51 0 67.5 -19.5t8.5 -70.5l-150 -838q-27 -147 142 -147q163 0 190 147l150 838q7 51 30 70.5t74 19.5h295q51 0 67.5 -19.5t8.5 -70.5l-150 -844q-47 -270 -232 -410.5t-497 -140.5q-308 0 -448 174q-141 176 -92 451z M549 1704l6 31q17 93 57 127t133 34h17q96 0 125.5 -34t15.5 -127l-6 -31q-17 -91 -60 -126.5t-137 -35.5h-16q-94 0 -123 35.5t-12 126.5zM1004 1704l6 31q13 92 55 126.5t139 34.5h15q95 0 125.5 -35t13.5 -126l-6 -31q-17 -91 -59.5 -126.5t-135.5 -35.5h-14 q-94 0 -125 36t-14 126z" />
<glyph unicode="&#xdd;" horiz-adv-x="1415" d="M153.5 1428q15.5 26 61.5 26h289q89 0 117.5 -12.5t46.5 -65.5l118 -362l258 362q40 55 70 66q34 12 117 12h295q46 0 53 -26t-23 -64l-606 -803l-82 -471q-11 -51 -33 -70.5t-73 -19.5h-295q-51 0 -67.5 19.5t-6.5 70.5l82 467l-319 807q-18 38 -2.5 64zM618 1642 q-35 47 19 78l317 164q88 46 136 -8l106 -147q48 -61 -27 -82l-401 -103q-74 -21 -94 12z" />
<glyph unicode="&#xde;" horiz-adv-x="1308" d="M-4 90l225 1274q7 51 30.5 70.5t74.5 19.5h292q51 0 67.5 -19.5t8.5 -70.5l-14 -74h168q256 0 383 -160q126 -159 80 -419q-42 -250 -217.5 -388.5t-440.5 -138.5h-168l-16 -94q-11 -51 -33.5 -70.5t-73.5 -19.5h-292q-51 0 -66.5 19.5t-7.5 70.5zM557 596h100 q65 0 111 39.5t57 101.5q11 63 -20 102.5t-96 39.5h-101z" />
<glyph unicode="&#xdf;" horiz-adv-x="1253" d="M-16 90l178 1008q76 438 610 438q272 0 396.5 -115.5t88.5 -314.5q-19 -108 -65 -173.5t-141 -123.5l-2 -10q68 -31 104.5 -74t50.5 -117.5t-8 -181.5q-76 -426 -565 -426h-84q-51 0 -66.5 19.5t-5.5 70.5l41 232q11 52 33 71t72 19h14q43 1 63.5 20t28.5 62 q8 46 -4.5 64.5t-58.5 19.5h-15q-51 0 -66.5 19.5t-4.5 70.5l38 221q7 51 25.5 70.5t56.5 19.5h11q54 0 69 76q6 36 -12.5 53.5t-65.5 17.5q-85 0 -100 -82l-168 -954q-11 -51 -33 -70.5t-73 -19.5h-269q-51 0 -67 19.5t-6 70.5z" />
<glyph unicode="&#xe0;" horiz-adv-x="1124" d="M53 459l33 188q41 231 187 340t409 109q258 0 408 -72q50 -26 60.5 -48.5t0.5 -76.5l-137 -776q-8 -44 -30 -66t-71 -34q-211 -54 -467 -54q-233 0 -332.5 130t-60.5 360zM479 1280q-63 21 4 82l166 141q62 53 135 4l252 -174q43 -31 -10 -78l-90 -84q-29 -29 -98 -8z M494 406q-9 -56 53 -56l59 4l60 342q3 10 -7 13q-20 4 -41 4q-69 0 -81 -62z" />
<glyph unicode="&#xe1;" horiz-adv-x="1124" d="M53 459l33 188q41 231 187 340t409 109q258 0 408 -72q50 -26 60.5 -48.5t0.5 -76.5l-137 -776q-8 -44 -30 -66t-71 -34q-211 -54 -467 -54q-233 0 -332.5 130t-60.5 360zM438 1255q-35 47 19 78l313 174q88 49 135 -4l113 -141q46 -61 -25 -82l-399 -117q-74 -21 -94 8z M494 406q-9 -56 53 -56l59 4l60 342q3 10 -7 13q-20 4 -41 4q-69 0 -81 -62z" />
<glyph unicode="&#xe2;" horiz-adv-x="1124" d="M53 459l33 188q41 231 187 340t409 109q258 0 408 -72q50 -26 60.5 -48.5t0.5 -76.5l-137 -776q-8 -44 -30 -66t-71 -34q-211 -54 -467 -54q-233 0 -332.5 130t-60.5 360zM288.5 1205.5q8.5 17.5 30.5 35.5l261 219q45 40 77 49q33 11 101 11h73q60 0 85 -10.5t61 -49.5 l184 -219q27 -26 15.5 -52t-58.5 -26h-200q-74 0 -99.5 8t-42.5 37l-31 58l-55 -56q-29 -30 -57.5 -38.5t-97.5 -8.5h-201q-32 0 -43 12.5t-2.5 30zM494 406q-9 -56 53 -56l59 4l60 342q3 10 -7 13q-20 4 -41 4q-69 0 -81 -62z" />
<glyph unicode="&#xe3;" horiz-adv-x="1124" d="M53 459l33 188q41 231 187 340t409 109q258 0 408 -72q50 -26 60.5 -48.5t0.5 -76.5l-137 -776q-8 -44 -30 -66t-71 -34q-211 -54 -467 -54q-233 0 -332.5 130t-60.5 360zM330 1235q50 262 258 262q98 0 182 -35t98 -35q27 0 33 33q6 37 43 37h156q50 0 41 -49 q-24 -139 -88.5 -200.5t-173.5 -61.5q-98 0 -179 35q-78 34 -96 34q-27 0 -33 -32q-6 -37 -43 -37h-157q-47 0 -41 49zM494 406q-9 -56 53 -56l59 4l60 342q3 10 -7 13q-20 4 -41 4q-69 0 -81 -62z" />
<glyph unicode="&#xe4;" horiz-adv-x="1124" d="M53 459l33 188q41 231 187 340t409 109q258 0 408 -72q50 -26 60.5 -48.5t0.5 -76.5l-137 -776q-8 -44 -30 -66t-71 -34q-211 -54 -467 -54q-233 0 -332.5 130t-60.5 360zM342 1329l4 31q17 93 58.5 127.5t134.5 34.5h16q97 0 126.5 -35t12.5 -127l-4 -31 q-17 -91 -60 -126.5t-136 -35.5h-17q-94 0 -123 35.5t-12 126.5zM494 406q-9 -56 53 -56l59 4l60 342q3 10 -7 13q-20 4 -41 4q-69 0 -81 -62zM797 1329l4 31q17 92 59.5 127t136.5 35h15q94 0 124 -35t13 -127l-4 -31q-17 -91 -59.5 -126.5t-135.5 -35.5h-14q-94 0 -125 36 t-14 126z" />
<glyph unicode="&#xe5;" horiz-adv-x="1124" d="M53 459l33 188q41 231 187 340t409 109q258 0 408 -72q50 -26 60.5 -48.5t0.5 -76.5l-137 -776q-8 -44 -30 -66t-71 -34q-211 -54 -467 -54q-233 0 -332.5 130t-60.5 360zM453 1395q20 119 111 184.5t224 65.5q130 0 195 -67t45 -183t-109.5 -182t-218.5 -66 q-132 0 -199.5 65.5t-47.5 182.5zM494 406q-9 -56 53 -56l59 4l60 342q3 10 -7 13q-20 4 -41 4q-69 0 -81 -62zM676 1395q-5 -27 11 -43.5t46 -16.5q61 0 70 60q9 61 -49 61q-69 0 -78 -61z" />
<glyph unicode="&#xe6;" horiz-adv-x="1568" d="M10 334q27 183 154 254q123 69 399 69h39l8 62q9 57 -53 57q-23 0 -42.5 -13.5t-27 -23.5t-22.5 -34q-37 -49 -107 -15l-178 76q-42 19 -47.5 44.5t23.5 72.5q80 114 187.5 163.5t279.5 49.5q147 0 241 -88q146 88 299 88q239 0 351 -94.5t81 -272.5 q-25 -140 -139 -224.5t-276 -84.5q-142 0 -215 8l-7 -35q-18 -104 60 -104q31 0 59.5 12.5t40.5 24.5l31 30q22 28 38.5 31.5t65.5 -14.5l162 -84q73 -39 21 -117q-132 -203 -480 -203q-135 0 -241 56q-142 -56 -283 -56q-247 0 -348 91.5t-74 273.5zM436 313 q-6 -29 8.5 -46t44.5 -17q10 0 56 4q-6 55 2 106l4 21h-35q-68 0 -80 -68zM1012 694q62 -4 73 -4q63 0 72 53q5 25 -10.5 41.5t-46.5 16.5q-71 0 -86 -90z" />
<glyph unicode="&#xe7;" horiz-adv-x="1064" d="M49 457l33 190q80 449 596 449q183 0 287.5 -79.5t128.5 -219.5q7 -47 -9.5 -71.5t-66.5 -41.5l-242 -78q-54 -16 -74.5 -4.5t-31.5 60.5q-7 39 -23 52t-47 13q-55 0 -70 -74l-41 -241q-12 -72 41 -72q31 0 48.5 11.5t39.5 51.5q26 47 53.5 59t71.5 -5l244 -76 q87 -28 35 -119q-143 -238 -420 -282l-37 -68h15q84 -1 120 -66.5t11 -158.5q-52 -199 -346 -199q-72 0 -162 33q-59 21 -53 63l16 94q15 81 90 37q54 -34 111.5 -32.5t64.5 41.5q5 23 -13 31.5t-73 8.5h-35q-61 0 -20 66l88 143q-201 23 -283.5 148.5t-46.5 335.5z" />
<glyph unicode="&#xe8;" horiz-adv-x="1120" d="M51 455l35 198q37 210 193.5 326.5t406.5 116.5q247 0 368 -93.5t101 -277.5q-17 -138 -130.5 -221.5t-289.5 -83.5q-158 0 -237 8l-6 -35q-18 -102 69 -102q33 0 64.5 11.5t44.5 23.5q2 2 13 12t19 18q43 52 115 17l172 -80q42 -19 48 -44t-23 -73q-148 -207 -508 -207 q-265 0 -379.5 129.5t-75.5 356.5zM475 1280q-63 21 4 82l166 141q62 53 135 4l252 -174q43 -31 -10 -78l-90 -84q-29 -29 -98 -8zM543 690q66 -4 86 -4q77 0 86 57q4 29 -13.5 43.5t-56.5 14.5q-80 0 -98 -90z" />
<glyph unicode="&#xe9;" horiz-adv-x="1120" d="M51 455l35 198q37 210 193.5 326.5t406.5 116.5q247 0 368 -93.5t101 -277.5q-17 -138 -130.5 -221.5t-289.5 -83.5q-158 0 -237 8l-6 -35q-18 -102 69 -102q33 0 64.5 11.5t44.5 23.5q2 2 13 12t19 18q43 52 115 17l172 -80q42 -19 48 -44t-23 -73q-148 -207 -508 -207 q-265 0 -379.5 129.5t-75.5 356.5zM434 1255q-35 47 19 78l313 174q88 49 135 -4l113 -141q46 -61 -25 -82l-399 -117q-74 -21 -94 8zM543 690q66 -4 86 -4q77 0 86 57q4 29 -13.5 43.5t-56.5 14.5q-80 0 -98 -90z" />
<glyph unicode="&#xea;" horiz-adv-x="1120" d="M51 455l35 198q37 210 193.5 326.5t406.5 116.5q247 0 368 -93.5t101 -277.5q-17 -138 -130.5 -221.5t-289.5 -83.5q-158 0 -237 8l-6 -35q-18 -102 69 -102q33 0 64.5 11.5t44.5 23.5q2 2 13 12t19 18q43 52 115 17l172 -80q42 -19 48 -44t-23 -73q-148 -207 -508 -207 q-265 0 -379.5 129.5t-75.5 356.5zM284.5 1205.5q8.5 17.5 30.5 35.5l260 219q45 39 78 49q33 11 101 11h73q60 0 85 -10.5t61 -49.5l184 -219q27 -26 15.5 -52t-58.5 -26h-201q-74 0 -99 8t-42 37l-31 58l-55 -56q-29 -30 -58 -38.5t-98 -8.5h-200q-32 0 -43 12.5t-2.5 30z M543 690q66 -4 86 -4q77 0 86 57q4 29 -13.5 43.5t-56.5 14.5q-80 0 -98 -90z" />
<glyph unicode="&#xeb;" horiz-adv-x="1120" d="M51 455l35 198q37 210 193.5 326.5t406.5 116.5q247 0 368 -93.5t101 -277.5q-17 -138 -130.5 -221.5t-289.5 -83.5q-158 0 -237 8l-6 -35q-18 -102 69 -102q33 0 64.5 11.5t44.5 23.5q2 2 13 12t19 18q43 52 115 17l172 -80q42 -19 48 -44t-23 -73q-148 -207 -508 -207 q-265 0 -379.5 129.5t-75.5 356.5zM338 1329l4 31q17 93 58.5 127.5t134.5 34.5h16q97 0 126.5 -35t12.5 -127l-4 -31q-17 -91 -60 -126.5t-137 -35.5h-16q-94 0 -123 35.5t-12 126.5zM543 690q66 -4 86 -4q77 0 86 57q4 29 -13.5 43.5t-56.5 14.5q-80 0 -98 -90zM793 1329 l4 31q17 92 59.5 127t136.5 35h15q94 0 124 -35t13 -127l-4 -31q-17 -91 -59.5 -126.5t-135.5 -35.5h-14q-94 0 -125 36t-14 126z" />
<glyph unicode="&#xec;" horiz-adv-x="585" d="M-18 82l159 901q8 45 29 63.5t68 18.5h286q45 0 60 -17.5t8 -64.5l-160 -901q-8 -45 -29 -63.5t-67 -18.5h-287q-45 0 -59.5 17.5t-7.5 64.5zM164 1305q-57 26 12 81l141 117q59 50 134 -8l247 -186q22 -20 19 -34t-35 -44l-80 -76q-33 -33 -96 0z" />
<glyph unicode="&#xed;" horiz-adv-x="585" d="M-18 82l159 901q8 45 29 63.5t68 18.5h286q45 0 60 -17.5t8 -64.5l-160 -901q-8 -45 -29 -63.5t-67 -18.5h-287q-45 0 -59.5 17.5t-7.5 64.5zM92 1274q2 17 31 35l301 198q88 55 137 9l129 -130q46 -55 -20 -81l-391 -150q-75 -31 -97 0l-71 76q-21 26 -19 43z" />
<glyph unicode="&#xee;" horiz-adv-x="585" d="M-44 1200q8 17 30 37l254 215q48 39 73 47q30 10 101 10h71q60 0 84 -9.5t60 -47.5l180 -215q27 -26 15.5 -51t-58.5 -25h-191q-71 0 -96 8t-43 35l-30 58l-54 -56q-26 -29 -54.5 -37t-96.5 -8h-201q-30 0 -41 11t-3 28zM-27 82l160 901q8 45 29 63.5t67 18.5h287 q45 0 60 -17.5t8 -64.5l-160 -901q-8 -45 -29 -63.5t-67 -18.5h-287q-45 0 -60 17.5t-8 64.5z" />
<glyph unicode="&#xef;" horiz-adv-x="585" d="M-18 82l159 901q8 45 29 63.5t68 18.5h286q45 0 60 -17.5t8 -64.5l-160 -901q-8 -45 -29 -63.5t-67 -18.5h-287q-45 0 -59.5 17.5t-7.5 64.5zM27 1329l4 31q17 93 58 127.5t134 34.5h17q97 0 126.5 -35t12.5 -127l-4 -31q-17 -91 -60 -126.5t-137 -35.5h-16 q-94 0 -123 35.5t-12 126.5zM481 1329l4 31q17 92 60 127t137 35h14q94 0 124.5 -35t13.5 -127l-5 -31q-17 -91 -59 -126.5t-135 -35.5h-14q-94 0 -125.5 36t-14.5 126z" />
<glyph unicode="&#xf0;" horiz-adv-x="1150" d="M49 438l31 166q35 192 176.5 290.5t368.5 98.5q117 0 200 -30q9 86 -47 145l-84 -76q-25 -14 -31.5 -14t-25.5 12l-59 39q-31 18 8 57l47 45q-83 5 -234 5q-51 0 -67 19.5t-6 70.5l30 168q7 51 30.5 70.5t74.5 19.5q347 0 493 -47l90 88q34 30 56 2l65 -60q26 -23 -8 -57 l-67 -61q151 -171 69 -633l-59 -340q-38 -217 -192.5 -332t-411.5 -115q-256 0 -372.5 124t-74.5 345zM494 416q-6 -32 11 -49t56 -17q78 0 90 66l31 172q9 67 -66 67q-83 0 -92 -67z" />
<glyph unicode="&#xf1;" horiz-adv-x="1140" d="M-23 82l144 807q11 56 32.5 81.5t77.5 45.5q213 80 465 80q239 0 339 -117.5t61 -341.5l-99 -555q-8 -45 -29 -63.5t-67 -18.5h-287q-45 0 -59.5 17.5t-7.5 64.5l94 534q8 43 -5 59.5t-54 16.5q-31 0 -39 -2q-8 -3 -8 -8l-107 -600q-8 -45 -29 -63.5t-67 -18.5h-287 q-45 0 -60 17.5t-8 64.5zM287 1235q50 262 258 262q96 0 180 -35t100 -35q27 0 33 33q6 37 43 37h156q50 0 41 -49q-24 -139 -88.5 -200.5t-173.5 -61.5q-96 0 -177 35q-78 34 -98 34q-27 0 -33 -32q-6 -37 -43 -37h-157q-47 0 -41 49z" />
<glyph unicode="&#xf2;" horiz-adv-x="1134" d="M49 453l33 196q38 217 192.5 332t411.5 115q253 0 367 -127.5t77 -352.5l-32 -196q-38 -218 -194.5 -334.5t-414.5 -116.5q-249 0 -363 130t-77 354zM465 1280q-63 21 4 82l166 141q62 53 135 4l252 -174q43 -31 -10 -78l-90 -84q-30 -30 -99 -8zM489 416q-12 -66 66 -66 q80 0 92 66l41 233q12 68 -67 68t-91 -68z" />
<glyph unicode="&#xf3;" horiz-adv-x="1134" d="M49 453l33 196q38 217 192.5 332t411.5 115q253 0 367 -127.5t77 -352.5l-32 -196q-38 -218 -194.5 -334.5t-414.5 -116.5q-249 0 -363 130t-77 354zM424 1255q-35 48 18 78l314 174q88 49 135 -4l113 -141q46 -61 -25 -82l-399 -117q-75 -21 -95 8zM489 416 q-12 -66 66 -66q80 0 92 66l41 233q12 68 -67 68t-91 -68z" />
<glyph unicode="&#xf4;" horiz-adv-x="1134" d="M49 453l33 196q38 217 192.5 332t411.5 115q253 0 367 -127.5t77 -352.5l-32 -196q-38 -218 -194.5 -334.5t-414.5 -116.5q-249 0 -363 130t-77 354zM274 1205.5q9 17.5 31 35.5l260 219q45 39 78 49q33 11 100 11h74q60 0 85 -10.5t61 -49.5l184 -219q27 -26 15.5 -52 t-58.5 -26h-201q-74 0 -99 8t-42 37l-31 58l-55 -56q-29 -30 -58 -38.5t-98 -8.5h-201q-32 0 -43 12.5t-2 30zM489 416q-12 -66 66 -66q80 0 92 66l41 233q12 68 -67 68t-91 -68z" />
<glyph unicode="&#xf5;" horiz-adv-x="1134" d="M49 453l33 196q38 217 192.5 332t411.5 115q253 0 367 -127.5t77 -352.5l-32 -196q-38 -218 -194.5 -334.5t-414.5 -116.5q-249 0 -363 130t-77 354zM315 1235q50 262 258 262q97 0 181 -35t100 -35q27 0 33 33q6 37 43 37h155q50 0 41 -49q-24 -139 -88.5 -200.5 t-173.5 -61.5q-95 0 -176 35q-78 34 -98 34q-27 0 -33 -32q-6 -37 -43 -37h-158q-47 0 -41 49zM489 416q-12 -66 66 -66q80 0 92 66l41 233q12 68 -67 68t-91 -68z" />
<glyph unicode="&#xf6;" horiz-adv-x="1134" d="M49 453l33 196q38 217 192.5 332t411.5 115q253 0 367 -127.5t77 -352.5l-32 -196q-38 -218 -194.5 -334.5t-414.5 -116.5q-249 0 -363 130t-77 354zM328 1329l4 31q17 93 58 127.5t134 34.5h17q97 0 126.5 -35t12.5 -127l-4 -31q-17 -91 -60 -126.5t-137 -35.5h-16 q-94 0 -123 35.5t-12 126.5zM489 416q-12 -66 66 -66q80 0 92 66l41 233q12 68 -67 68t-91 -68zM782 1329l4 31q17 92 60 127t137 35h14q94 0 124.5 -35t13.5 -127l-5 -31q-17 -91 -59 -126.5t-135 -35.5h-14q-94 0 -125.5 36t-14.5 126z" />
<glyph unicode="&#xf7;" horiz-adv-x="1155" d="M45 557l39 221q7 51 31 70.5t75 19.5h885q51 0 66.5 -19.5t7.5 -70.5l-39 -221q-11 -51 -33 -70.5t-73 -19.5h-885q-51 0 -67.5 19.5t-6.5 70.5zM283 225l2 23q17 91 56.5 124.5t129.5 33.5h160q91 0 118.5 -33.5t10.5 -124.5l-2 -23q-17 -91 -56.5 -124t-130.5 -33h-159 q-91 0 -118.5 33.5t-10.5 123.5zM434 1087l4 23q17 91 56 124.5t129 33.5h159q91 0 119.5 -34t11.5 -124l-4 -23q-17 -91 -56 -124t-130 -33h-160q-91 0 -118.5 33.5t-10.5 123.5z" />
<glyph unicode="&#xf8;" horiz-adv-x="1136" d="M35 -27l98 121q-121 127 -80 359l33 196q38 217 192.5 332t411.5 115q127 0 223 -35l31 37q25 32 82 32h125q47 0 14 -45l-102 -122q110 -128 72 -347l-33 -196q-38 -218 -194 -334.5t-414 -116.5q-116 0 -207 31l-31 -39q-26 -33 -84 -33h-125q-51 0 -12 45zM483 293 q16 -25 62 -25q80 0 92 66l29 164q4 20 4 24zM514 532l191 236q-12 31 -66 31q-78 0 -90 -68l-31 -168q-4 -20 -4 -31z" />
<glyph unicode="&#xf9;" horiz-adv-x="1140" d="M66 451l94 532q8 45 29 63.5t67 18.5h287q45 0 59.5 -17.5t7.5 -64.5l-94 -534q-8 -43 5 -59.5t54 -16.5q23 0 33 2q14 3 17 16l104 592q8 45 29 63.5t67 18.5h287q45 0 60 -17.5t8 -64.5l-144 -807q-11 -56 -32.5 -81.5t-77.5 -45.5q-213 -80 -465 -80 q-235 0 -334.5 127.5t-60.5 354.5zM467 1280q-63 21 4 82l166 141q62 53 135 4l252 -174q43 -31 -10 -78l-90 -84q-30 -30 -99 -8z" />
<glyph unicode="&#xfa;" horiz-adv-x="1140" d="M66 451l94 532q8 45 29 63.5t67 18.5h287q45 0 59.5 -17.5t7.5 -64.5l-94 -534q-8 -43 5 -59.5t54 -16.5q23 0 33 2q14 3 17 16l104 592q8 45 29 63.5t67 18.5h287q45 0 60 -17.5t8 -64.5l-144 -807q-11 -56 -32.5 -81.5t-77.5 -45.5q-213 -80 -465 -80 q-235 0 -334.5 127.5t-60.5 354.5zM426 1255q-35 48 18 78l314 174q88 49 135 -4l113 -141q46 -61 -25 -82l-399 -117q-75 -21 -95 8z" />
<glyph unicode="&#xfb;" horiz-adv-x="1140" d="M66 451l94 532q8 45 29 63.5t67 18.5h287q45 0 59.5 -17.5t7.5 -64.5l-94 -534q-8 -43 5 -59.5t54 -16.5q23 0 33 2q14 3 17 16l104 592q8 45 29 63.5t67 18.5h287q45 0 60 -17.5t8 -64.5l-144 -807q-11 -56 -32.5 -81.5t-77.5 -45.5q-213 -80 -465 -80 q-235 0 -334.5 127.5t-60.5 354.5zM276.5 1205.5q8.5 17.5 30.5 35.5l260 219q45 39 78 49q33 11 100 11h74q60 0 85 -10.5t61 -49.5l184 -219q27 -26 15.5 -52t-58.5 -26h-201q-74 0 -99 8t-42 37l-31 58l-55 -56q-29 -30 -58 -38.5t-98 -8.5h-200q-32 0 -43 12.5t-2.5 30z " />
<glyph unicode="&#xfc;" horiz-adv-x="1140" d="M66 451l94 532q8 45 29 63.5t67 18.5h287q45 0 59.5 -17.5t7.5 -64.5l-94 -534q-8 -43 5 -59.5t54 -16.5q23 0 33 2q14 3 17 16l104 592q8 45 29 63.5t67 18.5h287q45 0 60 -17.5t8 -64.5l-144 -807q-11 -56 -32.5 -81.5t-77.5 -45.5q-213 -80 -465 -80 q-235 0 -334.5 127.5t-60.5 354.5zM330 1329l4 31q17 93 58 127.5t134 34.5h17q97 0 126.5 -35t12.5 -127l-4 -31q-17 -91 -60 -126.5t-137 -35.5h-16q-94 0 -123 35.5t-12 126.5zM784 1329l4 31q17 92 60 127t137 35h14q94 0 124.5 -35t13.5 -127l-4 -31 q-17 -91 -59.5 -126.5t-135.5 -35.5h-14q-94 0 -125.5 36t-14.5 126z" />
<glyph unicode="&#xfd;" horiz-adv-x="1144" d="M-16 -252q-35 74 65 117l227 102q24 12 41.5 15t29.5 -3.5t18 -13.5t16 -22q13 -22 19.5 -31.5t22.5 -18.5t40 -12q67 0 82 78l12 74q-18 -2 -90 -2q-234 0 -334.5 130.5t-58.5 360.5l82 461q8 45 29 63.5t67 18.5h287q45 0 59.5 -17.5t7.5 -64.5l-84 -473 q-7 -42 6.5 -59t55.5 -17q35 0 45 2l96 547q8 45 29 63.5t67 18.5h287q45 0 60 -17.5t8 -64.5l-175 -983q-83 -471 -598 -471q-172 0 -270 51.5t-149 167.5zM422 1255q-35 48 18 78l314 174q88 49 135 -4l112 -141q46 -61 -24 -82l-399 -117q-75 -21 -95 8z" />
<glyph unicode="&#xfe;" horiz-adv-x="1130" d="M-98 -367l317 1801q8 45 29 63.5t67 18.5h289q45 0 60 -17.5t8 -64.5l-62 -340q16 2 74 2q242 0 345.5 -127.5t64.5 -354.5l-33 -188q-82 -457 -561 -457q-12 0 -46 1t-42 1l-60 -338q-10 -47 -31 -64.5t-65 -17.5h-287q-46 0 -60.5 18.5t-6.5 63.5zM479 356q21 -6 47 -6 q70 0 82 62l43 245q9 56 -53 56q-38 0 -57 -8z" />
<glyph unicode="&#xff;" horiz-adv-x="1144" d="M-16 -252q-35 74 65 117l227 102q24 12 41.5 15t29.5 -3.5t18 -13.5t16 -22q13 -22 19.5 -31.5t22.5 -18.5t40 -12q67 0 82 78l12 74q-18 -2 -90 -2q-234 0 -334.5 130.5t-58.5 360.5l82 461q8 45 29 63.5t67 18.5h287q45 0 59.5 -17.5t7.5 -64.5l-84 -473 q-7 -42 6.5 -59t55.5 -17q35 0 45 2l96 547q8 45 29 63.5t67 18.5h287q45 0 60 -17.5t8 -64.5l-175 -983q-83 -471 -598 -471q-172 0 -270 51.5t-149 167.5zM326 1329l4 31q17 93 58 127.5t134 34.5h17q97 0 126.5 -35t12.5 -127l-4 -31q-17 -91 -60 -126.5t-137 -35.5h-16 q-94 0 -123 35.5t-12 126.5zM780 1329l4 31q17 92 60 127t137 35h14q94 0 124.5 -35t13.5 -127l-5 -31q-17 -91 -59 -126.5t-135 -35.5h-14q-94 0 -125.5 36t-14.5 126z" />
<glyph unicode="&#x152;" horiz-adv-x="1837" d="M94 584l58 327q47 276 242.5 425t510.5 149q129 0 238 -31h741q51 0 67.5 -19.5t8.5 -70.5l-41 -229q-11 -51 -33.5 -71t-73.5 -20h-405l-18 -106h290q51 0 66.5 -19.5t7.5 -70.5l-41 -230q-7 -51 -30 -70.5t-74 -19.5h-291l-21 -116h420q51 0 66.5 -19.5t7.5 -70.5 l-41 -232q-11 -51 -33.5 -70.5t-73.5 -19.5h-731q-105 -31 -272 -31q-311 0 -451 168q-144 166 -94 447zM559 537q-24 -156 152 -156q56 0 108 22l115 648q-42 22 -100 22q-180 0 -207 -155z" />
<glyph unicode="&#x153;" horiz-adv-x="1593" d="M55 459l33 196q77 441 561 441q172 0 279 -101q134 101 305 101q225 0 325.5 -96t69.5 -275q-25 -140 -136 -222.5t-273 -82.5q-142 0 -215 8l-7 -35q-18 -104 60 -104q31 0 59.5 12.5t40.5 24.5l31 30q22 28 38.5 31.5t65.5 -14.5l162 -84q73 -39 21 -117 q-132 -203 -480 -203q-155 0 -250 92q-121 -92 -280 -92q-240 0 -344.5 130t-65.5 360zM494 408q-9 -58 36 -58q57 0 66 58l45 249q9 60 -45 60q-48 0 -57 -60zM1061 694q62 -4 74 -4q62 0 71 53q5 25 -10.5 41.5t-46.5 16.5q-71 0 -86 -90z" />
<glyph unicode="&#x178;" horiz-adv-x="1415" d="M153.5 1428q15.5 26 61.5 26h289q89 0 117.5 -12.5t46.5 -65.5l118 -362l258 362q40 55 70 66q34 12 117 12h295q46 0 53 -26t-23 -64l-606 -803l-82 -471q-11 -51 -33 -70.5t-73 -19.5h-295q-51 0 -67.5 19.5t-6.5 70.5l82 467l-319 807q-18 38 -2.5 64zM520 1704l6 31 q17 93 57.5 127t133.5 34h16q96 0 125.5 -34t15.5 -127l-6 -31q-17 -91 -60 -126.5t-136 -35.5h-17q-94 0 -123 35.5t-12 126.5zM975 1704l6 31q13 92 55.5 126.5t139.5 34.5h14q95 0 125.5 -35t13.5 -126l-6 -31q-17 -91 -59.5 -126.5t-135.5 -35.5h-14q-94 0 -125 36 t-14 126z" />
<glyph unicode="&#x2c6;" horiz-adv-x="821" d="M86 1203.5q9 17.5 31 35.5l260 219q45 39 78 49q33 11 100 11h74q60 0 84.5 -10.5t60.5 -49.5l184 -219q27 -26 15.5 -52t-58.5 -26h-200q-74 0 -99.5 8t-42.5 37l-30 58l-56 -56q-29 -30 -57.5 -38.5t-97.5 -8.5h-201q-32 0 -43 12.5t-2 30z" />
<glyph unicode="&#x2dc;" horiz-adv-x="624" d="M51 1235q50 262 258 262q96 0 180 -35t101 -35q27 0 33 33q6 37 43 37h155q50 0 41 -49q-24 -139 -88.5 -200.5t-173.5 -61.5q-97 0 -178 35q-78 34 -96 34q-27 0 -33 -32q-6 -37 -43 -37h-158q-47 0 -41 49z" />
<glyph unicode="&#x2000;" horiz-adv-x="968" />
<glyph unicode="&#x2001;" horiz-adv-x="1936" />
<glyph unicode="&#x2002;" horiz-adv-x="968" />
<glyph unicode="&#x2003;" horiz-adv-x="1936" />
<glyph unicode="&#x2004;" horiz-adv-x="645" />
<glyph unicode="&#x2005;" horiz-adv-x="484" />
<glyph unicode="&#x2006;" horiz-adv-x="322" />
<glyph unicode="&#x2007;" horiz-adv-x="322" />
<glyph unicode="&#x2008;" horiz-adv-x="242" />
<glyph unicode="&#x2009;" horiz-adv-x="387" />
<glyph unicode="&#x200a;" horiz-adv-x="107" />
<glyph unicode="&#x2010;" horiz-adv-x="813" d="M47 432l39 219q7 50 31 70t76 20h491q51 0 66.5 -19.5t7.5 -70.5l-39 -219q-7 -51 -30.5 -70.5t-74.5 -19.5h-491q-51 0 -67.5 19.5t-8.5 70.5z" />
<glyph unicode="&#x2011;" horiz-adv-x="813" d="M47 432l39 219q7 50 31 70t76 20h491q51 0 66.5 -19.5t7.5 -70.5l-39 -219q-7 -51 -30.5 -70.5t-74.5 -19.5h-491q-51 0 -67.5 19.5t-8.5 70.5z" />
<glyph unicode="&#x2012;" horiz-adv-x="813" d="M47 432l39 219q7 50 31 70t76 20h491q51 0 66.5 -19.5t7.5 -70.5l-39 -219q-7 -51 -30.5 -70.5t-74.5 -19.5h-491q-51 0 -67.5 19.5t-8.5 70.5z" />
<glyph unicode="&#x2013;" horiz-adv-x="1163" d="M49 436l39 219q7 51 30.5 70.5t74.5 19.5h839q51 0 67.5 -19.5t8.5 -70.5l-39 -219q-11 -51 -33 -70.5t-73 -19.5h-840q-51 0 -67.5 19.5t-6.5 70.5z" />
<glyph unicode="&#x2014;" horiz-adv-x="1615" d="M49 434l39 223q7 51 31.5 71t75.5 20h1290q51 0 67.5 -20t6.5 -71l-39 -223q-11 -51 -33.5 -70.5t-73.5 -19.5h-1290q-51 0 -66.5 19.5t-7.5 70.5z" />
<glyph unicode="&#x2018;" horiz-adv-x="575" d="M135 883l242 497q24 44 53.5 62t79.5 18h168q41 0 51.5 -12t-0.5 -49l-154 -516q-19 -62 -48.5 -88.5t-84.5 -26.5h-243q-123 0 -64 115z" />
<glyph unicode="&#x2019;" horiz-adv-x="573" d="M95.5 780q-10.5 12 0.5 49l154 517q19 62 48.5 88t84.5 26h244q121 0 63 -114l-241 -498q-24 -43 -54 -61.5t-80 -18.5h-168q-41 0 -51.5 12z" />
<glyph unicode="&#x201a;" horiz-adv-x="481" d="M-88 -236l68 381q7 44 28.5 62t65.5 18h225q45 0 61.5 -19t4.5 -61l-113 -381q-12 -44 -35 -61.5t-67 -17.5h-173q-44 0 -58.5 17.5t-6.5 61.5z" />
<glyph unicode="&#x201c;" horiz-adv-x="1058" d="M139 897l242 498q24 44 53.5 62t79.5 18h168q41 0 51.5 -12.5t-0.5 -49.5l-153 -516q-19 -62 -49 -88.5t-85 -26.5h-243q-123 0 -64 115zM623 897l241 498q24 44 53.5 62t79.5 18h168q41 0 51.5 -12.5t0.5 -49.5l-154 -516q-19 -62 -48.5 -88.5t-84.5 -26.5h-244 q-122 0 -63 115z" />
<glyph unicode="&#x201d;" horiz-adv-x="1060" d="M91.5 753.5q-10.5 12.5 0.5 49.5l154 516q19 62 48.5 88.5t84.5 26.5h244q122 0 63 -115l-242 -498q-24 -44 -53.5 -62t-79.5 -18h-168q-41 0 -51.5 12.5zM575 803l154 516q19 62 48.5 88.5t84.5 26.5h244q122 0 63 -115l-241 -498q-24 -44 -53.5 -62t-79.5 -18h-168 q-41 0 -51.5 12.5t-0.5 49.5z" />
<glyph unicode="&#x201e;" horiz-adv-x="1048" d="M-119.5 -258q-10.5 12 0.5 49l154 516q19 62 48.5 88.5t84.5 26.5h244q122 0 63 -115l-242 -497q-41 -80 -133 -80h-168q-41 0 -51.5 12zM364.5 -258q-10.5 12 0.5 49l153 516q19 62 48.5 88.5t84.5 26.5h244q122 0 63 -115l-241 -497q-41 -80 -133 -80h-168 q-41 0 -51.5 12z" />
<glyph unicode="&#x2022;" horiz-adv-x="819" d="M96 541q24 139 133 235q109 92 250 92q139 0 215 -94q75 -93 51 -233q-24 -139 -133 -234q-113 -96 -250 -96t-215 96q-75 93 -51 234z" />
<glyph unicode="&#x2026;" horiz-adv-x="1708" d="M-10 150l22 124q17 96 60 132t137 36h119q96 0 126 -37t13 -131l-23 -124q-17 -94 -59.5 -130t-136.5 -36h-119q-96 0 -126 36t-13 130zM563 150l23 124q17 96 59.5 132t136.5 36h119q96 0 126 -37t13 -131l-22 -124q-17 -94 -60 -130t-137 -36h-119q-96 0 -126 36 t-13 130zM1137 150l22 124q17 96 60 132t137 36h119q96 0 126 -37t13 -131l-23 -124q-17 -94 -59.5 -130t-136.5 -36h-119q-96 0 -126 36t-13 130z" />
<glyph unicode="&#x202f;" horiz-adv-x="387" />
<glyph unicode="&#x2039;" horiz-adv-x="794" d="M16 536.5q4 22.5 39 51.5l494 422q59 52 102 0l109 -133q40 -51 -19 -101l-274 -233l186 -226q42 -48 -16 -100l-162 -139q-57 -51 -100 0l-338 407q-25 29 -21 51.5z" />
<glyph unicode="&#x203a;" horiz-adv-x="794" d="M63 217q-42 50 17 100l268 226l-192 233q-23 27 -19 49t37 52l154 133q58 56 102 0l346 -422q41 -56 -18 -103l-482 -407q-59 -53 -100 0z" />
<glyph unicode="&#x205f;" horiz-adv-x="484" />
<glyph unicode="&#x20ac;" horiz-adv-x="1595" d="M22.5 458.5q-8.5 14.5 8.5 49.5l55 117q17 35 36.5 47t57.5 12h139l13 68h-121q-38 0 -46.5 13t7.5 48l55 119q17 35 37.5 47t59.5 12h57l2 13q38 231 229 356q192 125 480 125q410 0 518 -299q27 -81 -70 -115l-248 -82q-57 -18 -96 21q-17 17 -23 22.5t-20 13t-37 15.5 q-38 12 -86 12q-156 0 -168 -76l-2 -6h248q37 0 45.5 -14t-8.5 -49l-53 -117q-17 -35 -37.5 -47t-59.5 -12h-188l-12 -68h172q37 0 45.5 -14t-8.5 -49l-56 -117q-28 -60 -98 -60h-76l-4 -16q-7 -35 14.5 -49t73.5 -14q126 0 215 86q46 46 109 22l258 -98q92 -35 37 -117 q-90 -141 -254.5 -215t-374.5 -74q-288 0 -440 92q-83 50 -116.5 139t-10.5 210l6 34h-219q-37 0 -45.5 14.5z" />
<glyph unicode="&#x2122;" horiz-adv-x="1302" d="M170 1284l14 80q9 59 78 59h375q57 0 70.5 -14.5t5.5 -65.5l-8 -38q-7 -53 -25.5 -66.5t-77.5 -13.5h-57l-45 -250q-6 -39 -24.5 -53.5t-65.5 -14.5h-82q-47 0 -58.5 13t-5.5 55l45 250h-82q-38 0 -50.5 13t-6.5 46zM666 975l65 368q8 51 24 65.5t70 14.5h47 q37 0 52.5 -8.5t33.5 -36.5l64 -161l115 159q44 47 102 47h51q50 0 61 -14t3 -66l-66 -368q-6 -39 -23.5 -53.5t-60.5 -14.5h-49q-44 0 -54.5 13t-4.5 55l10 53q7 48 10 62l-24 -33l-11 -15q-19 -20 -35.5 -26t-54.5 -6h-18q-62 0 -76 32l-6 13q-6 14 -14 28q-5 -35 -9 -55 l-10 -53q-6 -41 -22 -54.5t-60 -13.5h-49q-46 0 -56.5 13t-4.5 55z" />
<glyph unicode="&#x25fc;" horiz-adv-x="1064" d="M0 0v1065h1065v-1065h-1065z" />
</font>
</defs>
</svg>
